<?xml version="1.0" encoding="UTF-8" standalone="no"?>
<!-- Created with Inkscape (http://www.inkscape.org/) -->

<svg
   width="210mm"
   height="297mm"
   viewBox="0 0 210 297"
   version="1.1"
   id="svg5"
   inkscape:version="1.1.1 (c3084ef, 2021-09-22)"
   sodipodi:docname="logo.svg"
   xmlns:inkscape="http://www.inkscape.org/namespaces/inkscape"
   xmlns:sodipodi="http://sodipodi.sourceforge.net/DTD/sodipodi-0.dtd"
   xmlns="http://www.w3.org/2000/svg"
   xmlns:svg="http://www.w3.org/2000/svg">
  <sodipodi:namedview
     id="namedview7"
     pagecolor="#505050"
     bordercolor="#ffffff"
     borderopacity="1"
     inkscape:pageshadow="0"
     inkscape:pageopacity="0"
     inkscape:pagecheckerboard="1"
     inkscape:document-units="mm"
     showgrid="false"
     inkscape:zoom="1"
     inkscape:cx="232.5"
     inkscape:cy="191.5"
     inkscape:window-width="1312"
     inkscape:window-height="969"
     inkscape:window-x="420"
     inkscape:window-y="98"
     inkscape:window-maximized="0"
     inkscape:current-layer="svgg" />
  <defs
     id="defs2" />
  <g
     inkscape:label="Layer 1"
     inkscape:groupmode="layer"
     id="layer1">
    <g
       id="svgg"
       transform="matrix(0.26458333,0,0,0.26458333,99.507534,247.64447)">
      <path
         id="path0"
         d="M 409.73047 274.25195 C 409.54634 274.20132 409.11812 274.48497 408.4375 274.99609 C 395.1555 284.97109 387.24467 296.355 388.88867 303.125 C 389.34567 305.009 390.28458 307.81042 390.89258 309.10742 C 391.03658 309.41242 391.1543 309.70386 391.1543 309.75586 C 391.1543 309.80686 391.39827 310.39073 391.69727 311.05273 C 392.34527 312.48773 392.86559 313.64909 393.18359 314.37109 C 393.70959 315.56409 394.52597 317.31636 395.54297 319.44336 L 396.62109 321.69531 L 395.91602 322.72852 C 395.52802 323.29752 395.20898 323.80442 395.20898 323.85742 C 395.20898 323.91042 394.86722 324.53509 394.44922 325.24609 C 394.03022 325.95709 393.63055 326.65869 393.56055 326.80469 C 393.49055 326.94969 392.95505 327.94277 392.37305 329.00977 C 391.49805 330.61177 388.57023 336.46734 386.61523 340.52734 C 386.13323 341.52634 385.24403 342.33295 381.95703 344.75195 C 381.02103 345.44095 380.08967 346.18148 379.88867 346.39648 C 379.49767 346.81648 379.55723 347.17577 379.99023 347.00977 C 380.52723 346.80377 383.62058 346.53855 383.76758 346.68555 C 383.85258 346.77055 383.75773 347.26278 383.55273 347.80078 C 383.35173 348.32978 383.12102 349.00002 383.04102 349.29102 C 382.96102 349.58202 382.81384 350.05861 382.71484 350.34961 C 382.61584 350.64061 382.39742 351.3555 382.23242 351.9375 C 382.06642 352.5195 381.86234 353.1945 381.77734 353.4375 C 381.32234 354.7325 380.58117 359.52608 380.57617 361.20508 L 380.57227 362.88867 L 382.92773 365.22266 L 385.28516 367.55664 L 387.0293 367.45312 C 391.2543 367.20716 397.02456 365.73964 402.35156 363.55664 C 404.45856 362.69364 404.46253 362.69164 406.14453 361.93164 C 406.77553 361.64664 407.68688 361.23748 408.17188 361.02148 C 411.16084 359.68548 419.70116 355.32395 422.16016 353.87695 C 422.32516 353.77995 423.01436 353.39172 423.69336 353.01172 C 424.37136 352.63272 425.11666 352.17509 425.34766 351.99609 C 425.97666 351.51109 426.40069 351.58902 428.30469 352.54102 C 431.25669 354.01602 435.79066 356.10498 437.89062 356.95898 C 438.42462 357.17498 439.01889 357.42281 439.21289 357.50781 C 444.69389 359.91981 448.41978 360.32467 451.92578 358.88867 C 452.20878 358.77267 452.71859 358.56478 453.05859 358.42578 C 458.34459 356.27078 465.48695 350.00803 472.12695 341.70703 C 474.57595 338.64503 474.73322 338.10209 472.94922 338.87109 C 472.63122 339.00809 471.93339 339.29672 471.40039 339.51172 C 468.75539 340.57672 464.42575 342.71773 462.46875 343.92773 C 457.54175 346.97273 452.66814 347.57248 448.49414 345.64648 C 446.36114 344.66148 443.07803 342.49373 439.45703 339.67773 C 437.18603 337.91273 434.13284 335.69822 433.79688 335.57422 C 433.60788 335.50422 433.35805 334.98573 433.12305 334.17773 C 432.91805 333.46973 432.68542 332.73111 432.60742 332.53711 C 431.98142 330.97911 431.74547 330.46606 431.23047 329.53906 C 430.39847 328.04106 430.33061 327.93503 429.22461 326.45703 C 425.66161 321.69403 420.81878 317.62273 416.55078 315.80273 C 415.05578 315.16473 414.54341 314.98828 414.19141 314.98828 C 413.53341 314.98728 412.72036 314.33641 411.94336 313.19141 C 411.09336 311.93841 410.28917 310.86627 409.32617 309.69727 C 400.68217 299.21127 399.77303 294.48594 404.70703 285.71094 C 405.22503 284.78894 406.12789 283.08392 406.71289 281.91992 C 408.03089 279.30092 407.9063 279.56839 408.6543 277.77539 C 409.6668 275.34852 410.03735 274.33635 409.73047 274.25195 z M 398.00781 290.41211 C 398.13844 290.38369 398.20898 290.47336 398.20898 290.69336 C 398.20898 290.91136 398.08936 291.71266 397.94336 292.47266 C 397.79836 293.23266 397.67678 294.145 397.67578 294.5 C 397.67078 295.597 397.52102 295.69294 396.16602 295.46094 C 394.52702 295.17994 394.50522 295.12219 395.44922 293.61719 C 396.67922 291.65444 397.61594 290.49737 398.00781 290.41211 z M 393.625 298.95703 C 393.75155 298.96528 393.89006 298.99417 394.03906 299.04492 C 394.46106 299.18892 395.58792 299.36364 396.54492 299.43164 C 398.50992 299.57264 398.19466 299.30848 399.34766 301.77148 C 400.01066 303.18648 400.10895 303.67139 399.75195 303.77539 C 396.22495 304.80439 392.86905 303.87292 392.62305 301.79492 C 392.42655 300.13592 392.65202 299.19205 393.2793 298.99414 C 393.38384 298.96116 393.49845 298.94878 393.625 298.95703 z M 401.74609 307.30469 C 402.49933 307.16997 402.75281 307.53152 403.85156 309.00977 C 405.87756 311.73477 405.86905 311.70491 404.62305 312.00391 C 402.34305 312.55291 401.25241 312.77106 399.44141 313.03906 C 396.99441 313.40106 397.07381 313.42345 396.50781 312.18945 C 396.25681 311.64345 395.97491 311.04533 395.87891 310.86133 C 395.53291 310.19933 394.84473 308.24025 394.92773 308.15625 C 394.97473 308.10925 396.07509 308.03519 397.37109 307.99219 C 399.01909 307.93819 400.04239 307.81603 400.77539 307.58203 C 401.18739 307.45028 401.49502 307.34959 401.74609 307.30469 z M 407.9707 315.0957 C 408.06154 315.08995 408.15538 315.10503 408.25 315.14062 C 408.43925 315.21187 408.63417 315.36616 408.82617 315.59766 C 408.99017 315.79666 409.33575 316.34255 409.59375 316.81055 L 410.06055 317.66016 L 409.64648 318.23633 C 408.42648 319.92733 406.05352 321.13431 402.85352 321.69531 C 401.18152 321.98831 401.21412 322.01223 400.07812 319.74023 C 398.79716 317.18023 398.81822 316.93864 400.32422 316.93164 C 400.81122 316.92964 402.47853 316.5803 404.64453 316.0293 C 405.42053 315.8313 406.36709 315.59305 406.74609 315.49805 C 407.12609 315.40405 407.55903 315.25878 407.70703 315.17578 C 407.79203 315.12803 407.87987 315.10146 407.9707 315.0957 z M 414.26562 319.08008 C 414.35119 319.09909 414.44736 319.14639 414.56836 319.21289 C 414.73736 319.30489 415.19208 319.51941 415.58008 319.69141 C 417.09208 320.35841 419.80683 322.24114 421.42383 323.74414 C 421.82583 324.11814 422.30242 324.54916 422.48242 324.70312 C 423.95042 325.95612 426.91617 329.76441 427.82617 331.56641 C 428.14417 332.19641 428.51539 332.92464 428.65039 333.18164 C 429.14239 334.11864 428.97848 334.84302 428.14648 335.41602 C 425.75348 337.06302 423.95817 340.07111 423.07617 343.91211 C 422.75517 345.31211 422.7138 345.33917 421.4668 344.95117 C 415.7058 343.15817 410.0222 347.43214 406.7832 355.99414 C 406.5262 356.67314 406.25564 357.3225 406.18164 357.4375 C 406.04464 357.6525 403.81889 358.73378 402.08789 359.42578 C 401.55389 359.63878 400.88084 359.91883 400.58984 360.04883 C 400.29884 360.17883 399.66273 360.41808 399.17773 360.58008 C 398.69273 360.74208 398.17725 360.93481 398.03125 361.00781 C 397.88625 361.08181 397.17136 361.31916 396.44336 361.53516 C 395.71636 361.75216 394.89034 362.0018 394.60938 362.0918 C 393.98738 362.2898 392.91797 362.30519 392.91797 362.11719 C 392.91797 362.04219 393.52177 361.38711 394.25977 360.66211 C 396.65477 358.31011 396.96877 357.65772 396.25977 356.51172 C 395.15877 354.72972 394.22711 355.1638 389.91211 359.4668 L 386.36523 363.00195 L 385.75977 362.41797 C 384.93077 361.61397 384.75248 361.88394 388.77148 357.83594 C 392.72848 353.84994 392.81509 353.71209 392.12109 352.37109 C 391.25409 350.69609 390.06019 350.99888 387.49219 353.54688 C 385.55919 355.46384 385.26453 355.498 385.76953 353.75 C 386.38753 351.61 387.65998 348.0017 388.33398 346.4707 C 388.41898 346.2767 388.64398 345.75927 388.83398 345.32227 C 389.96298 342.73227 390.09442 342.4967 390.48242 342.3457 C 390.70542 342.2587 391.20575 342.06592 391.59375 341.91992 C 398.41275 339.34092 401.85859 336.53119 403.30859 332.36719 C 403.77359 331.02919 403.81953 328.17473 403.39453 326.92773 C 403.00753 325.79373 403.04808 325.74802 404.83008 325.29102 C 409.02008 324.21902 411.39691 322.71581 413.37891 319.88281 C 413.68941 319.43881 413.86602 319.20498 414.02539 319.11523 C 414.10508 319.07036 414.18008 319.06107 414.26562 319.08008 z M 398.71094 326.15234 C 398.9255 326.12527 399.07466 326.43275 399.30078 326.9375 C 400.29278 329.1535 399.69447 332.00808 397.85547 333.83008 C 396.11547 335.55408 392.74023 337.61127 392.74023 336.94727 C 392.74023 336.86827 395.74355 330.98984 396.43555 329.71484 C 397.81492 327.17172 398.35334 326.19747 398.71094 326.15234 z M 430.93164 338.61914 C 431.27614 338.65652 431.65853 338.8115 431.89453 339.0625 L 432.30859 339.50195 L 431.31836 339.50195 C 430.31336 339.50195 430.02027 339.33895 430.19727 338.87695 C 430.28027 338.66045 430.58714 338.58177 430.93164 338.61914 z M 433.16797 340.73828 L 433.04492 341.39453 C 432.97792 341.75553 432.82122 342.37072 432.69922 342.76172 C 432.38222 343.77772 431.95633 345.67723 431.61133 347.61523 C 431.44733 348.53723 431.26503 349.34706 431.20703 349.41406 C 431.04203 349.60406 426.8497 347.52545 426.7207 347.18945 C 426.5927 346.85645 426.86428 344.69159 427.11328 344.05859 C 427.20128 343.83259 427.36266 343.31425 427.47266 342.90625 C 427.79966 341.68425 428.42148 341.09312 429.39648 341.07812 C 429.84848 341.07016 430.57472 341.00183 431.01172 340.92383 C 431.44772 340.84683 432.11328 340.77177 432.48828 340.75977 L 433.16797 340.73828 z M 437.14844 342.97461 C 437.19003 342.9711 437.22939 342.98322 437.26758 343.01172 C 437.36758 343.08572 438.3027 343.76544 439.3457 344.52344 C 441.4217 346.03044 441.36308 345.92872 440.95508 347.38672 C 440.55208 348.83072 440.392 350.09847 440.375 351.98047 C 440.358 353.86147 440.47141 353.79834 438.56641 352.98438 C 435.03341 351.47538 435.20298 351.64342 435.33398 349.73242 C 435.55336 346.5543 436.52453 343.02731 437.14844 342.97461 z M 445.11914 348.52148 C 445.42077 348.55292 445.88544 348.77023 446.63281 349.11523 C 447.36781 349.45523 448.07698 349.73242 448.20898 349.73242 C 448.76998 349.73242 449.00195 350.26955 449.00195 351.56055 C 449.00195 352.26055 449.12439 353.30581 449.27539 353.88281 C 449.76139 355.75081 449.55509 355.89423 446.62109 355.74023 C 444.84909 355.64623 444.04173 353.60002 444.42773 350.16602 C 444.53823 349.17852 444.59269 348.68556 444.86719 348.55469 C 444.93581 348.52197 445.0186 348.51101 445.11914 348.52148 z M 418.88672 348.64258 C 419.31281 348.60888 419.72515 348.61522 420.10352 348.66406 C 420.608 348.72919 421.05308 348.87075 421.39258 349.09375 L 421.89648 349.42578 L 421.48438 349.73438 C 421.25838 349.90534 420.62798 350.28036 420.08398 350.56836 C 419.53998 350.85536 418.64752 351.33958 418.10352 351.64258 C 415.96452 352.83258 412.28692 354.66992 412.04492 354.66992 C 411.23292 354.66992 413.59036 351.13717 415.19336 349.95117 C 416.20305 349.20417 417.60843 348.74367 418.88672 348.64258 z M 457.49219 350.2793 C 457.86569 350.26667 458.17187 350.30067 458.17188 350.38867 C 458.17188 350.59167 457.14447 351.42627 455.48047 352.57227 C 453.55547 353.89727 453.19097 353.90658 453.04297 352.64258 C 452.85497 351.03358 452.96236 350.89819 454.56836 350.74219 C 455.33736 350.66719 456.16716 350.53427 456.41016 350.44727 C 456.67916 350.35077 457.11869 350.29192 457.49219 350.2793 z "
         transform="translate(-376.09147,-935.97911)" />
    </g>
  </g>
</svg>
