<?xml version="1.0" encoding="UTF-8" standalone="no"?>
<svg
   viewBox="0 0 64 64"
   version="1.1"
   id="svg6"
   sodipodi:docname="logo-background.svg"
   width="64"
   height="64"
   inkscape:version="1.1.1 (c3084ef, 2021-09-22)"
   xmlns:inkscape="http://www.inkscape.org/namespaces/inkscape"
   xmlns:sodipodi="http://sodipodi.sourceforge.net/DTD/sodipodi-0.dtd"
   xmlns="http://www.w3.org/2000/svg"
   xmlns:svg="http://www.w3.org/2000/svg">
  <defs
     id="defs10" />
  <sodipodi:namedview
     id="namedview8"
     pagecolor="#505050"
     bordercolor="#ffffff"
     borderopacity="1"
     inkscape:pageshadow="0"
     inkscape:pageopacity="0"
     inkscape:pagecheckerboard="1"
     showgrid="false"
     inkscape:zoom="2.4208754"
     inkscape:cx="41.513908"
     inkscape:cy="6.4026426"
     inkscape:window-width="1296"
     inkscape:window-height="969"
     inkscape:window-x="0"
     inkscape:window-y="40"
     inkscape:window-maximized="0"
     inkscape:current-layer="svg6"
     width="209px" />
  <path
     fill="#39424e"
     d="M 16.266172,0 H 47.214304 A 16.787627,17.809441 0 0 1 63.999999,17.809446 V 46.466072 A 16.527892,17.533897 0 0 1 47.472107,63.999999 H 1.2018473e-7 V 17.258351 A 16.266178,17.256253 0 0 1 16.266172,0 Z"
     id="path2"
     style="stroke-width:0.999995" />
  <path
     fill="#b9b4a9"
     d="m 20.416602,9.9025327 c -0.09753,-0.02574 -0.321268,0.1229023 -0.678107,0.3905943 -6.967296,5.234366 -11.1190816,11.20629 -10.2566156,14.757337 0.239954,0.987398 0.7336836,2.458572 1.0508376,3.138634 0.07714,0.15858 0.138729,0.311283 0.138729,0.339047 0,0.02779 0.125928,0.333103 0.285523,0.680062 0.339023,0.753438 0.612607,1.362128 0.779265,1.740836 0.275582,0.626538 0.703824,1.546505 1.237079,2.660791 l 0.565187,1.181716 -0.368889,0.543227 a 4.7585104,4.7585104 0 0 0 -0.370709,0.590886 c 0,0.02828 -0.178641,0.356864 -0.398492,0.729608 a 19.722045,19.722045 0 0 0 -0.465941,0.816897 c -0.03843,0.07507 -0.317253,0.5968 -0.624564,1.157893 -0.458072,0.838679 -1.9945796,3.911892 -3.0196586,6.041321 -0.253763,0.523456 -0.719747,0.947713 -2.4446903,2.216706 a 13.278226,13.278226 0 0 0 -1.0845172,0.862435 c -0.2042288,0.218123 -0.1735505,0.408408 0.054717,0.321224 0.2816131,-0.109034 1.9033813,-0.247818 1.982776,-0.170556 0.043835,0.0458 -0.00184,0.303444 -0.1134728,0.584928 -0.1073002,0.277592 -0.227966,0.63054 -0.2696,0.783212 a 11.816967,11.816967 0 0 1 -0.1710544,0.555148 c -0.051889,0.15266 -0.1666956,0.527365 -0.2537076,0.832789 -0.087018,0.305265 -0.1940908,0.658212 -0.2379503,0.787073 -0.2379688,0.678095 -0.6286096,3.192165 -0.6305585,4.074537 v 0.882268 l 1.2332484,1.225336 1.2372317,1.223357 0.915971,-0.05349 c 2.2147076,-0.129125 5.2422976,-0.898086 8.0379066,-2.044188 1.104399,-0.452028 1.106373,-0.453995 1.988708,-0.852561 0.331148,-0.14846 0.808936,-0.364782 1.062766,-0.475833 1.568263,-0.701862 6.047181,-2.989945 7.339972,-3.749304 0.08503,-0.05164 0.448069,-0.253787 0.802997,-0.45405 0.356833,-0.198272 0.747486,-0.438202 0.868472,-0.533335 0.329069,-0.253782 0.553149,-0.21216 1.550458,0.285541 a 93.467056,93.467056 0 0 0 5.722077,2.607261 c 2.874924,1.26491 4.829887,1.477064 6.669864,0.723657 l 0.594833,-0.243846 c 2.771773,-1.130092 6.519067,-4.415472 10.002705,-8.769501 1.284824,-1.606011 1.368073,-1.891497 0.430253,-1.487054 -0.166548,0.07132 -0.531306,0.222095 -0.812969,0.337061 -1.38782,0.555197 -3.657994,1.679363 -4.683116,2.315842 -2.585454,1.596125 -5.143118,1.911312 -7.332017,0.900164 -1.118331,-0.51553 -2.841214,-1.653633 -4.740723,-3.130746 -1.189567,-0.9259 -2.793647,-2.087734 -2.970118,-2.153222 -0.09965,-0.03578 -0.229958,-0.307342 -0.352886,-0.733592 a 14.862417,14.862417 0 0 0 -0.269687,-0.858555 11.49775,11.49775 0 0 0 -0.723601,-1.572308 9.8461523,9.8461523 0 0 0 -1.0509,-1.617907 c -1.869672,-2.498178 -4.409514,-4.633564 -6.650062,-5.589233 -0.783157,-0.335075 -1.050728,-0.426274 -1.237171,-0.426274 -0.344955,0 -0.773228,-0.343025 -1.179632,-0.943815 a 23.683505,23.683505 0 0 0 -1.37213,-1.832059 c -4.534459,-5.502024 -5.01226,-7.980412 -2.42289,-12.584276 0.271641,-0.483777 0.745519,-1.377978 1.050894,-1.988657 0.69392,-1.374025 0.626526,-1.233251 1.019042,-2.173055 0.531453,-1.272889 0.725741,-1.8042653 0.565187,-1.8498693 z m -6.15043,8.4780833 c 0.06887,-0.01331 0.105923,0.03174 0.105923,0.148738 0,0.113043 -0.06068,0.535332 -0.138722,0.931878 -0.07472,0.398532 -0.13911,0.878343 -0.13911,1.064717 -0.0012,0.574985 -0.08301,0.624554 -0.793135,0.503607 -0.860504,-0.14673 -0.872351,-0.178487 -0.376697,-0.967564 0.646426,-1.03101 1.138072,-1.635734 1.3423,-1.681341 z m -2.299949,4.482911 c 0.06646,0.0012 0.138624,0.0198 0.218111,0.04562 0.222095,0.07526 0.812888,0.168589 1.314524,0.204222 1.031055,0.07333 0.866431,-0.06545 1.471119,1.227285 0.346997,0.741542 0.398633,0.995335 0.212264,1.050851 -1.849968,0.539286 -3.610532,0.05164 -3.73943,-1.038936 -0.103144,-0.870421 0.0043,-1.366099 0.343013,-1.469194 a 0.49171275,0.49171275 0 0 1 0.182311,-0.0198 z m 4.262855,4.379789 c 0.394514,-0.07128 0.527359,0.119042 1.102371,0.892258 1.062722,1.431514 1.058769,1.415634 0.406447,1.572277 -1.197566,0.287497 -1.768545,0.402501 -2.718274,0.543258 -1.284836,0.190384 -1.243171,0.202243 -1.540646,-0.446102 a 24.42504,24.42504 0 0 0 -0.329082,-0.695923 c -0.182292,-0.346991 -0.543257,-1.376004 -0.499613,-1.419618 0.02527,-0.02404 0.602764,-0.06367 1.282764,-0.0852 0.864562,-0.03013 1.401819,-0.09317 1.78448,-0.216156 0.218129,-0.06949 0.376642,-0.120801 0.509549,-0.144747 z m 3.263591,4.086402 a 0.35094011,0.35094011 0 0 1 0.146155,0.0241 0.79308519,0.79308519 0 0 1 0.303365,0.237913 c 0.08503,0.10711 0.26564,0.392578 0.402482,0.638447 l 0.243833,0.446114 -0.218043,0.301348 c -0.63852,0.886282 -1.883634,1.520763 -3.563021,1.814174 -0.876366,0.154695 -0.858506,0.166591 -1.455325,-1.025042 -0.672106,-1.342288 -0.660167,-1.4692 0.128468,-1.473147 0.255786,0 1.130184,-0.184377 2.266221,-0.473866 l 1.102334,-0.277599 c 0.198284,-0.04974 0.426361,-0.126807 0.503763,-0.170464 a 0.32119941,0.32119941 0 0 1 0.138557,-0.03984 z m 3.303116,2.089781 a 0.64636432,0.64636432 0 0 1 0.159189,0.06948 c 0.08843,0.0498 0.327213,0.162663 0.531429,0.251863 0.792975,0.348958 2.216626,1.338323 3.065289,2.125421 0.210131,0.198259 0.459842,0.422328 0.555123,0.503616 0.769306,0.65823 2.325721,2.656886 2.80354,3.600622 0.166911,0.33111 0.360854,0.713783 0.432275,0.846597 0.257753,0.49172 0.173348,0.872419 -0.265751,1.171818 -1.255013,0.864415 -2.196762,2.442699 -2.658781,4.457149 -0.168736,0.73358 -0.189959,0.749435 -0.844642,0.545212 -3.021657,-0.939782 -6.003647,1.302702 -7.702843,5.793541 a 8.188603,8.188603 0 0 1 -0.317197,0.757367 c -0.06882,0.112636 -1.237208,0.680092 -2.145359,1.042901 -0.281478,0.111223 -0.634432,0.257759 -0.787067,0.327164 a 10.28433,10.28433 0 0 1 -0.739549,0.277567 7.1199211,7.1199211 0 0 0 -0.602746,0.226061 9.2790947,9.2790947 0 0 1 -0.832838,0.277549 l -0.961491,0.289507 c -0.327169,0.10537 -0.886307,0.112538 -0.886307,0.0049 0,-0.03996 0.317241,-0.382667 0.703812,-0.763354 1.255116,-1.233224 1.419697,-1.576206 1.048865,-2.177021 -0.578941,-0.933935 -1.066658,-0.707795 -3.330948,1.550508 l -1.8597436,1.853829 -0.317302,-0.305345 c -0.43616,-0.422321 -0.52935,-0.281557 1.578284,-2.405054 2.0758986,-2.089818 2.1214306,-2.161116 1.7586646,-2.865056 -0.45608,-0.880344 -1.082611,-0.721696 -2.4288586,0.614691 -1.01314,1.007206 -1.169759,1.025054 -0.904112,0.107195 0.32511,-1.122321 0.991351,-3.013763 1.346285,-3.818726 l 0.261731,-0.600797 c 0.5928526,-1.36016 0.6602336,-1.483046 0.8644626,-1.562366 l 0.582912,-0.224069 c 3.576805,-1.352229 5.385046,-2.825408 6.146372,-5.010298 0.243975,-0.701881 0.267725,-2.200831 0.04396,-2.855127 -0.202317,-0.594808 -0.180559,-0.618613 0.753407,-0.856533 2.198716,-0.563085 3.445884,-1.352217 4.484845,-2.837255 0.162736,-0.23396 0.257746,-0.356882 0.339053,-0.402506 a 0.16654786,0.16654786 0 0 1 0.126027,-0.02004 z m -8.160859,3.70965 c 0.113368,-0.01316 0.19205,0.148719 0.309328,0.412417 0.521519,1.163856 0.206227,2.660815 -0.757366,3.616422 -0.912129,0.904136 -2.682653,1.982739 -2.682653,1.635779 0,-0.04187 1.574269,-3.126774 1.937183,-3.794928 0.723626,-1.334357 1.007151,-1.843893 1.193508,-1.86969 z m 16.902638,6.540966 c 0.180492,0.02004 0.382704,0.0991 0.505682,0.231968 l 0.218018,0.231999 h -0.519502 c -0.527334,0 -0.681937,-0.08719 -0.588801,-0.329198 0.04371,-0.112969 0.204173,-0.154664 0.384603,-0.134732 z m 1.173792,1.110338 -0.06411,0.344907 a 7.1734538,7.1734538 0 0 1 -0.180498,0.71781 c -0.166677,0.533347 -0.390653,1.52867 -0.571065,2.54583 -0.08505,0.483795 -0.180442,0.908077 -0.212104,0.943772 -0.08487,0.09908 -2.286122,-0.991394 -2.353485,-1.165824 -0.06636,-0.176477 0.075,-1.31062 0.206147,-1.643722 0.04629,-0.119289 0.130878,-0.390537 0.187943,-0.60475 0.173347,-0.64034 0.497615,-0.951678 1.011252,-0.957611 0.235928,-0.0018 0.614598,-0.0399 0.846628,-0.08115 0.22804,-0.0399 0.576955,-0.07928 0.77321,-0.08744 l 0.356925,-0.0043 z m 2.087838,1.173755 c 0.02109,0 0.04371,0.0018 0.0613,0.01998 l 1.090555,0.793036 c 1.088384,0.791131 1.056685,0.737595 0.842583,1.502935 -0.210156,0.75744 -0.295446,1.421572 -0.303365,2.40897 -0.0031,0.987398 0.0506,0.953701 -0.949705,0.52739 -1.851781,-0.793043 -1.764609,-0.703854 -1.695218,-1.70514 0.116615,-1.669391 0.624602,-3.519291 0.951703,-3.547037 z m 4.183436,2.910582 c 0.156908,0.01611 0.400551,0.130853 0.793147,0.311308 0.384622,0.178548 0.757329,0.323161 0.826727,0.323161 0.293485,0 0.41645,0.281588 0.41645,0.959646 0,0.366854 0.06129,0.916032 0.142104,1.217417 0.253788,0.981422 0.146291,1.056815 -1.393771,0.975483 -0.928003,-0.04992 -1.352322,-1.122216 -1.150024,-2.924476 0.06007,-0.517473 0.08657,-0.777249 0.230007,-0.844618 a 0.24387374,0.24387374 0 0 1 0.132163,-0.01783 z m -13.763912,0.06168 a 3.112859,3.112859 0 0 1 0.638428,0.0049 1.613928,1.613928 0 0 1 0.676084,0.224019 l 0.265634,0.174583 -0.218025,0.162607 c -0.119626,0.08905 -0.448148,0.285468 -0.733715,0.436167 -0.285424,0.150772 -0.753376,0.406508 -1.038862,0.565101 -1.122235,0.624552 -3.051413,1.586215 -3.178233,1.586215 -0.426367,0 0.81287,-1.851868 1.65153,-2.474453 0.529388,-0.390634 1.269012,-0.634438 1.937159,-0.686025 z m 20.253389,0.858488 c 0.196131,-0.0018 0.356894,0.0049 0.356894,0.0592 0,0.107232 -0.539304,0.545249 -1.411699,1.146015 -1.011209,0.693962 -1.201623,0.699932 -1.278866,0.03603 -0.09975,-0.842688 -0.04451,-0.914035 0.799068,-0.995372 0.404443,-0.04002 0.838667,-0.109507 0.967558,-0.15467 a 2.1215024,2.1215024 0 0 1 0.567045,-0.08907 z"
     id="path4"
     style="stroke-width:0.999995" />
</svg>
