<svg xmlns="http://www.w3.org/2000/svg" viewBox="0 0 50 50"><path d="M15.924.003c-.097-.027-.324.123-.684.394C8.214 5.673 4.03 11.695 4.9 15.277c.24.996.738 2.478 1.06 3.164.075.162.138.316.138.343 0 .027.129.336.287.686.343.76.618 1.374.786 1.756.278.63.71 1.558 1.248 2.683l.57 1.191-.372.547c-.206.3-.375.569-.375.597 0 .028-.18.359-.401.735a22.05 22.05 0 0 0-.47.824c-.038.077-.32.602-.629 1.167-.463.847-2.011 3.945-3.046 6.092-.255.529-.725.955-2.464 2.235-.495.365-.988.756-1.094.87-.207.222-.175.412.054.324.284-.109 1.92-.249 1.998-.171.045.045-.005.305-.114.59-.106.28-.228.634-.27.788-.043.154-.12.406-.173.56-.052.154-.168.532-.255.84-.088.308-.196.665-.24.794-.241.685-.634 3.22-.636 4.109l-.002.89 1.246 1.235 1.247 1.235.922-.055c2.235-.13 5.288-.907 8.106-2.061 1.114-.457 1.117-.458 2.006-.86.334-.15.816-.367 1.073-.481 1.58-.707 6.099-3.014 7.4-3.78.087-.051.451-.257.81-.458.36-.2.753-.442.876-.537.332-.256.557-.215 1.564.288 1.561.78 3.96 1.886 5.07 2.338.283.114.598.245.7.29 2.9 1.276 4.87 1.49 6.725.73l.6-.245c2.796-1.14 6.574-4.452 10.087-8.844 1.295-1.62 1.378-1.907.434-1.5a48.54 48.54 0 0 1-.819.339c-1.399.563-3.69 1.696-4.725 2.336-2.606 1.61-5.184 1.928-7.392.91-1.128-.522-2.865-1.668-4.78-3.158-1.202-.934-2.817-2.105-2.995-2.17-.1-.038-.232-.312-.356-.74a14.987 14.987 0 0 0-.273-.867c-.331-.825-.456-1.096-.728-1.586-.44-.793-.476-.849-1.062-1.63-1.884-2.52-4.446-4.674-6.704-5.637-.79-.337-1.062-.43-1.248-.43-.348-.001-.778-.346-1.19-.951a23.658 23.658 0 0 0-1.384-1.849c-4.572-5.547-5.053-8.046-2.443-12.688a59.36 59.36 0 0 0 1.06-2.006c.698-1.385.632-1.244 1.028-2.192.536-1.284.732-1.82.57-1.864zm-6.2 8.549c.068-.015.105.032.105.148 0 .116-.063.54-.14.942-.077.402-.141.884-.142 1.072-.002.58-.081.631-.798.508-.867-.148-.879-.179-.38-.975.651-1.038 1.147-1.65 1.354-1.695zm-2.32 4.52a.85.85 0 0 1 .22.046c.223.077.819.169 1.325.205 1.04.075.873-.065 1.483 1.238.35.748.403 1.005.214 1.06-1.866.544-3.641.051-3.771-1.048-.104-.877.015-1.377.347-1.481a.494.494 0 0 1 .183-.02zm4.297 4.416c.398-.072.532.12 1.113.902 1.072 1.441 1.068 1.425.408 1.584-1.206.29-1.783.405-2.74.547-1.295.192-1.253.204-1.552-.45a24.632 24.632 0 0 0-.333-.702c-.183-.35-.547-1.386-.503-1.43.025-.026.607-.065 1.292-.088.872-.028 1.413-.093 1.801-.217.218-.07.38-.123.514-.146zm3.292 4.121a.35.35 0 0 1 .148.024c.1.038.203.12.305.242.087.105.27.394.406.641l.247.45-.22.305c-.645.894-1.9 1.533-3.593 1.83-.884.154-.867.167-1.468-1.035-.677-1.354-.666-1.482.13-1.486.258 0 1.14-.186 2.286-.477.41-.105.911-.23 1.112-.281.2-.05.43-.127.508-.17a.324.324 0 0 1 .14-.043zm3.33 2.108c.046.01.096.035.16.07.09.049.33.162.536.253.8.353 2.236 1.349 3.091 2.144.213.198.465.426.56.507.777.663 2.345 2.678 2.827 3.631.168.333.364.719.436.854.26.496.173.88-.267 1.182-1.266.872-2.215 2.463-2.682 4.495-.17.74-.192.755-.851.55-3.048-.949-6.054 1.312-7.768 5.841-.136.36-.279.703-.318.764-.073.113-1.25.685-2.166 1.051-.282.113-.638.261-.792.33-.154.069-.49.195-.747.281a7.18 7.18 0 0 0-.607.226c-.076.04-.454.165-.84.28a78.14 78.14 0 0 0-.97.294c-.329.104-.894.113-.894.013 0-.04.319-.386.71-.77 1.266-1.244 1.432-1.589 1.057-2.195-.582-.943-1.075-.713-3.358 1.563l-1.876 1.87-.32-.309c-.439-.425-.533-.282 1.593-2.424 2.093-2.108 2.14-2.181 1.772-2.89-.459-.886-1.09-.726-2.449.622-1.022 1.014-1.178 1.032-.91.107.326-1.132 1-3.04 1.356-3.85l.264-.608c.597-1.37.667-1.495.872-1.575.118-.046.383-.148.588-.225 3.607-1.364 5.43-2.85 6.197-5.053.246-.708.27-2.218.046-2.878-.205-.6-.184-.624.759-.866 2.216-.567 3.474-1.362 4.522-2.86.164-.235.258-.36.342-.407a.169.169 0 0 1 .127-.018zm-8.228 3.741c.114-.014.192.148.312.415.525 1.173.208 2.683-.765 3.646-.92.912-2.705 2-2.705 1.65 0-.042 1.588-3.152 1.954-3.826.73-1.346 1.015-1.861 1.204-1.885zm17.045 6.595c.182.02.384.102.509.234l.219.233h-.524c-.532 0-.687-.086-.593-.33.044-.115.206-.157.389-.137zm1.183 1.12-.066.348a7.63 7.63 0 0 1-.182.723c-.168.538-.393 1.543-.576 2.568-.087.487-.183.916-.214.951-.087.1-2.305-.999-2.373-1.176-.068-.177.076-1.322.208-1.657.046-.12.132-.393.19-.61.173-.646.502-.958 1.017-.966.24-.005.624-.04.855-.082.23-.04.583-.08.781-.087zm2.105 1.184a.09.09 0 0 1 .063.02l1.1.8c1.098.796 1.067.743.85 1.514-.212.764-.297 1.434-.306 2.43-.009.995.051.962-.957.531-1.869-.798-1.779-.71-1.71-1.72.116-1.681.63-3.547.96-3.575zm4.217 2.934c.16.017.405.132.8.314.39.18.764.327.834.327.297 0 .42.284.42.967 0 .37.064.923.144 1.228.257.988.148 1.064-1.404.983-.937-.05-1.364-1.132-1.16-2.949.058-.522.087-.783.232-.852a.246.246 0 0 1 .134-.018zm-13.877.064c.225-.018.443-.014.644.012.266.034.502.109.681.227l.267.176-.218.163c-.12.09-.453.289-.74.44-.289.153-.76.409-1.048.57-1.132.629-3.077 1.6-3.205 1.6-.43 0 .817-1.868 1.665-2.496.534-.395 1.278-.638 1.954-.692zm20.422.866c.197-.007.36.011.36.058 0 .107-.544.549-1.424 1.155-1.019.7-1.211.706-1.29.037-.1-.851-.042-.923.807-1.005.407-.04.846-.11.975-.156.142-.051.374-.082.572-.089z"/></svg>