<svg xmlns="http://www.w3.org/2000/svg" viewBox="0 0 210 297"><path d="M108.408 72.562c-.049-.013-.162.062-.342.197-3.514 2.64-5.608 5.652-5.173 7.443.121.498.37 1.24.53 1.583.039.08.07.157.07.171 0 .014.064.168.144.343.171.38.309.687.393.878.139.316.355.78.624 1.342l.285.596-.186.274a2.4 2.4 0 0 0-.187.298c0 .014-.09.18-.201.368a9.947 9.947 0 0 0-.235.412c-.019.038-.16.301-.315.584-.231.423-1.006 1.973-1.523 3.047-.128.264-.363.478-1.233 1.118a6.697 6.697 0 0 0-.547.435c-.103.11-.087.206.027.162.142-.055.96-.125 1-.086.022.023-.003.153-.057.295-.054.14-.115.318-.136.395a5.96 5.96 0 0 1-.086.28c-.026.077-.084.266-.128.42-.044.154-.098.332-.12.397-.12.342-.317 1.61-.318 2.055v.445l.622.618.624.617.462-.027c1.117-.065 2.644-.453 4.054-1.031.557-.228.558-.229 1.003-.43.167-.075.408-.184.536-.24.791-.354 3.05-1.508 3.702-1.891.043-.026.226-.128.405-.229.18-.1.377-.221.438-.269.166-.128.279-.107.782.144a47.141 47.141 0 0 0 2.886 1.315c1.45.638 2.436.745 3.364.365l.3-.123c1.398-.57 3.288-2.227 5.045-4.423.648-.81.69-.954.217-.75-.084.036-.268.112-.41.17-.7.28-1.845.847-2.362 1.168-1.304.805-2.594.964-3.698.454-.564-.26-1.433-.834-2.391-1.579-.6-.467-1.409-1.053-1.498-1.086-.05-.018-.116-.155-.178-.37a7.496 7.496 0 0 0-.136-.433 5.799 5.799 0 0 0-.365-.793 4.966 4.966 0 0 0-.53-.816c-.943-1.26-2.224-2.337-3.354-2.819-.395-.169-.53-.215-.624-.215-.174 0-.39-.173-.595-.476a11.945 11.945 0 0 0-.692-.924c-2.287-2.775-2.528-4.025-1.222-6.347.137-.244.376-.695.53-1.003.35-.693.316-.622.514-1.096.268-.642.366-.91.285-.933zm-3.102 4.276c.035-.007.053.016.053.075 0 .057-.031.27-.07.47-.038.201-.07.443-.07.537-.002.29-.042.315-.4.254-.434-.074-.44-.09-.19-.488.326-.52.574-.825.677-.848zm-1.16 2.261c.034.002.07.01.11.023.112.038.41.085.663.103.52.037.437-.033.742.619.175.374.201.502.107.53-.933.272-1.821.026-1.886-.524-.052-.439.007-.689.173-.741a.248.248 0 0 1 .092-.01zm2.15 2.209c.199-.036.266.06.556.45.536.722.534.714.205.793-.604.145-.892.203-1.371.274-.648.096-.627.102-.777-.225a12.319 12.319 0 0 0-.166-.351c-.092-.175-.274-.694-.252-.716.013-.012.304-.032.647-.043.436-.015.707-.047.9-.109.11-.035.19-.061.257-.073zm1.646 2.061a.177.177 0 0 1 .074.012.4.4 0 0 1 .153.12c.043.054.134.198.203.322l.123.225-.11.152c-.322.447-.95.767-1.797.915-.442.078-.433.084-.734-.517-.339-.677-.333-.741.065-.743.129 0 .57-.093 1.143-.239l.556-.14c.1-.025.215-.064.254-.086a.162.162 0 0 1 .07-.02zm1.666 1.054a.326.326 0 0 1 .08.035c.045.025.165.082.268.127.4.176 1.118.675 1.546 1.072.106.1.232.213.28.254.388.332 1.173 1.34 1.414 1.816.084.167.182.36.218.427.13.248.087.44-.134.591-.633.436-1.108 1.232-1.341 2.248-.085.37-.096.378-.426.275-1.524-.474-3.028.657-3.885 2.922a4.13 4.13 0 0 1-.16.382c-.035.057-.624.343-1.082.526-.142.056-.32.13-.397.165a5.187 5.187 0 0 1-.373.14 3.591 3.591 0 0 0-.304.114 4.68 4.68 0 0 1-.42.14l-.485.146c-.165.053-.447.057-.447.007 0-.02.16-.193.355-.385.633-.622.716-.795.529-1.098-.292-.471-.538-.357-1.68.782l-.938.935-.16-.154c-.22-.213-.267-.142.796-1.213 1.047-1.054 1.07-1.09.887-1.445-.23-.444-.546-.364-1.225.31-.511.508-.59.517-.456.054.164-.566.5-1.52.679-1.926l.132-.303c.299-.686.333-.748.436-.788l.294-.113c1.804-.682 2.716-1.425 3.1-2.527.123-.354.135-1.11.022-1.44-.102-.3-.091-.312.38-.432 1.109-.284 1.738-.682 2.262-1.431.082-.118.13-.18.171-.203a.084.084 0 0 1 .064-.01zm-4.116 1.871c.057-.007.097.075.156.208.263.587.104 1.342-.382 1.824-.46.456-1.353 1-1.353.825 0-.021.794-1.577.977-1.914.365-.673.508-.93.602-.943zm8.525 3.299c.091.01.193.05.255.117l.11.117h-.262c-.266 0-.344-.044-.297-.166.022-.057.103-.078.194-.068zm.592.56-.033.174a3.618 3.618 0 0 1-.091.362c-.084.269-.197.771-.288 1.284-.043.244-.091.458-.107.476-.043.05-1.153-.5-1.187-.588-.034-.089.038-.661.104-.829.023-.06.066-.197.095-.305.087-.323.251-.48.51-.483.119-.003.31-.02.427-.041.115-.02.291-.04.39-.044l.18-.005zm1.053.592c.011 0 .022.003.032.01l.55.4c.549.399.533.372.425.758-.106.382-.149.717-.153 1.215-.005.498.025.481-.479.266-.934-.4-.89-.355-.855-.86.058-.842.315-1.775.48-1.789zm2.11 1.468c.079.008.202.066.4.157.194.09.382.163.417.163.148 0 .21.142.21.484 0 .185.032.462.072.614.128.495.074.533-.703.492-.468-.025-.682-.566-.58-1.475.03-.261.044-.392.116-.426a.123.123 0 0 1 .067-.009zm-6.942.032a1.57 1.57 0 0 1 .322.006.814.814 0 0 1 .341.113l.134.088-.11.082c-.06.045-.226.144-.37.22-.144.076-.38.205-.524.285-.566.315-1.539.8-1.603.8-.215 0 .41-.934.833-1.248.267-.197.64-.32.977-.346zm10.215.433c.099-.003.18.006.18.029 0 .054-.272.275-.712.578-.51.35-.606.353-.645.018-.05-.425-.022-.461.403-.502.204-.02.423-.055.488-.078a1.07 1.07 0 0 1 .286-.045z"/></svg>