<svg xmlns="http://www.w3.org/2000/svg" viewBox="0 0 64 64"><path fill="#39424e" d="M16.266 0h30.948A16.788 17.81 0 0 1 64 17.81v28.656A16.528 17.534 0 0 1 47.472 64H0V17.258A16.266 17.256 0 0 1 16.266 0Z"/><path fill="#b9b4a9" d="M20.417 9.903c-.098-.026-.322.122-.679.39C12.771 15.527 8.62 21.5 9.482 25.05c.24.988.734 2.459 1.05 3.14.078.158.14.31.14.338 0 .028.125.333.285.68.339.754.613 1.362.78 1.741a96.35 96.35 0 0 0 1.236 2.66l.565 1.183-.368.543a4.759 4.759 0 0 0-.371.59c0 .029-.179.358-.399.73a19.722 19.722 0 0 0-.466.817c-.038.075-.317.597-.624 1.158-.458.839-1.995 3.912-3.02 6.041-.254.524-.72.948-2.444 2.217a13.278 13.278 0 0 0-1.085.863c-.204.218-.174.408.055.32.281-.108 1.903-.247 1.983-.17.043.046-.002.304-.114.585-.107.278-.228.63-.27.783a11.817 11.817 0 0 1-.17.555c-.052.153-.167.528-.254.833-.087.306-.194.658-.238.787-.238.678-.629 3.193-.63 4.075v.882l1.232 1.225 1.238 1.224.916-.054c2.214-.129 5.242-.898 8.038-2.044 1.104-.452 1.106-.454 1.988-.852.331-.149.81-.365 1.063-.476 1.568-.702 6.047-2.99 7.34-3.75.085-.051.448-.253.803-.454.357-.198.747-.438.868-.533.33-.254.554-.212 1.55.286a93.467 93.467 0 0 0 5.723 2.607c2.875 1.265 4.83 1.477 6.67.724l.595-.244c2.771-1.13 6.519-4.416 10.002-8.77 1.285-1.606 1.368-1.891.43-1.487-.166.071-.53.222-.812.337-1.388.555-3.658 1.68-4.683 2.316-2.586 1.596-5.144 1.911-7.332.9-1.119-.515-2.842-1.653-4.741-3.13-1.19-.926-2.794-2.088-2.97-2.154-.1-.036-.23-.307-.353-.733a14.862 14.862 0 0 0-.27-.859 11.498 11.498 0 0 0-.723-1.572 9.846 9.846 0 0 0-1.051-1.618c-1.87-2.498-4.41-4.634-6.65-5.59-.784-.334-1.051-.426-1.238-.426-.345 0-.773-.343-1.18-.943a23.684 23.684 0 0 0-1.371-1.833c-4.535-5.502-5.013-7.98-2.423-12.584a58.44 58.44 0 0 0 1.05-1.988c.695-1.374.627-1.234 1.02-2.173.531-1.273.725-1.805.565-1.85zm-6.15 8.478c.068-.014.105.031.105.148 0 .113-.06.536-.139.932-.074.399-.139.879-.139 1.065 0 .575-.083.625-.793.504-.86-.147-.872-.179-.377-.968.647-1.031 1.139-1.636 1.343-1.681zm-2.3 4.483c.066 0 .138.02.217.045.222.075.813.169 1.315.204 1.03.074.866-.065 1.471 1.228.347.741.399.995.212 1.05-1.85.54-3.61.052-3.74-1.038-.102-.87.005-1.367.344-1.47a.492.492 0 0 1 .182-.02zm4.262 4.38c.395-.072.527.118 1.102.892 1.063 1.431 1.06 1.415.407 1.572-1.198.287-1.769.402-2.718.543-1.285.19-1.244.202-1.541-.446a24.425 24.425 0 0 0-.33-.696c-.181-.347-.542-1.376-.499-1.42.026-.024.603-.063 1.283-.085.865-.03 1.402-.093 1.785-.216.218-.07.376-.12.51-.145zm3.264 4.086a.35.35 0 0 1 .146.024.793.793 0 0 1 .303.238c.085.107.266.392.403.638l.244.446-.219.302c-.638.886-1.883 1.52-3.563 1.814-.876.155-.858.166-1.455-1.025-.672-1.343-.66-1.47.129-1.473.255 0 1.13-.185 2.266-.474l1.102-.278a2.9 2.9 0 0 0 .504-.17.321.321 0 0 1 .138-.04zm3.303 2.09a.646.646 0 0 1 .159.069c.088.05.327.163.531.252.793.349 2.217 1.338 3.066 2.125.21.199.46.423.555.504.77.658 2.326 2.657 2.803 3.6.167.332.361.714.433.847.257.492.173.873-.266 1.172-1.255.864-2.197 2.443-2.659 4.457-.169.734-.19.75-.845.545-3.021-.94-6.003 1.303-7.702 5.794a8.189 8.189 0 0 1-.318.757c-.068.113-1.237.68-2.145 1.043-.281.111-.634.258-.787.327a10.284 10.284 0 0 1-.74.278 7.12 7.12 0 0 0-.602.226 9.28 9.28 0 0 1-.833.277l-.962.29c-.327.105-.886.112-.886.005 0-.04.317-.383.704-.764 1.255-1.233 1.42-1.576 1.049-2.177-.58-.933-1.067-.707-3.331 1.551l-1.86 1.854-.317-.306c-.436-.422-.53-.281 1.578-2.405 2.076-2.09 2.121-2.16 1.759-2.865-.456-.88-1.083-.721-2.43.615-1.012 1.007-1.169 1.025-.903.107.325-1.122.991-3.014 1.346-3.818l.262-.601c.593-1.36.66-1.483.864-1.563l.583-.224c3.577-1.352 5.385-2.825 6.146-5.01.244-.702.268-2.2.044-2.855-.202-.595-.18-.619.754-.857 2.199-.563 3.446-1.352 4.485-2.837.162-.234.257-.357.339-.402a.167.167 0 0 1 .126-.02zm-8.161 3.71c.113-.014.192.148.31.412.52 1.163.205 2.66-.758 3.616-.912.904-2.683 1.983-2.683 1.636 0-.042 1.575-3.127 1.937-3.795.724-1.335 1.008-1.844 1.194-1.87zm16.903 6.54c.18.02.382.1.505.232l.218.232h-.52c-.527 0-.681-.087-.588-.33.044-.112.204-.154.385-.134zm1.173 1.11-.064.345a7.173 7.173 0 0 1-.18.718c-.167.534-.39 1.529-.571 2.546-.085.484-.18.908-.212.944-.085.099-2.287-.992-2.354-1.166-.066-.177.075-1.31.206-1.644.047-.12.131-.39.188-.605.174-.64.498-.951 1.011-.957a6.09 6.09 0 0 0 .847-.081c.228-.04.577-.08.773-.088l.357-.004zm2.088 1.174c.021 0 .044.002.061.02l1.091.793c1.088.791 1.057.738.843 1.503-.21.758-.296 1.422-.304 2.41-.003.987.05.953-.95.527-1.851-.794-1.764-.704-1.695-1.706.117-1.669.625-3.519.952-3.547zm4.184 2.91c.157.017.4.132.793.312.384.179.757.323.827.323.293 0 .416.282.416.96 0 .367.061.916.142 1.217.254.982.146 1.057-1.394.976-.928-.05-1.352-1.122-1.15-2.925.06-.517.087-.777.23-.844a.244.244 0 0 1 .132-.018zm-13.764.062a3.113 3.113 0 0 1 .638.005 1.614 1.614 0 0 1 .676.224l.266.175-.218.163c-.12.089-.448.285-.734.436-.285.15-.753.406-1.039.565-1.122.624-3.051 1.586-3.178 1.586-.426 0 .813-1.852 1.652-2.474.529-.391 1.269-.635 1.937-.686zm20.253.859c.196-.002.357.005.357.06 0 .106-.54.544-1.412 1.145-1.01.694-1.201.7-1.279.036-.1-.842-.044-.914.8-.995.404-.04.838-.11.967-.155a2.122 2.122 0 0 1 .567-.089z"/></svg>