<?xml version="1.0" encoding="UTF-8" standalone="no"?>
<!-- Created with Inkscape (http://www.inkscape.org/) -->

<svg
   width="50mm"
   height="50mm"
   viewBox="0 0 50 50"
   version="1.1"
   id="svg5"
   inkscape:version="1.1.1 (c3084ef, 2021-09-22)"
   sodipodi:docname="logo.svg"
   xmlns:inkscape="http://www.inkscape.org/namespaces/inkscape"
   xmlns:sodipodi="http://sodipodi.sourceforge.net/DTD/sodipodi-0.dtd"
   xmlns="http://www.w3.org/2000/svg"
   xmlns:svg="http://www.w3.org/2000/svg">
  <sodipodi:namedview
     id="namedview7"
     pagecolor="#505050"
     bordercolor="#ffffff"
     borderopacity="1"
     inkscape:pageshadow="0"
     inkscape:pageopacity="0"
     inkscape:pagecheckerboard="1"
     inkscape:document-units="mm"
     showgrid="false"
     inkscape:zoom="1"
     inkscape:cx="166.5"
     inkscape:cy="203.5"
     inkscape:window-width="1312"
     inkscape:window-height="969"
     inkscape:window-x="420"
     inkscape:window-y="70"
     inkscape:window-maximized="0"
     inkscape:current-layer="svgg" />
  <defs
     id="defs2" />
  <g
     inkscape:label="Layer 1"
     inkscape:groupmode="layer"
     id="layer1">
    <g
       id="svgg"
       transform="matrix(0.26458333,0,0,0.26458333,99.507534,247.64447)">
      <path
         id="path0"
         d="m -315.90528,-935.96753 c -0.36814,-0.10116 -1.2243,0.46589 -2.58509,1.4878 -26.55529,19.94346 -42.37177,42.70381 -39.08485,56.23937 0.9137,3.76677 2.79091,9.36777 4.00651,11.96092 0.28791,0.6098 0.52327,1.19249 0.52327,1.29646 0,0.10196 0.48778,1.26932 1.08558,2.59289 1.29558,2.86906 2.33588,5.19102 2.97167,6.63454 1.05165,2.38522 2.68388,5.88861 4.71721,10.14122 l 2.15553,4.50242 -1.40967,2.06574 c -0.77575,1.13763 -1.41362,2.1511 -1.41362,2.25706 0,0.10597 -0.6833,1.3549 -1.51902,2.77643 -0.83773,1.42154 -1.6368,2.82428 -1.77676,3.11618 -0.13995,0.28991 -1.2106,2.27541 -2.37422,4.40871 -1.74943,3.20295 -7.60315,14.91026 -11.51187,23.02759 -0.96368,1.99735 -2.7415,3.61004 -9.31334,8.44645 -1.87139,1.37755 -3.7335,2.85813 -4.13537,3.28799 -0.78174,0.83972 -0.66266,1.55807 0.20306,1.22617 1.07365,-0.41186 7.25832,-0.94213 7.55222,-0.64822 0.16995,0.16994 -0.02,1.15408 -0.42956,2.22973 -0.40187,1.05765 -0.86313,2.39769 -1.02308,2.9795 -0.15995,0.58181 -0.45421,1.53468 -0.65215,2.11648 -0.19793,0.58181 -0.63463,2.01113 -0.96452,3.17474 -0.33189,1.16362 -0.73992,2.51318 -0.90986,2.99902 -0.90971,2.58915 -2.39156,12.17317 -2.40156,15.53007 l -0.008,3.36607 4.70937,4.66645 4.71332,4.66643 3.48713,-0.20697 c 8.44723,-0.49176 19.98397,-3.42584 30.63448,-7.7904 4.21262,-1.72544 4.22055,-1.72944 7.58345,-3.24894 1.26159,-0.56981 3.08369,-1.38786 4.05337,-1.81972 5.97596,-2.67113 23.051,-11.39133 27.96739,-14.28438 0.32989,-0.19393 1.70784,-0.97014 3.0654,-1.72989 1.35555,-0.75775 2.84566,-1.67271 3.30751,-2.03059 1.25759,-0.96969 2.10537,-0.81388 5.91212,1.0895 5.90207,2.94903 14.96704,7.12558 19.16558,8.83302 1.06765,0.43186 2.2558,0.92736 2.64367,1.0973 10.95841,4.82242 18.40775,5.63187 25.41745,2.76082 0.56581,-0.23193 1.5851,-0.64757 2.26487,-0.92548 10.56854,-4.30859 24.84858,-16.82998 38.12422,-33.42654 4.8964,-6.12199 5.21083,-7.20752 1.644,-5.67002 -0.63579,0.27391 -2.03099,0.85098 -3.09664,1.28084 -5.28827,2.1293 -13.94471,6.40992 -17.85743,8.82912 -9.85076,6.08801 -19.59479,7.28712 -27.94005,3.43638 -4.2646,-1.96936 -10.82867,-6.30344 -18.0683,-11.93359 -4.54051,-3.52884 -10.64489,-7.95641 -11.31659,-8.20433 -0.37787,-0.13995 -0.87737,-1.17659 -1.34722,-2.79206 -0.40986,-1.41554 -0.87497,-2.89229 -1.03092,-3.28017 -1.25159,-3.11498 -1.72333,-4.14074 -2.753,-5.99413 -1.66345,-2.99502 -1.79913,-3.20701 -4.0104,-6.16204 -7.12366,-9.52288 -16.80615,-17.66281 -25.33935,-21.30162 -2.98902,-1.27558 -4.01343,-1.62836 -4.71719,-1.62836 -1.31557,-0.002 -2.94114,-1.30332 -4.49463,-3.59256 -1.69944,-2.50518 -3.3073,-4.64876 -5.23266,-6.98599 -17.28234,-20.96513 -19.10002,-30.41269 -9.23526,-47.95694 1.03566,-1.84339 2.84079,-5.25232 4.01041,-7.57955 2.63513,-5.23629 2.38604,-4.70152 3.88155,-8.28635 2.02433,-4.85214 2.76519,-6.87582 2.15163,-7.04457 z m -23.43763,32.30973 c 0.26117,-0.0568 0.4022,0.12236 0.4022,0.56232 0,0.43585 -0.23916,2.03793 -0.53106,3.55743 -0.28991,1.5195 -0.53299,3.34358 -0.53499,4.05335 -0.01,2.19328 -0.30942,2.3851 -3.01853,1.92125 -3.27692,-0.56182 -3.32051,-0.67728 -1.43313,-3.68629 2.4592,-3.92421 4.33202,-6.2376 5.11551,-6.40806 z m -8.76275,17.08424 c 0.25302,0.016 0.52995,0.0742 0.82785,0.17574 0.84372,0.28791 3.0967,0.63723 5.01007,0.77319 3.92872,0.2819 3.2984,-0.24624 5.60365,4.67814 1.32556,2.82907 1.52208,3.79858 0.80831,4.00651 -7.05169,2.05732 -13.76129,0.19493 -14.25312,-3.95964 -0.39288,-3.31692 0.058,-5.20404 1.31207,-5.59973 0.20901,-0.066 0.43815,-0.0908 0.69117,-0.0742 z m 16.23685,16.68984 c 1.50599,-0.26935 2.01278,0.45352 4.20956,3.40905 4.05068,5.44821 4.03366,5.38851 1.54248,5.98631 -4.55851,1.09764 -6.73907,1.5338 -10.35988,2.06963 -4.8924,0.72376 -4.73365,0.76852 -5.86528,-1.69867 -0.50184,-1.09164 -1.06545,-2.28749 -1.25739,-2.65537 -0.69177,-1.32356 -2.06768,-5.24044 -1.90174,-5.40838 0.094,-0.094 2.29397,-0.24204 4.88512,-0.32802 3.29492,-0.10796 5.34085,-0.3522 6.80637,-0.82005 0.82373,-0.26341 1.43879,-0.46472 1.94076,-0.5545 z m 12.44514,15.57692 c 0.18154,-0.012 0.36924,0.018 0.55842,0.0898 0.37838,0.14235 0.76809,0.45093 1.15196,0.91378 0.3279,0.39787 1.01883,1.48929 1.53466,2.42498 l 0.93329,1.69867 -0.82786,1.15196 c -2.43921,3.38089 -7.18357,5.79406 -13.58147,6.91569 -3.34291,0.58581 -3.27773,0.63363 -5.54898,-3.90888 -2.56108,-5.11832 -2.51898,-5.60134 0.49204,-5.61534 0.97368,-0.004 4.3072,-0.70245 8.63778,-1.80409 1.5515,-0.39587 3.444,-0.87221 4.20175,-1.06215 0.75975,-0.18794 1.62534,-0.47838 1.92125,-0.64433 0.16994,-0.0956 0.34556,-0.14855 0.52716,-0.16014 z m 12.58572,7.96614 c 0.17114,0.038 0.36336,0.13256 0.60528,0.26554 0.33789,0.18394 1.24703,0.61284 2.02278,0.95672 3.023,1.33357 8.45072,5.09779 11.68366,8.10281 0.80374,0.74775 1.75661,1.60951 2.11649,1.91733 2.93504,2.50518 8.86459,10.11926 10.684,13.72208 0.63579,1.25959 1.37798,2.71557 1.6479,3.2294 0.98367,1.87339 0.65596,3.32167 -1.00749,4.46729 -4.78443,3.29293 -8.37388,9.30713 -10.1373,16.98661 -0.64179,2.79909 -0.7245,2.85319 -3.21768,2.07744 -11.51823,-3.58482 -22.8817,4.96032 -29.35758,22.0787 -0.51383,1.35756 -1.05477,2.65585 -1.20272,2.88578 -0.27391,0.42986 -4.72395,2.59171 -8.18482,3.97525 -1.06765,0.42586 -2.41331,0.98578 -2.99512,1.2457 -0.58181,0.25991 -1.85361,0.73825 -2.82329,1.06215 -0.96968,0.32389 -2.00031,0.70922 -2.29221,0.85518 -0.2899,0.14795 -1.71922,0.62249 -3.17474,1.05435 -1.45352,0.43386 -3.10502,0.93298 -3.66676,1.11292 -1.24359,0.39587 -3.38171,0.42664 -3.38171,0.0508 0,-0.14995 1.20721,-1.45968 2.68272,-2.90921 4.78843,-4.70245 5.41623,-6.00681 3.99869,-8.29806 -2.20128,-3.56283 -4.06399,-2.69495 -12.69116,5.90823 l -7.09143,7.06798 -1.21052,-1.16758 c -1.65746,-1.60747 -2.01392,-1.06771 6.02144,-9.16105 7.91141,-7.96939 8.08457,-8.245 6.69702,-10.92612 -1.73343,-3.3489 -4.12044,-2.74352 -9.25476,2.35081 -3.86473,3.83266 -4.45386,3.90096 -3.44419,0.40611 1.23559,-4.2786 3.77966,-11.49284 5.12722,-14.55383 0.16994,-0.38788 0.61979,-1.4224 0.99967,-2.29611 2.25726,-5.1783 2.52005,-5.64929 3.2958,-5.95119 0.44585,-0.17394 1.44618,-0.55937 2.22193,-0.85128 13.63353,-5.15631 20.52295,-10.77393 23.422,-19.0992 0.9297,-2.67512 1.02155,-8.38217 0.17174,-10.87535 -0.77374,-2.26726 -0.69267,-2.35865 2.87016,-3.27235 8.37726,-2.14329 13.12936,-5.14873 17.09206,-10.81287 0.62079,-0.88771 0.9739,-1.35522 1.29253,-1.53466 0.15935,-0.0898 0.30928,-0.10836 0.48031,-0.0704 z m -31.09917,14.13989 c 0.42898,-0.0542 0.72721,0.56063 1.1793,1.5698 1.98335,4.43055 0.78712,10.13784 -2.88967,13.78064 -3.47886,3.44687 -10.22713,7.55991 -10.22713,6.23234 0,-0.15795 6.00467,-11.91095 7.38822,-14.46012 2.75783,-5.08457 3.83432,-7.03243 4.54928,-7.12266 z m 64.42028,24.92542 c 0.68877,0.0748 1.4533,0.3846 1.92515,0.88643 l 0.82785,0.87862 h -1.97981 c -2.00934,0 -2.59533,-0.3259 -2.24145,-1.24959 0.16595,-0.43286 0.77949,-0.59017 1.46826,-0.51546 z m 4.47119,4.2369 -0.24601,1.31207 c -0.13396,0.72176 -0.44726,1.95174 -0.69118,2.73348 -0.63379,2.03133 -1.48529,5.82911 -2.17507,9.70384 -0.32789,1.84339 -0.69237,3.46252 -0.80833,3.59648 -0.32989,0.37987 -8.7118,-3.77598 -8.96972,-4.44776 -0.25591,-0.66579 0.28707,-4.99409 0.7849,-6.25967 0.17595,-0.45185 0.4986,-1.48819 0.71853,-2.30393 0.65378,-2.44319 1.89702,-3.62507 3.84638,-3.65506 0.9037,-0.016 2.3557,-0.15255 3.22942,-0.30848 0.87171,-0.15395 2.2024,-0.30402 2.95215,-0.32801 z m 7.95833,4.47119 c 0.0832,-0.008 0.16175,0.018 0.23821,0.0742 0.19993,0.14795 2.06956,1.50694 4.15487,3.02244 4.15064,3.01302 4.03344,2.80964 3.21771,5.72469 -0.80574,2.88705 -1.12579,5.42172 -1.15978,9.18449 -0.034,3.76076 0.19274,3.63454 -3.61599,2.00716 -7.06369,-3.01701 -6.72466,-2.68104 -6.46275,-6.50179 0.43862,-6.35416 2.38032,-13.40583 3.62773,-13.51119 z m 15.93618,11.0901 c 0.60306,0.0628 1.5321,0.49734 3.02635,1.18711 1.46952,0.67978 2.88739,1.23398 3.1513,1.23398 1.12164,0 1.58542,1.07391 1.58542,3.65506 0,1.39954 0.2448,3.48938 0.5467,4.643 0.97169,3.73477 0.55922,4.02152 -5.30686,3.71362 -3.54283,-0.18794 -5.15702,-4.27902 -4.38528,-11.14477 0.22093,-1.97435 0.32981,-2.95994 0.87863,-3.2216 0.13716,-0.0654 0.30273,-0.0874 0.50374,-0.0664 z m -52.44764,0.24212 c 0.8519,-0.0674 1.67631,-0.0548 2.4328,0.043 1.00863,0.13016 1.8985,0.41324 2.57727,0.8591 l 1.00747,0.66384 -0.82393,0.617 c -0.45185,0.34181 -1.71223,1.0916 -2.79988,1.66741 -1.08764,0.57381 -2.87198,1.54194 -3.95962,2.14774 -4.2766,2.37922 -11.62939,6.05269 -12.11323,6.05269 -1.62346,0 3.08987,-7.06318 6.29482,-9.4344 2.01872,-1.49351 4.82856,-2.41421 7.3843,-2.61633 z m 77.18563,3.27237 c 0.74675,-0.0252 1.35891,0.0428 1.35893,0.21867 0,0.40587 -2.05414,2.07452 -5.38105,4.36577 -3.84874,2.64913 -4.5775,2.66774 -4.87341,0.14055 -0.37587,-3.21694 -0.16114,-3.48764 3.04978,-3.79953 1.5375,-0.14995 3.19656,-0.41571 3.6824,-0.58965 0.53782,-0.19294 1.41659,-0.3106 2.16335,-0.33583 z"
         style="stroke-width:1" />
    </g>
  </g>
</svg>
