<?xml version="1.0" encoding="UTF-8" standalone="no"?>
<svg
   viewBox="0 0 100 29"
   version="1.1"
   id="svg10"
   xmlns="http://www.w3.org/2000/svg"
   xmlns:svg="http://www.w3.org/2000/svg">
  <defs
     id="defs14" />
  <path
     d="M8.375 1.23c-.05-.015-.17.064-.36.206C4.32 4.213 2.12 7.382 2.577 9.266c.126.524.389 1.305.557 1.666.04.084.074.166.074.18 0 .014.067.176.15.36.18.4.326.723.413.924.147.332.373.82.657 1.412l.3.627-.197.288a2.679 2.679 0 0 0-.196.314c0 .014-.095.189-.21.387a12.39 12.39 0 0 0-.249.433 32.54 32.54 0 0 1-.33.615c-.244.445-1.058 2.075-1.602 3.205-.134.278-.381.503-1.296 1.176a7.042 7.045 0 0 0-.575.458c-.11.116-.093.217.028.17.15-.056 1.01-.131 1.05-.09.024.024-.002.16-.06.31a6.495 6.495 0 0 0-.141.416 6.267 6.27 0 0 1-.092.294c-.027.081-.088.28-.133.442-.046.162-.103.35-.126.418-.127.36-.334 1.694-.335 2.162v.468l.654.65.657.65.484-.03c1.176-.068 2.782-.476 4.263-1.083.586-.242.588-.242 1.056-.452l.564-.255c.83-.371 3.207-1.585 3.891-1.988.047-.027.238-.135.427-.24.19-.106.396-.233.46-.284.175-.135.293-.113.823.153a49.57 49.594 0 0 0 3.035 1.382c1.524.671 2.561.784 3.537.384l.316-.128c1.47-.6 3.457-2.344 5.303-4.655.682-.852.726-1.003.23-.789l-.431.18c-.737.295-1.94.89-2.485 1.228-1.371.847-2.727 1.014-3.888.478-.594-.274-1.507-.878-2.515-1.662-.63-.49-1.48-1.107-1.574-1.142-.053-.019-.122-.163-.187-.39a7.882 7.886 0 0 0-.144-.455 6.098 6.1 0 0 0-.383-.834 5.222 5.224 0 0 0-.557-.859c-.993-1.325-2.34-2.458-3.527-2.965-.417-.178-.559-.226-.656-.226-.183 0-.41-.182-.626-.501a12.56 12.567 0 0 0-.729-.972C5.857 8.176 5.605 6.86 6.977 4.418c.144-.256.396-.73.558-1.055.368-.729.333-.654.541-1.153.28-.675.385-.957.299-.98Zm-3.26 4.497c.036-.007.056.017.056.08 0 .06-.034.283-.074.494a4.277 4.277 0 0 0-.074.565c-.002.305-.044.332-.421.267-.455-.078-.462-.095-.2-.514.343-.546.604-.868.713-.892Zm-1.22 2.379c.036.002.074.01.116.024.117.04.431.09.697.108.547.04.459-.034.78.652.184.393.212.528.112.557-.981.286-1.914.028-1.983-.551-.055-.462.008-.725.183-.78a.26.26 0 0 1 .095-.01zm2.26 2.324c.21-.038.28.063.586.473.563.76.561.751.214.834a14.13 14.13 0 0 1-1.441.289c-.68.1-.659.107-.816-.237a12.954 12.96 0 0 0-.176-.37c-.096-.183-.287-.73-.264-.752.013-.013.319-.034.68-.046.458-.016.743-.05.947-.114.114-.037.2-.065.27-.077zm1.732 2.168a.184.184 0 0 1 .078.013.42.42 0 0 1 .16.127c.045.056.141.207.213.337l.13.237-.115.16c-.34.472-1 .807-1.89.963-.466.082-.456.088-.772-.544-.357-.712-.35-.78.069-.782.134 0 .599-.098 1.202-.251l.584-.147a1.47 1.47 0 0 0 .267-.09.17.17 0 0 1 .074-.022zm1.75 1.109a.343.343 0 0 1 .085.037c.047.026.173.086.282.133.42.187 1.175.71 1.625 1.128.113.105.245.224.295.267.409.35 1.233 1.41 1.487 1.91.088.176.192.38.229.45.136.26.091.463-.14.623-.666.457-1.165 1.295-1.411 2.364-.09.389-.1.397-.447.29-1.604-.5-3.184.69-4.085 3.073a4.343 4.345 0 0 1-.169.402c-.037.06-.657.36-1.138.553-.149.06-.337.137-.417.174a5.454 5.457 0 0 1-.393.147 3.776 3.778 0 0 0-.319.12 4.921 4.924 0 0 1-.441.147 32 32 0 0 0-.51.155c-.174.055-.471.059-.471.006 0-.02.168-.203.373-.405.667-.654.754-.836.557-1.155-.307-.495-.567-.374-1.766.823l-.988.984-.168-.162c-.231-.225-.28-.149.838-1.276 1.101-1.11 1.125-1.148.932-1.52-.242-.468-.573-.383-1.288.325-.538.535-.62.544-.479.057.172-.595.526-1.599.713-2.026l.139-.319c.315-.721.351-.787.46-.829l.309-.119c1.897-.717 2.856-1.499 3.26-2.658.128-.373.14-1.168.022-1.515-.107-.316-.096-.327.4-.455 1.165-.298 1.827-.717 2.379-1.505.086-.124.135-.19.178-.214a.088.088 0 0 1 .068-.01zm-4.326 1.97c.06-.01.1.077.164.217.275.618.109 1.412-.403 1.919-.484.48-1.423 1.052-1.423.868 0-.022.836-1.66 1.029-2.014.383-.708.533-.978.633-.99zm8.964 3.469a.45.45 0 0 1 .268.123l.116.123h-.277c-.28 0-.36-.045-.311-.175.022-.06.108-.082.204-.071zm.622.589-.034.183a4.48 4.482 0 0 1-.096.38 12.86 12.866 0 0 0-.303 1.352c-.046.256-.097.482-.112.5-.047.053-1.213-.526-1.248-.618-.036-.093.04-.695.109-.872.024-.063.07-.207.1-.321.09-.34.263-.505.535-.508.126-.002.327-.021.449-.043.12-.021.306-.042.41-.047zm1.108.623a.047.047 0 0 1 .032.01l.579.421c.578.42.561.392.448.798-.113.401-.158.754-.162 1.278-.005.524.027.506-.503.28-.983-.421-.936-.374-.9-.905.062-.885.332-1.867.506-1.882zm2.217 1.544c.084.009.213.07.42.165.206.095.403.172.44.172.156 0 .22.15.22.51 0 .194.034.485.076.646.136.52.078.56-.738.517-.493-.027-.717-.596-.61-1.552.03-.275.045-.413.122-.448a.13.13 0 0 1 .07-.01zm-7.298.034c.119-.01.233-.008.338.006a.856.856 0 0 1 .359.12l.14.092-.115.086a3.897 3.897 0 0 1-.389.231c-.151.081-.4.216-.551.3-.595.332-1.62.842-1.686.842-.226 0 .43-.983.876-1.313a2.072 2.072 0 0 1 1.028-.364zm10.74.455c.105-.003.19.007.19.032 0 .056-.287.288-.75.607-.536.368-.637.371-.678.019-.052-.447-.022-.485.425-.528.214-.021.445-.058.512-.082a1.125 1.126 0 0 1 .301-.048z"
     id="path2" />
  <path
     stroke="#000"
     stroke-linecap="round"
     stroke-linejoin="round"
     stroke-width=".265"
     d="M28.216.132h1.355V28.44h-1.356z"
     id="path4" />
  <g
     id="g8">
    <path
       d="M-243.574-903.778q-.953 0-.953 2.433 0 2.4.132 7.594.131 5.162.131 7.496 1.742-.394 2.99-2.893 1.02-2.104 1.676-4.044.658-1.972.855-2.432v-2.4q0-1.973-1.479-3.847-1.446-1.907-3.352-1.907zm-.394 43.758q3.385-.526 5.29-3.09 1.906-2.564 1.906-5.918 0-3.353-.558-5.885-.559-2.564-1.249-3.846-.657-1.315-1.544-2.236-1.085-1.117-1.775-1.348h-2.399q.329 9.304.329 22.323zm-3.746-14.728-.46-27.353v-.395q0-3.616 1.117-4.602.559-.493 1.413-.493 4.798 0 7.492 3.09 2.695 3.09 2.695 7.956 0 3.057-1.61 6.345t-3.845 4.899q4.107 2.761 5.85 7.035 1.774 4.241 1.774 8.91 0 2.465-1.25 5.062-1.215 2.598-2.464 4.143-1.216 1.545-3.22 2.597-2.004 1.052-4.403 1.052h-.263q-3.155 0-3.155-1.677zm25.434-4.702.328 14.302v2.005l-.033 1.874h.888l1.938-.066q2.76 0 2.76 1.677 0 .855-.69 1.48-.657.591-1.544.591h-2.957q-3.056 0-3.91-.131-.526.065-.822.065-2.399 0-2.399-1.512 0-.625.394-1.183.395-.56.79-.592h1.905l.131-.888-.46-14.3.362-14.992q0-3.847-.329-7.233h-1.281l-1.545.066q-.986 0-1.544-.362-.559-.395-.559-1.447 0-1.545 3.32-1.545h8.017q2.727 0 2.727 1.414 0 .625-.591 1.15-.592.527-1.347.527h-3.45q.262 2.761.262 6.246zm15.477 21.304-.132-5.161q0-.033.099-2.302-.263-.854-1.085-15.188-.788-14.334-.854-17.523h-.263q-5.455-.099-5.455-2.006 0-.624.723-1.019.723-.427 1.413-.427l9.135.624 1.085-.032q2.103 0 2.103 1.61 0 .822-.69 1.348-.69.494-1.545.494l-3.088-.46-.132.69q0 6.378 1.117 19.1 1.118 12.724 1.118 19.135 0 .789-.723 1.413-.723.592-1.578.592zm28.423-.887.264-39.485v-8.284q0-.79.328-1.118.329-.329 1.71-.329 1.412 0 2.825.69 1.446.658 2.432 1.776.953 1.183 1.643 2.63 1.314 2.794 1.314 6.082t-1.643 7.529q-.197.46-.789 1.94-.591 1.479-.69 1.742.033 4.997 2.53 12.986.855 2.696 2.432 7.397 1.578 4.668 1.972 5.918v.164q0 2.268-.526 2.63-.526.395-1.117.395-1.249 0-2.432-1.809v-.23q-.328-6.115-4.206-18.509-1.774-5.655-2.464-8.383v26.53q0 1.02-.362 1.579-.361.559-1.314.559-.953 0-1.446-.526-.46-.56-.46-1.348zm3.714-46.125-.361 13.742q0 2.07.065 3.09 1.15-1.085 2.268-2.597l1.051-5.82q.099-.46.099-1.051 0-1.611-.658-3.913-.92-3.156-2.464-3.451zm25.236 35.768q-.196-.986-.196-3.418 0-2.466-.296-6.083-.263-3.649-.789-8.449-.526-4.832-.723-7.002-3.056 16.93-3.943 23.868 1.15.756 5.948 1.085zm3.517-1.347.723 4.142q0 .822.624 4.011.657 3.189.657 4.175v.066q0 1.48-1.117 1.907-1.413 0-2.202-.46-.788-.46-.788-1.776 0-2.86-.986-8.317l-6.638-.987q-.624 2.236-.953 4.899-.328 2.663-.624 3.88-.592 2.498-2.202 2.498-.788 0-1.479-.493-.657-.526-.657-1.315l.165-.592q4.534-17.523 6.736-34.126.066-.46.197-2.695.329-4.932 1.249-6.28h2.267q.92 0 1.61.428.69.427.69 1.282 0 5.129 1.348 15.221 1.38 10.093 1.38 14.532zm5.455-13.578.394-12.559q0-3.123 2.464-4.964v.427q.263-.164.493-.164 1.578 0 3.943 5.457 2.366 5.425 4.272 11.934 1.906 6.51 3.78 13.15 1.905 6.609 2.365 7.76 1.347-14.104 1.347-34.159l-.098-1.808q0-2.005 1.676-2.005.953 0 1.413.789.493.789.493 1.84v5.097q-.066 7.923-.723 21.172-.625 13.216-1.709 14.926-1.84.558-2.563.558-.69 0-1.084-.46-.362-.493-.592-1.48-.23-.986-.394-1.314l.033-.296q0-2.499-4.83-15.88-4.831-13.38-7-18.41v33.895q.066.132.263.46.427.724.427 1.348 0 .625-.624 1.25-.592.624-1.413.624-2.202 0-2.202-4.11zm26.649 10.981-.033-3.946v-1.61q0-9.93.986-13.808 1.183-4.8 3.286-6.641 2.859-2.565 7.23-2.565 1.05 0 1.544.493.526.494.526 1.184t-.428 1.25q-.394.525-1.018.558h-3.155q-1.38 0-2.399 1.775-.985 1.776-1.445 4.34-.855 4.866-.822 8.055v.328l-.296 12.986q0 4.11.427 5.688.46 1.578.92 2.564.493.954 1.15 1.578 1.512 1.447 3.878 1.447.789 0 1.446-.592.789 0 1.413.362.624.361.624 1.118 0 2.663-3.713 2.663-1.511 0-3.187-.46-1.643-.428-2.465-.954-4.469-2.893-4.469-15.813zm21.294-24.263-.263 16.8q1.215.328 3.68.328h2.432q.164-.295.164-2.17 0-1.873-.46-8.218-.427-6.378-.427-9.6 0-.756.591-1.25.592-.526 1.117-.526.526 0 .855.1.328.098.723.262.394.164.624.23 0 8.745.624 25.578.658 16.8.658 17.358 0 .56-.723 1.118-.69.526-1.578.526-.854 0-1.38-1.282-.525-1.282-.723-3.78-.164-2.532-.23-4.373-.032-.79 0-1.808 0-1.381.033-3.157.066-3.123.066-3.616v-.263l.098-1.94-.394-.624v-.066q-.559.132-1.216.132l-4.337-.625v7.726l.394 11.079q0 .953-.493 1.71-.493.723-1.413.723-1.347 0-1.873-2.433-.493-2.466-.493-6.707l.197-10.257q0-3.189-.098-3.518v-.329q.263-3.517.263-3.945l-.46-15.188q0-.79.558-1.381.559-.625 1.348-.625 2.135 0 2.135 4.011zm36.935 15.057.065 2.137v.296q.263 5.852.263 17.556v1.71h5.126q1.446.986 1.446 1.873 0 .888-.493 1.48-.493.559-1.019.559-.525 0-1.215-.23-.559.131-1.282.131l-2.169-.099q-.69.822-1.741.822-1.019 0-1.742-.657-.69-.625-.69-1.48l.427-2.958q0-7.66-.69-22.948-.657-15.32-.657-22.98 0-.625.493-.987.493-.394 1.216-.394.755 0 1.347.559.624.559.624 1.38zm21.424 13.15q-.197-.986-.197-3.418 0-2.466-.296-6.083-.263-3.649-.788-8.449-.526-4.832-.723-7.002-3.056 16.93-3.943 23.868 1.15.756 5.947 1.085zm3.516-1.347.723 4.142q0 .822.625 4.011.657 3.189.657 4.175v.066q0 1.48-1.118 1.907-1.412 0-2.201-.46-.789-.46-.789-1.776 0-2.86-.986-8.317l-6.637-.987q-.625 2.236-.953 4.899-.329 2.663-.625 3.88-.591 2.498-2.201 2.498-.789 0-1.479-.493-.657-.526-.657-1.315l.164-.592q4.535-17.523 6.736-34.126.066-.46.198-2.695.328-4.932 1.248-6.28h2.268q.92 0 1.61.428.69.427.69 1.282 0 5.129 1.347 15.221 1.38 10.093 1.38 14.532zm9.727-21.435v10.027q3.549-.099 3.549-8.515t-2.76-8.745q-.79 1.71-.79 7.233zm-.427 28.996.065.329v3.025q2.268-.526 3.385-2.663 1.15-2.17 1.15-4.011 0-1.874-.066-2.96-.032-1.084-.295-2.662-.263-1.578-.658-2.762-.985-2.893-3.056-3.32-.295 4.34-.295 10.191zm-2.86-32.448-.36-3.485v-.362q0-1.414.427-2.236.46-.821 2.267-.821 1.84 0 3.582.953 1.741.953 2.76 2.63 2.004 3.288 2.004 7.496t-.624 6.674q-.624 2.432-2.103 4.537 2.629 2.531 3.023 8.317.066 1.315.066 3.156.033 1.841-.296 3.617-.328 1.775-1.084 3.386-.789 1.61-1.906 2.794-2.465 2.565-6.605 2.565-1.413 0-1.807-1.25-.263-.953-.296-2.3l.657-14.335zm15.445 35.736 2.793.493q1.282 0 2.235-1.118.953-1.118 1.413-2.794.887-3.222.887-5.688 0-2.498-.822-4.931-.821-2.433-2.037-4.504-1.183-2.104-2.366-4.274-2.826-5.129-2.826-10.06 0-3.025 1.019-5.359 1.906-4.34 5.06-4.34 1.183 0 2.235.756 1.084.757 1.084 1.644 0 1.545-1.643 1.545-.723 0-1.413-.394-2.136.099-2.891 4.767-.165 1.02-.165 2.4 0 1.348.592 3.353.591 2.006 1.478 3.584.92 1.545 1.94 3.452 1.05 1.874 1.97 3.649 2.104 4.11 2.071 9.403.033 4.076-1.873 7.791-.92 1.841-2.629 3.025-1.676 1.15-3.844 1.183v.165q-2.76-.395-3.024-2.598z"
       transform="translate(99.508 247.644) scale(.26458)"
       id="path3664" />
  </g>
</svg>
