<?xml version="1.0" encoding="UTF-8" standalone="no"?>
<svg
   viewBox="0 0 100 29"
   version="1.1"
   id="svg898"
   sodipodi:docname="logo-with-text.svg"
   width="100"
   height="29"
   inkscape:version="1.1.1 (c3084ef, 2021-09-22)"
   xmlns:inkscape="http://www.inkscape.org/namespaces/inkscape"
   xmlns:sodipodi="http://sodipodi.sourceforge.net/DTD/sodipodi-0.dtd"
   xmlns="http://www.w3.org/2000/svg"
   xmlns:svg="http://www.w3.org/2000/svg">
  <defs
     id="defs902" />
  <sodipodi:namedview
     id="namedview900"
     pagecolor="#505050"
     bordercolor="#ffffff"
     borderopacity="1"
     inkscape:pageshadow="0"
     inkscape:pageopacity="0"
     inkscape:pagecheckerboard="1"
     showgrid="false"
     inkscape:zoom="2.4208754"
     inkscape:cx="108.01878"
     inkscape:cy="36.970097"
     inkscape:window-width="1296"
     inkscape:window-height="969"
     inkscape:window-x="0"
     inkscape:window-y="40"
     inkscape:window-maximized="0"
     inkscape:current-layer="text896" />
  <path
     d="M 8.3747885,1.2297709 C 8.3243153,1.2150425 8.2044413,1.293945 8.0151666,1.4359695 4.3201042,4.2133379 2.1192603,7.3820628 2.5766741,9.2662548 c 0.1261832,0.5239127 0.3890647,1.3045212 0.5573088,1.6653692 0.039958,0.08416 0.073607,0.166221 0.073607,0.179898 0,0.01473 0.067298,0.176741 0.1503683,0.360847 0.1808624,0.399773 0.325973,0.722747 0.4132497,0.923686 0.1472136,0.332442 0.3732917,0.820586 0.6572037,1.411828 l 0.2996849,0.627012 -0.1966353,0.288258 c -0.1072557,0.157805 -0.1966354,0.298777 -0.1966354,0.313506 0,0.01473 -0.094637,0.189366 -0.2103052,0.387148 -0.1177709,0.197782 -0.2281811,0.39346 -0.2481601,0.433438 -0.018927,0.04103 -0.1682442,0.316662 -0.3301792,0.614387 -0.243954,0.44501 -1.0578351,2.075662 -1.6025256,3.205546 -0.1335438,0.277737 -0.3806524,0.502872 -1.29548009,1.176174 a 7.0420696,7.0454683 0 0 0 -0.57518472,0.457634 c -0.10935871,0.115724 -0.09253429,0.216719 0.0283912,0.17043 0.14931669,-0.05681 1.00946501,-0.131504 1.05047451,-0.09047 0.023134,0.0242 -0.00315,0.160961 -0.059937,0.31035 -0.055731,0.147285 -0.11987398,0.334546 -0.14195603,0.415553 a 6.267095,6.2701197 0 0 1 -0.0914828,0.294569 c -0.0273397,0.08101 -0.0883282,0.279841 -0.1335438,0.441854 -0.0462672,0.162014 -0.10304955,0.349276 -0.12618312,0.417658 -0.12723465,0.359795 -0.33333374,1.693774 -0.33438527,2.161929 l -0.001052,0.468155 0.6551007,0.650156 0.65615232,0.649105 0.4847534,-0.0284 c 1.1756061,-0.06838 2.7812863,-0.476571 4.2628864,-1.083594 0.5857,-0.241968 0.5878031,-0.241968 1.0557322,-0.452375 L 7.9415595,25.381314 C 8.772265,25.009946 11.148714,23.7959 11.833257,23.392971 c 0.04627,-0.02735 0.237645,-0.134661 0.42692,-0.240916 0.189275,-0.105203 0.395374,-0.232499 0.459517,-0.282997 0.175605,-0.13466 0.293376,-0.112568 0.823345,0.152545 a 49.569987,49.593911 0 0 0 3.034704,1.382372 c 1.524712,0.671197 2.561517,0.783765 3.537333,0.383992 l 0.315458,-0.128348 c 1.470033,-0.599659 3.457417,-2.343931 5.303897,-4.654196 0.681389,-0.852147 0.725553,-1.00364 0.229233,-0.789025 -0.08833,0.03787 -0.282861,0.117827 -0.431126,0.178845 -0.736068,0.295622 -1.940065,0.891073 -2.484756,1.228776 -1.37119,0.846886 -2.726607,1.01416 -3.887491,0.477623 -0.594113,-0.273529 -1.506837,-0.877396 -2.515251,-1.661161 -0.630915,-0.4913 -1.480548,-1.107791 -1.574134,-1.142509 -0.05258,-0.01894 -0.121977,-0.163065 -0.187172,-0.389252 A 7.8822389,7.8860431 0 0 0 14.739675,17.45318 6.0977993,6.1007423 0 0 0 14.35692,16.618917 5.2218781,5.2243984 0 0 0 13.799611,15.760458 C 12.80697,14.434895 11.459966,13.301855 10.272793,12.794775 9.8563886,12.616982 9.7144326,12.568588 9.6166407,12.568588 c -0.1829655,0 -0.4100951,-0.182002 -0.625658,-0.500768 A 12.560478,12.56654 0 0 0 8.2622752,11.095741 C 5.8574353,8.1763481 5.605069,6.8613063 6.9773104,4.4184845 7.1213695,4.1617883 7.3726842,3.6873212 7.5346192,3.3632949 7.9026533,2.6342357 7.867953,2.70893 8.0761551,2.2102662 8.3569126,1.5348607 8.4610136,1.2529157 8.3747885,1.2297709 Z M 5.1150579,5.7272142 c 0.035752,-0.00736 0.055731,0.016833 0.055731,0.078902 0,0.059966 -0.033649,0.284049 -0.073607,0.4944557 -0.04101,0.2125108 -0.073607,0.4660508 -0.074658,0.564942 C 5.0214721,7.1706041 4.979411,7.197957 4.6019132,7.1327309 4.1466025,7.0548804 4.1402933,7.0380479 4.4021233,6.6193386 4.7449207,6.0733332 5.0056992,5.7514109 5.1150579,5.7272142 Z M 3.8952877,8.1058619 c 0.035752,0.0021 0.073607,0.01052 0.1156679,0.024197 0.1167194,0.039977 0.4311257,0.089423 0.6971617,0.1083594 C 5.2549109,8.2773434 5.1665827,8.203701 5.4872981,8.8896269 5.6723667,9.2830874 5.6997064,9.4177477 5.5998114,9.4472046 4.6187376,9.7333577 3.6860341,9.4745575 3.6166334,8.8959391 3.561954,8.4340963 3.6250456,8.171088 3.7995989,8.1163822 a 0.25972692,0.25985227 0 0 1 0.095689,-0.01052 z m 2.2597294,2.3239421 c 0.2103052,-0.03787 0.2797059,0.06312 0.5857,0.473415 0.5636179,0.759568 0.5615149,0.751152 0.2145113,0.834263 C 6.3211582,11.890026 6.0172672,11.951044 5.5135863,12.025739 4.8332489,12.126734 4.855331,12.133046 4.6976021,11.789031 A 12.953749,12.960001 0 0 0 4.5219972,11.419767 c -0.095689,-0.184105 -0.2870666,-0.730111 -0.263933,-0.753256 0.012618,-0.01262 0.3186124,-0.03366 0.6792858,-0.04524 0.4584653,-0.01578 0.7434289,-0.04945 0.9474249,-0.114672 0.1146164,-0.03682 0.19979,-0.06417 0.2702422,-0.0768 z m 1.7318633,2.168241 a 0.18401705,0.18410586 0 0 1 0.077813,0.01262 c 0.052576,0.01999 0.1062041,0.06312 0.1598319,0.127296 0.045216,0.05576 0.141956,0.207251 0.2134598,0.336651 l 0.1303892,0.23776 -0.1156678,0.159909 c -0.3396429,0.471311 -0.9989497,0.806909 -1.8895923,0.96261 -0.465826,0.08206 -0.4563623,0.08837 -0.7718201,-0.543901 -0.3575188,-0.712227 -0.3512096,-0.779557 0.068349,-0.781661 0.1345954,0 0.5993699,-0.09784 1.2018943,-0.251436 l 0.5846486,-0.14728 c 0.1051526,-0.0263 0.2260781,-0.06733 0.2670876,-0.09047 a 0.17034721,0.17042943 0 0 1 0.073607,-0.02104 z m 1.7507908,1.108843 a 0.34279748,0.34296292 0 0 1 0.084122,0.03682 c 0.047319,0.0263 0.1735018,0.08627 0.2818088,0.133609 0.420611,0.18621 1.175606,0.710122 1.625659,1.12778 0.112514,0.105203 0.245006,0.224083 0.294428,0.267216 0.409043,0.349275 1.23344,1.409725 1.486857,1.910493 0.08833,0.17569 0.19243,0.378732 0.229233,0.449218 0.136698,0.260905 0.09148,0.462895 -0.139853,0.622804 -0.665616,0.457635 -1.165091,1.295053 -1.411148,2.363919 -0.08938,0.389253 -0.0999,0.397669 -0.446898,0.28931 -1.603577,-0.498664 -3.184021,0.691186 -4.0851788,3.074041 A 4.3428024,4.3448984 0 0 1 7.388457,24.383975 c -0.037855,0.05997 -0.6572037,0.360848 -1.1388026,0.55337 -0.1482652,0.05997 -0.3364884,0.136764 -0.4164043,0.173585 A 5.4542654,5.4568978 0 0 1 5.4399793,25.258215 3.7760299,3.7778523 0 0 0 5.121367,25.378147 4.9211417,4.9235168 0 0 1 4.679726,25.525432 c -0.2029445,0.05997 -0.4321771,0.1294 -0.5099901,0.154649 -0.1735018,0.05471 -0.4710836,0.05891 -0.4710836,0.0063 0,-0.02104 0.1682441,-0.203043 0.3732917,-0.405033 0.6666676,-0.654352 0.7539443,-0.836354 0.5573089,-1.15512 C 4.3222073,23.63072 4.0624804,23.751704 2.8626892,24.948918 L 1.8753063,25.93257 1.7070621,25.770556 C 1.4757264,25.546473 1.4273562,25.62222 2.5451284,24.495492 3.6460761,23.385596 3.6702612,23.346671 3.4767804,22.974251 3.2349294,22.507148 2.9036987,22.592363 2.188661,23.300382 c -0.5373297,0.534433 -0.6193488,0.543901 -0.4784443,0.05681 0.1713988,-0.595451 0.525763,-1.599091 0.7129346,-2.026217 0.024185,-0.0526 0.086225,-0.197782 0.1388015,-0.318766 0.3154578,-0.721695 0.3512097,-0.786921 0.4595168,-0.829003 l 0.3091487,-0.118879 c 1.8969529,-0.717487 2.8559446,-1.499148 3.2597306,-2.658489 0.1282862,-0.37242 0.1409045,-1.167757 0.023134,-1.514928 -0.1072557,-0.31561 -0.09674,-0.327183 0.3995798,-0.454479 1.1650908,-0.298777 1.8265007,-0.717487 2.3785518,-1.50546 0.086225,-0.12414 0.1356469,-0.189366 0.1787595,-0.213562 a 0.08832818,0.08837081 0 0 1 0.067298,-0.01052 z m -4.3270295,1.969407 c 0.059937,-0.0084 0.1009465,0.07785 0.1640381,0.217771 0.2754998,0.617544 0.1093587,1.411829 -0.4027345,1.918909 -0.4837019,0.479727 -1.4227146,1.052033 -1.4227146,0.867928 0,-0.02209 0.8359631,-1.659057 1.0283924,-2.013592 0.383807,-0.708019 0.5331237,-0.978392 0.6330186,-0.991016 z m 8.9642593,3.469606 c 0.09569,0.01052 0.201893,0.05365 0.268139,0.123088 l 0.115668,0.123088 h -0.276552 c -0.279705,0 -0.360673,-0.04524 -0.311251,-0.174637 0.02208,-0.05997 0.108307,-0.08206 0.203996,-0.07154 z m 0.622503,0.589139 -0.0347,0.183054 a 4.4795008,4.4816627 0 0 1 -0.09569,0.380836 12.860163,12.86637 0 0 0 -0.30284,1.350811 c -0.04627,0.256696 -0.09674,0.481832 -0.112513,0.500768 -0.04627,0.0526 -1.212409,-0.526017 -1.248161,-0.618596 -0.03575,-0.09258 0.03996,-0.695394 0.109359,-0.872135 0.02419,-0.06312 0.0694,-0.207251 0.09989,-0.320871 0.09043,-0.339806 0.262882,-0.504976 0.535227,-0.508132 0.126183,-0.0021 0.327025,-0.02104 0.449002,-0.04313 0.120925,-0.02104 0.305994,-0.04208 0.410095,-0.04629 z m 1.107257,0.622804 a 0.04731867,0.04734151 0 0 1 0.0326,0.01052 l 0.57834,0.420814 c 0.578339,0.419761 0.561515,0.391356 0.44795,0.797441 -0.112514,0.401877 -0.157729,0.754308 -0.161935,1.278221 -0.0042,0.523913 0.02734,0.506028 -0.50263,0.279841 -0.983177,-0.420814 -0.935858,-0.373472 -0.899054,-0.904749 0.06099,-0.88476 0.33123,-1.867359 0.504732,-1.882088 z m 2.217668,1.544385 c 0.08412,0.0084 0.212409,0.06943 0.420611,0.165169 0.205047,0.09468 0.401683,0.171482 0.438486,0.171482 0.156678,0 0.220821,0.150441 0.220821,0.509184 0,0.194626 0.03365,0.48604 0.07571,0.647001 0.135647,0.519704 0.07781,0.559682 -0.738171,0.516548 -0.493165,-0.0263 -0.717141,-0.595451 -0.609885,-1.551749 0.03049,-0.274581 0.04522,-0.412397 0.121977,-0.448166 a 0.1293377,0.12940012 0 0 1 0.07045,-0.0095 z m -7.298642,0.03367 c 0.118823,-0.0095 0.233439,-0.0074 0.338592,0.0063 a 0.85594216,0.85635527 0 0 1 0.35857,0.11888 l 0.139853,0.09258 -0.114616,0.08627 c -0.06309,0.04734 -0.237645,0.151493 -0.389065,0.231447 -0.15142,0.08101 -0.39958,0.215667 -0.550999,0.29983 -0.595164,0.33139 -1.6193504,0.841627 -1.6855965,0.841627 -0.2260781,0 0.4300741,-0.9826 0.8759211,-1.312938 0.2807574,-0.207251 0.6719254,-0.336651 1.0273404,-0.364004 z m 10.740287,0.455531 c 0.105153,-0.0032 0.189275,0.0063 0.189275,0.03156 0,0.05576 -0.286015,0.288257 -0.748687,0.607023 -0.536278,0.368212 -0.637225,0.371368 -0.678234,0.01894 -0.05258,-0.447115 -0.02208,-0.484988 0.424816,-0.528121 0.21346,-0.02104 0.444796,-0.05786 0.512094,-0.08206 a 1.1251328,1.1256758 0 0 1 0.300736,-0.04734 z"
     id="path890"
     style="stroke-width:1" />
  <path
     stroke="#000000"
     stroke-linecap="round"
     stroke-linejoin="round"
     stroke-width="0.265"
     d="M 28.216032,0.13249999 H 29.57145 V 28.438513 h -1.356469 z"
     id="path892" />
  <g
     aria-label="Bit Ranch Labs"
     transform="matrix(0.26458,0,0,0.26458,99.508,247.644)"
     id="text896"
     style="font-size:64px;line-height:0.9;word-spacing:10">
    <path
       d="m -243.57374,-903.77771 q -0.95294,0 -0.95294,2.43283 0,2.39995 0.13144,7.59437 0.13144,5.16154 0.13144,7.49574 1.74159,-0.39451 2.99027,-2.89309 1.01867,-2.10407 1.67587,-4.04376 0.65721,-1.97256 0.85437,-2.43283 v -2.39995 q 0,-1.97256 -1.47871,-3.84649 -1.44585,-1.90682 -3.35174,-1.90682 z m -0.39432,43.75802 q 3.3846,-0.52601 5.29049,-3.09035 1.90589,-2.56433 1.90589,-5.91768 0,-3.35336 -0.55862,-5.88482 -0.55863,-2.56433 -1.24869,-3.84649 -0.6572,-1.31505 -1.54443,-2.23557 -1.08439,-1.11779 -1.77445,-1.34792 h -2.39879 q 0.3286,9.30392 0.3286,22.32283 z m -3.74606,-14.72847 -0.46004,-27.35287 v -0.39451 q 0,-3.61636 1.11724,-4.60265 0.55862,-0.49314 1.41299,-0.49314 4.79759,0 7.49212,3.09035 2.69454,3.09035 2.69454,7.956 0,3.05748 -1.61015,6.34508 -1.61015,3.28761 -3.84464,4.89853 4.10752,2.76159 5.84911,7.03548 1.77445,4.24101 1.77445,8.90941 0,2.4657 -1.24869,5.06291 -1.21582,2.5972 -2.46451,4.14238 -1.21583,1.54517 -3.2203,2.59721 -2.00447,1.05203 -4.40326,1.05203 h -0.26289 q -3.15457,0 -3.15457,-1.67668 z"
       style="font-family:Amatic;-inkscape-font-specification:Amatic;stroke-width:1"
       id="path3883" />
    <path
       d="m -222.28034,-879.44943 0.3286,14.30108 v 2.00544 l -0.0328,1.87393 h 0.88722 q 0,0 1.93875,-0.0657 2.76026,0 2.76026,1.67668 0,0.85478 -0.69006,1.47942 -0.65721,0.59177 -1.54443,0.59177 h -2.95742 q -3.056,0 -3.91036,-0.1315 -0.52577,0.0657 -0.82151,0.0657 -2.39879,0 -2.39879,-1.5123 0,-0.62464 0.39432,-1.18354 0.39432,-0.55889 0.78865,-0.59177 h 1.90589 l 0.13144,-0.88765 -0.46005,-14.30108 0.36147,-14.99148 q 0,-3.84649 -0.32861,-7.23273 h -1.28154 l -1.54443,0.0657 q -0.98581,0 -1.54443,-0.36163 -0.55862,-0.39451 -0.55862,-1.44655 0,-1.54517 3.31888,-1.54517 h 8.01788 q 2.7274,0 2.7274,1.41367 0,0.62464 -0.59149,1.15066 -0.59148,0.52602 -1.34726,0.52602 h -3.45032 q 0.26288,2.76158 0.26288,6.24645 z"
       style="font-family:Amatic;-inkscape-font-specification:Amatic;stroke-width:1"
       id="path3885" />
    <path
       d="m -206.80319,-858.14575 -0.13144,-5.16154 q 0,-0.0328 0.0985,-2.30132 -0.26288,-0.85478 -1.08439,-15.18874 -0.78864,-14.33396 -0.85436,-17.52293 -0.13144,0 -0.26288,0 -5.4548,-0.0986 -5.4548,-2.00544 0,-0.62465 0.72293,-1.01916 0.72292,-0.42739 1.41299,-0.42739 0,0 9.13513,0.62465 l 1.08439,-0.0328 q 2.10305,0 2.10305,1.61093 0,0.8219 -0.69007,1.34792 -0.69006,0.49314 -1.54443,0.49314 l -3.08885,-0.46026 -0.13144,0.69039 q 0,6.37796 1.11724,19.10099 1.11725,12.72303 1.11725,19.13385 0,0.78903 -0.72293,1.41367 -0.72292,0.59177 -1.57728,0.59177 z"
       style="font-family:Amatic;-inkscape-font-specification:Amatic;stroke-width:1"
       id="path3887" />
    <path
       d="m -178.37913,-859.03341 0.26288,-39.48413 v -8.28476 q 0,-0.78903 0.32861,-1.11779 0.3286,-0.32876 1.70873,-0.32876 1.41298,0 2.82597,0.6904 1.44585,0.65752 2.43166,1.77531 0.95294,1.18353 1.64301,2.63008 1.3144,2.79446 1.3144,6.08207 0,3.2876 -1.64301,7.52861 -0.19716,0.46027 -0.78864,1.93969 -0.59148,1.47942 -0.69006,1.74243 0.0328,4.99716 2.53023,12.98604 0.85436,2.69583 2.43165,7.39711 1.57729,4.6684 1.97162,5.91769 v 0.16438 q 0,2.26845 -0.52577,2.63008 -0.52576,0.39451 -1.11724,0.39451 -1.24869,0 -2.43166,-1.80818 v -0.23013 q -0.3286,-6.11495 -4.2061,-18.50922 -1.77445,-5.65468 -2.46452,-8.38339 v 26.53097 q 0,1.01916 -0.36146,1.57805 -0.36146,0.5589 -1.31441,0.5589 -0.95294,0 -1.44584,-0.52602 -0.46005,-0.55889 -0.46005,-1.34792 z m 3.7132,-46.12509 -0.36146,13.74219 q 0,2.07119 0.0657,3.09035 1.15011,-1.08491 2.26736,-2.59721 l 1.05152,-5.81906 q 0.0985,-0.46027 0.0985,-1.05203 0,-1.61093 -0.6572,-3.91225 -0.92009,-3.1561 -2.46452,-3.45199 z"
       style="font-family:Amatic;-inkscape-font-specification:Amatic;stroke-width:1"
       id="path3889" />
    <path
       d="m -149.4293,-869.38936 q -0.19716,-0.98628 -0.19716,-3.41911 0,-2.4657 -0.29574,-6.08207 -0.26289,-3.64924 -0.78865,-8.44914 -0.52576,-4.83278 -0.72292,-7.0026 -3.056,16.93116 -3.94323,23.86801 1.15011,0.75615 5.9477,1.08491 z m 3.51604,-1.34792 0.72292,4.14238 q 0,0.8219 0.62435,4.01088 0.6572,3.18898 0.6572,4.17526 v 0.0657 q 0,1.47942 -1.11725,1.90681 -1.41298,0 -2.20163,-0.46026 -0.78864,-0.46027 -0.78864,-1.77531 0,-2.86022 -0.98581,-8.31764 l -6.63776,-0.98628 q -0.62434,2.23557 -0.95294,4.89853 -0.3286,2.66296 -0.62435,3.87937 -0.59148,2.49858 -2.20163,2.49858 -0.78864,0 -1.47871,-0.49314 -0.6572,-0.52601 -0.6572,-1.31504 l 0.1643,-0.59177 q 4.53471,-17.52293 6.73634,-34.12533 0.0657,-0.46027 0.19716,-2.69584 0.3286,-4.93141 1.24869,-6.27933 h 2.26735 q 0.92009,0 1.61015,0.42739 0.69006,0.42739 0.69006,1.28217 0,5.12866 1.34727,15.22161 1.38013,10.09295 1.38013,14.53121 z"
       style="font-family:Amatic;-inkscape-font-specification:Amatic;stroke-width:1"
       id="path3891" />
    <path
       d="m -140.45847,-884.31509 0.39432,-12.55865 q 0,-3.12322 2.46452,-4.96428 v 0.42739 q 0.26288,-0.16438 0.4929,-0.16438 1.57729,0 3.94322,5.45742 2.36593,5.42455 4.27183,11.93401 1.90589,6.50946 3.77892,13.15042 1.90589,6.60808 2.36593,7.75874 1.34727,-14.10382 1.34727,-34.15821 l -0.0985,-1.80818 q 0,-2.00544 1.67587,-2.00544 0.95295,0 1.41299,0.78903 0.4929,0.78902 0.4929,1.84105 v 5.09579 q -0.0657,7.92313 -0.72292,21.17218 -0.62435,13.21617 -1.70873,14.92572 -1.84017,0.55889 -2.5631,0.55889 -0.69006,0 -1.08438,-0.46026 -0.36147,-0.49314 -0.59149,-1.47942 -0.23002,-0.98628 -0.39432,-1.31505 l 0.0328,-0.29588 q 0,-2.49858 -4.83045,-15.87913 -4.83045,-13.38055 -6.99922,-18.41059 v 33.89521 q 0.0657,0.1315 0.26288,0.46026 0.42718,0.72328 0.42718,1.34792 0,0.62465 -0.62434,1.24929 -0.59148,0.62465 -1.41299,0.62465 -2.20163,0 -2.20163,-4.10951 z"
       style="font-family:Amatic;-inkscape-font-specification:Amatic;stroke-width:1"
       id="path3893" />
    <path
       d="m -113.80886,-873.33449 -0.0328,-3.94512 v -1.61093 q 0,-9.92856 0.98581,-13.80794 1.18297,-4.7999 3.28602,-6.64096 2.85883,-2.56433 7.22924,-2.56433 1.05153,0 1.54443,0.49314 0.52576,0.49314 0.52576,1.18354 0,0.69039 -0.42718,1.24929 -0.39432,0.52601 -1.01867,0.55889 h -3.15457 q -1.38013,0 -2.3988,1.77531 -0.9858,1.7753 -1.44585,4.33964 -0.85436,4.86565 -0.8215,8.05463 v 0.32876 l -0.29574,12.98604 q 0,4.1095 0.42718,5.68755 0.46004,1.57805 0.92008,2.56433 0.49291,0.95341 1.15011,1.57805 1.51157,1.44655 3.8775,1.44655 0.78865,0 1.44585,-0.59177 0.78865,0 1.41299,0.36164 0.624343,0.36163 0.624343,1.11778 0,2.66296 -3.713203,2.66296 -1.51157,0 -3.18744,-0.46026 -1.64301,-0.42739 -2.46451,-0.95341 -4.46899,-2.89309 -4.46899,-15.81338 z"
       style="font-family:Amatic;-inkscape-font-specification:Amatic;stroke-width:1"
       id="path3895" />
    <path
       d="m -92.515457,-897.59701 -0.262881,16.79966 q 1.215827,0.32876 3.680341,0.32876 h 2.431654 q 0.164301,-0.29588 0.164301,-2.16982 0,-1.87393 -0.460043,-8.21901 -0.427182,-6.37795 -0.427182,-9.5998 0,-0.75615 0.591483,-1.24929 0.591483,-0.52602 1.117242,-0.52602 0.525763,0 0.854365,0.0986 0.328602,0.0986 0.722924,0.26301 0.394322,0.16438 0.624344,0.23014 0,8.74502 0.624343,25.57756 0.657204,16.79966 0.657204,17.35855 0,0.5589 -0.722924,1.11779 -0.690064,0.52601 -1.577289,0.52601 -0.854365,0 -1.380124,-1.28216 -0.525763,-1.28217 -0.722924,-3.78075 -0.164301,-2.53145 -0.230021,-4.37251 -0.03281,-0.78903 0,-1.80818 0,-1.3808 0.03281,-3.1561 0.06572,-3.12323 0.06572,-3.61637 v -0.26301 l 0.09853,-1.93968 -0.394323,-0.62465 v -0.0657 q -0.558623,0.1315 -1.215826,0.1315 l -4.337545,-0.62464 v 7.72587 l 0.394322,11.07923 q 0,0.9534 -0.492903,1.70955 -0.492903,0.72327 -1.412988,0.72327 -1.347268,0 -1.873031,-2.43282 -0.492902,-2.46571 -0.492902,-6.70672 l 0.197161,-10.25732 q 0,-3.18898 -0.09853,-3.51774 v -0.32876 q 0.262881,-3.51774 0.262881,-3.94513 l -0.460042,-15.18873 q 0,-0.78903 0.558623,-1.38079 0.558623,-0.62465 1.347268,-0.62465 2.135912,0 2.135912,4.01088 z"
       style="font-family:Amatic;-inkscape-font-specification:Amatic;stroke-width:1"
       id="path3897" />
    <path
       d="m -55.58061,-882.53978 0.06572,2.13694 v 0.29589 q 0.262882,5.85193 0.262882,17.55581 v 1.70955 h 5.126189 q 1.445848,0.98628 1.445848,1.87394 0,0.88765 -0.492903,1.47942 -0.492902,0.55889 -1.018665,0.55889 -0.525763,0 -1.215827,-0.23013 -0.558624,0.1315 -1.281548,0.1315 l -2.168772,-0.0986 q -0.690064,0.8219 -1.74159,0.8219 -1.018666,0 -1.74159,-0.65752 -0.690064,-0.62465 -0.690064,-1.47942 l 0.427183,-2.95885 q 0,-7.66012 -0.690064,-22.94748 -0.657204,-15.32024 -0.657204,-22.98036 0,-0.62464 0.492903,-0.98628 0.492903,-0.39451 1.215827,-0.39451 0.755784,0 1.347267,0.55889 0.624344,0.5589 0.624344,1.3808 z"
       style="font-family:Amatic;-inkscape-font-specification:Amatic;stroke-width:1"
       id="path3899" />
    <path
       d="m -34.155768,-869.38936 q -0.197161,-0.98628 -0.197161,-3.41911 0,-2.4657 -0.295742,-6.08207 -0.262881,-3.64924 -0.788644,-8.44914 -0.525763,-4.83278 -0.722924,-7.0026 -3.055998,16.93116 -3.943223,23.86801 1.150107,0.75615 5.947694,1.08491 z m 3.51604,-1.34792 0.722924,4.14238 q 0,0.8219 0.624344,4.01088 0.657204,3.18898 0.657204,4.17526 v 0.0657 q 0,1.47942 -1.117247,1.90681 -1.412988,0 -2.201632,-0.46026 -0.788645,-0.46027 -0.788645,-1.77531 0,-2.86022 -0.985805,-8.31764 l -6.637758,-0.98628 q -0.624344,2.23557 -0.952946,4.89853 -0.328602,2.66296 -0.624343,3.87937 -0.591484,2.49858 -2.201633,2.49858 -0.788644,0 -1.478708,-0.49314 -0.657204,-0.52601 -0.657204,-1.31504 l 0.164301,-0.59177 q 4.534706,-17.52293 6.736338,-34.12533 0.06572,-0.46027 0.197161,-2.69584 0.328602,-4.93141 1.248688,-6.27933 h 2.267352 q 0.920086,0 1.61015,0.42739 0.690064,0.42739 0.690064,1.28217 0,5.12866 1.347267,15.22161 1.380128,10.09295 1.380128,14.53121 z"
       style="font-family:Amatic;-inkscape-font-specification:Amatic;stroke-width:1"
       id="path3901" />
    <path
       d="m -20.913112,-892.17246 q 0,0 0,10.02719 3.5489,-0.0986 3.5489,-8.51489 0,-8.41627 -2.760256,-8.74503 -0.788644,1.70955 -0.788644,7.23273 z m -0.427183,28.99667 0.06572,0.32876 v 3.0246 q 2.267353,-0.52602 3.384599,-2.66296 1.150106,-2.16982 1.150106,-4.01088 0,-1.87393 -0.06572,-2.95884 -0.03286,-1.08491 -0.295742,-2.66296 -0.262881,-1.57805 -0.657203,-2.76159 -0.985806,-2.89309 -3.055998,-3.32048 -0.295741,4.33964 -0.295741,10.19157 z m -2.858836,-32.44866 -0.361462,-3.48486 v -0.36163 q 0,-1.41367 0.427182,-2.23557 0.460043,-0.82191 2.267353,-0.82191 1.840171,0 3.581761,0.95341 1.74159,0.95341 2.760254,2.63008 2.004472,3.28761 2.004472,7.49574 0,4.20814 -0.624344,6.67384 -0.624343,2.43283 -2.103051,4.53689 2.628814,2.53146 3.023136,8.31764 0.06572,1.31505 0.06572,3.1561 0.03281,1.84106 -0.295742,3.61637 -0.328602,1.77531 -1.084386,3.38623 -0.788645,1.61093 -1.90589,2.79447 -2.464514,2.56433 -6.604898,2.56433 -1.412988,0 -1.80731,-1.24929 -0.262881,-0.95341 -0.295742,-2.30132 l 0.657204,-14.33396 z"
       style="font-family:Amatic;-inkscape-font-specification:Amatic;stroke-width:1"
       id="path3903" />
    <path
       d="m -8.754844,-859.88818 2.7931159,0.49314 q 1.2815473,0 2.2344928,-1.11779 0.9529454,-1.11778 1.412988,-2.79446 0.8872251,-3.22185 0.8872251,-5.68756 0,-2.49858 -0.8215047,-4.9314 -0.8215047,-2.43283 -2.0373316,-4.50402 -1.1829668,-2.10407 -2.3659335,-4.27389 -2.8259761,-5.12866 -2.8259761,-10.06007 0,-3.0246 1.0186658,-5.3588 1.9058908,-4.33963 5.0604688,-4.33963 1.1829668,0 2.2344928,0.75615 1.08438618,0.75614 1.08438618,1.6438 0,1.54517 -1.64300938,1.54517 -0.7229241,0 -1.4129881,-0.39451 -2.1359121,0.0986 -2.8916965,4.76703 -0.1643009,1.01915 -0.1643009,2.39995 0,1.34792 0.5914834,3.35335 0.5914834,2.00544 1.4787084,3.58349 0.9200853,1.54518 1.9387511,3.45199 1.051526,1.87393 1.97161123,3.64924 2.10305197,4.10951 2.07019177,9.40255 0.032808,4.07663 -1.87303065,7.79162 -0.92008525,1.84106 -2.62881495,3.0246 -1.6758696,1.15066 -3.844642,1.18354 v 0.16438 q -2.7602557,-0.39452 -3.0231372,-2.59721 z"
       style="font-family:Amatic;-inkscape-font-specification:Amatic;stroke-width:1"
       id="path3905" />
  </g>
</svg>
