<svg xmlns="http://www.w3.org/2000/svg" viewBox="0 0 100 29"><path d="M8.375 1.23c-.05-.015-.17.064-.36.206C4.32 4.213 2.12 7.382 2.577 9.266c.126.524.389 1.305.557 1.666.04.084.074.166.074.18 0 .014.067.176.15.36.18.4.326.723.413.924.147.332.373.82.657 1.412l.3.627-.197.288a2.679 2.679 0 0 0-.196.314c0 .014-.095.189-.21.387a12.39 12.39 0 0 0-.249.433 32.54 32.54 0 0 1-.33.615c-.244.445-1.058 2.075-1.602 3.205-.134.278-.381.503-1.296 1.176a7.042 7.045 0 0 0-.575.458c-.11.116-.093.217.028.17.15-.056 1.01-.131 1.05-.09.024.024-.002.16-.06.31a6.495 6.495 0 0 0-.141.416 6.267 6.27 0 0 1-.092.294c-.027.081-.088.28-.133.442-.046.162-.103.35-.126.418-.127.36-.334 1.694-.335 2.162v.468l.654.65.657.65.484-.03c1.176-.068 2.782-.476 4.263-1.083.586-.242.588-.242 1.056-.452l.564-.255c.83-.371 3.207-1.585 3.891-1.988.047-.027.238-.135.427-.24.19-.106.396-.233.46-.284.175-.135.293-.113.823.153a49.57 49.594 0 0 0 3.035 1.382c1.524.671 2.561.784 3.537.384l.316-.128c1.47-.6 3.457-2.344 5.303-4.655.682-.852.726-1.003.23-.789l-.431.18c-.737.295-1.94.89-2.485 1.228-1.371.847-2.727 1.014-3.888.478-.594-.274-1.507-.878-2.515-1.662-.63-.49-1.48-1.107-1.574-1.142-.053-.019-.122-.163-.187-.39a7.882 7.886 0 0 0-.144-.455 6.098 6.1 0 0 0-.383-.834 5.222 5.224 0 0 0-.557-.859c-.993-1.325-2.34-2.458-3.527-2.965-.417-.178-.559-.226-.656-.226-.183 0-.41-.182-.626-.501a12.56 12.567 0 0 0-.729-.972C5.857 8.176 5.605 6.86 6.977 4.418c.144-.256.396-.73.558-1.055.368-.729.333-.654.541-1.153.28-.675.385-.957.299-.98Zm-3.26 4.497c.036-.007.056.017.056.08 0 .06-.034.283-.074.494a4.277 4.277 0 0 0-.074.565c-.002.305-.044.332-.421.267-.455-.078-.462-.095-.2-.514.343-.546.604-.868.713-.892Zm-1.22 2.379c.036.002.074.01.116.024.117.04.431.09.697.108.547.04.459-.034.78.652.184.393.212.528.112.557-.981.286-1.914.028-1.983-.551-.055-.462.008-.725.183-.78a.26.26 0 0 1 .095-.01zm2.26 2.324c.21-.038.28.063.586.473.563.76.561.751.214.834a14.13 14.13 0 0 1-1.441.289c-.68.1-.659.107-.816-.237a12.954 12.96 0 0 0-.176-.37c-.096-.183-.287-.73-.264-.752.013-.013.319-.034.68-.046.458-.016.743-.05.947-.114.114-.037.2-.065.27-.077zm1.732 2.168a.184.184 0 0 1 .078.013.42.42 0 0 1 .16.127c.045.056.141.207.213.337l.13.237-.115.16c-.34.472-1 .807-1.89.963-.466.082-.456.088-.772-.544-.357-.712-.35-.78.069-.782.134 0 .599-.098 1.202-.251l.584-.147a1.47 1.47 0 0 0 .267-.09.17.17 0 0 1 .074-.022zm1.75 1.109a.343.343 0 0 1 .085.037c.047.026.173.086.282.133.42.187 1.175.71 1.625 1.128.113.105.245.224.295.267.409.35 1.233 1.41 1.487 1.91.088.176.192.38.229.45.136.26.091.463-.14.623-.666.457-1.165 1.295-1.411 2.364-.09.389-.1.397-.447.29-1.604-.5-3.184.69-4.085 3.073a4.343 4.345 0 0 1-.169.402c-.037.06-.657.36-1.138.553-.149.06-.337.137-.417.174a5.454 5.457 0 0 1-.393.147 3.776 3.778 0 0 0-.319.12 4.921 4.924 0 0 1-.441.147 32 32 0 0 0-.51.155c-.174.055-.471.059-.471.006 0-.02.168-.203.373-.405.667-.654.754-.836.557-1.155-.307-.495-.567-.374-1.766.823l-.988.984-.168-.162c-.231-.225-.28-.149.838-1.276 1.101-1.11 1.125-1.148.932-1.52-.242-.468-.573-.383-1.288.325-.538.535-.62.544-.479.057.172-.595.526-1.599.713-2.026l.139-.319c.315-.721.351-.787.46-.829l.309-.119c1.897-.717 2.856-1.499 3.26-2.658.128-.373.14-1.168.022-1.515-.107-.316-.096-.327.4-.455 1.165-.298 1.827-.717 2.379-1.505.086-.124.135-.19.178-.214a.088.088 0 0 1 .068-.01zm-4.326 1.97c.06-.01.1.077.164.217.275.618.109 1.412-.403 1.919-.484.48-1.423 1.052-1.423.868 0-.022.836-1.66 1.029-2.014.383-.708.533-.978.633-.99zm8.964 3.469a.45.45 0 0 1 .268.123l.116.123h-.277c-.28 0-.36-.045-.311-.175.022-.06.108-.082.204-.071zm.622.589-.034.183a4.48 4.482 0 0 1-.096.38 12.86 12.866 0 0 0-.303 1.352c-.046.256-.097.482-.112.5-.047.053-1.213-.526-1.248-.618-.036-.093.04-.695.109-.872.024-.063.07-.207.1-.321.09-.34.263-.505.535-.508.126-.002.327-.021.449-.043.12-.021.306-.042.41-.047zm1.108.623a.047.047 0 0 1 .032.01l.579.421c.578.42.561.392.448.798-.113.401-.158.754-.162 1.278-.005.524.027.506-.503.28-.983-.421-.936-.374-.9-.905.062-.885.332-1.867.506-1.882zm2.217 1.544c.084.009.213.07.42.165.206.095.403.172.44.172.156 0 .22.15.22.51 0 .194.034.485.076.646.136.52.078.56-.738.517-.493-.027-.717-.596-.61-1.552.03-.275.045-.413.122-.448a.13.13 0 0 1 .07-.01zm-7.298.034c.119-.01.233-.008.338.006a.856.856 0 0 1 .359.12l.14.092-.115.086a3.897 3.897 0 0 1-.389.231c-.151.081-.4.216-.551.3-.595.332-1.62.842-1.686.842-.226 0 .43-.983.876-1.313a2.072 2.072 0 0 1 1.028-.364zm10.74.455c.105-.003.19.007.19.032 0 .056-.287.288-.75.607-.536.368-.637.371-.678.019-.052-.447-.022-.485.425-.528.214-.021.445-.058.512-.082a1.125 1.126 0 0 1 .301-.048z"/><path stroke="#000" stroke-linecap="round" stroke-linejoin="round" stroke-width=".265" d="M28.216.132h1.355V28.44h-1.356z"/><path d="M35.063 8.522q-.252 0-.252.644 0 .635.035 2.01.035 1.365.035 1.983.46-.105.79-.766.27-.556.444-1.07.174-.521.226-.643v-.635q0-.522-.39-1.018-.384-.505-.888-.505zM34.96 20.1q.896-.14 1.4-.818.504-.678.504-1.565 0-.888-.148-1.557-.148-.679-.33-1.018-.174-.348-.409-.592-.287-.295-.47-.356h-.634q.087 2.461.087 5.906zm-.991-3.897-.122-7.237v-.104q0-.957.296-1.218.148-.13.374-.13 1.269 0 1.982.817.713.818.713 2.105 0 .809-.426 1.679t-1.017 1.296q1.086.73 1.547 1.861.47 1.122.47 2.358 0 .652-.331 1.34-.322.686-.652 1.095-.322.409-.852.687-.53.279-1.165.279h-.07q-.834 0-.834-.444zm6.73-1.244.086 3.784v.53l-.009.496h.235l.513-.017q.73 0 .73.444 0 .226-.182.391-.174.157-.409.157h-.782q-.809 0-1.035-.035-.139.017-.217.017-.635 0-.635-.4 0-.165.104-.313.105-.148.21-.157h.503l.035-.234-.122-3.784.096-3.967q0-1.017-.087-1.913h-.339l-.409.017q-.26 0-.408-.096-.148-.104-.148-.382 0-.41.878-.41h2.121q.722 0 .722.375 0 .165-.156.304-.157.14-.357.14h-.913q.07.73.07 1.652zm4.094 5.637-.035-1.366.026-.609q-.07-.226-.287-4.018-.208-3.793-.226-4.637h-.07q-1.443-.026-1.443-.53 0-.165.192-.27.191-.113.374-.113l2.417.165.287-.008q.556 0 .556.426 0 .217-.183.356-.182.131-.408.131l-.817-.122-.035.183q0 1.687.295 5.053.296 3.367.296 5.063 0 .209-.191.374-.192.157-.418.157zm7.52-.235.07-10.447V7.722q0-.209.087-.295.087-.088.452-.088.374 0 .748.183.382.174.643.47.252.313.435.696.348.739.348 1.609t-.435 1.992q-.052.122-.209.513-.156.392-.182.461.008 1.322.669 3.436.226.713.643 1.957.418 1.235.522 1.566v.043q0 .6-.139.696-.14.105-.296.105-.33 0-.643-.479v-.06q-.087-1.619-1.113-4.898-.47-1.496-.652-2.218v7.02q0 .27-.096.417-.095.148-.347.148t-.383-.14q-.122-.147-.122-.356zm.983-12.204-.096 3.636q0 .548.018.818.304-.287.6-.687l.278-1.54q.026-.122.026-.278 0-.427-.174-1.036-.244-.835-.652-.913zm6.677 9.464q-.052-.261-.052-.905 0-.652-.078-1.609-.07-.965-.21-2.235-.138-1.279-.19-1.853-.809 4.48-1.044 6.315.305.2 1.574.287zm.93-.357.192 1.096q0 .218.165 1.062.174.843.174 1.104v.018q0 .391-.296.504-.374 0-.583-.122-.208-.121-.208-.47 0-.756-.26-2.2l-1.757-.261q-.165.592-.252 1.296-.087.705-.165 1.027-.157.66-.583.66-.209 0-.391-.13-.174-.139-.174-.348l.043-.156q1.2-4.637 1.783-9.03.017-.121.052-.713.087-1.304.33-1.661h.6q.243 0 .426.113t.183.34q0 1.356.356 4.027.365 2.67.365 3.844zm1.444-3.592.104-3.323q0-.826.652-1.313v.113q.07-.044.13-.044.418 0 1.043 1.444.626 1.435 1.13 3.158.505 1.722 1 3.479.505 1.748.627 2.053.356-3.732.356-9.038l-.026-.478q0-.53.443-.53.253 0 .374.208.13.209.13.487v1.348q-.017 2.097-.19 5.602-.166 3.497-.453 3.95-.487.147-.678.147-.182 0-.287-.122-.095-.13-.156-.391t-.104-.348l.008-.078q0-.662-1.278-4.202t-1.852-4.87v8.967q.018.035.07.122.113.191.113.357 0 .165-.165.33-.157.165-.374.165-.583 0-.583-1.087zm7.05 2.905-.008-1.044v-.426q0-2.627.26-3.653.314-1.27.87-1.757.756-.679 1.913-.679.278 0 .408.13.14.131.14.314t-.114.33q-.104.14-.269.148h-.835q-.365 0-.634.47-.261.47-.383 1.148-.226 1.288-.217 2.131v.087l-.079 3.436q0 1.087.113 1.505.122.417.244.678.13.253.304.418.4.383 1.026.383.209 0 .383-.157.208 0 .374.096.165.095.165.296 0 .704-.983.704-.4 0-.843-.121-.435-.114-.652-.253-1.183-.765-1.183-4.184zm5.634-6.42-.07 4.446q.322.087.974.087h.644q.043-.079.043-.575 0-.495-.121-2.174-.113-1.687-.113-2.54 0-.2.156-.33.157-.14.296-.14.139 0 .226.027.087.026.191.069.104.043.165.06 0 2.315.165 6.768.174 4.445.174 4.593 0 .148-.191.296-.183.139-.417.139-.226 0-.366-.34-.139-.339-.19-1-.044-.67-.062-1.157-.008-.209 0-.478 0-.365.009-.835.017-.826.017-.957v-.07l.026-.513-.104-.165v-.017q-.148.035-.322.035l-1.147-.166v2.044l.104 2.932q0 .252-.13.452-.13.191-.374.191-.357 0-.496-.643-.13-.653-.13-1.775l.052-2.714q0-.843-.026-.93v-.087q.07-.931.07-1.044l-.122-4.019q0-.209.148-.365.147-.165.356-.165.565 0 .565 1.06zm9.773 3.985.017.565v.078q.07 1.549.07 4.645v.453h1.356q.382.26.382.495t-.13.392q-.13.148-.27.148-.139 0-.321-.061-.148.035-.34.035l-.573-.027q-.183.218-.461.218-.27 0-.46-.174-.183-.165-.183-.392l.113-.782q0-2.027-.183-6.072-.174-4.053-.174-6.08 0-.165.13-.261.131-.104.322-.104.2 0 .357.148.165.148.165.365zm5.668 3.479q-.052-.261-.052-.905 0-.652-.078-1.609-.07-.965-.209-2.235-.14-1.279-.191-1.853-.809 4.48-1.043 6.315.304.2 1.573.287zm.93-.357.192 1.096q0 .218.165 1.062.174.843.174 1.104v.018q0 .391-.296.504-.374 0-.582-.122-.21-.121-.21-.47 0-.756-.26-2.2l-1.756-.261q-.165.592-.252 1.296-.087.705-.166 1.027-.156.66-.582.66-.209 0-.391-.13-.174-.139-.174-.348l.043-.156q1.2-4.637 1.783-9.03.017-.121.052-.713.087-1.304.33-1.661h.6q.244 0 .426.113.183.113.183.34 0 1.356.356 4.027.365 2.67.365 3.844zm2.574-5.67v2.652q.939-.026.939-2.253t-.73-2.314q-.21.453-.21 1.914zm-.113 7.67.017.088v.8q.6-.139.896-.704.304-.574.304-1.062 0-.495-.018-.783-.008-.286-.078-.704-.07-.417-.174-.73-.26-.766-.808-.88-.078 1.15-.078 2.697zm-.757-8.584-.095-.922v-.096q0-.374.113-.592.122-.217.6-.217.487 0 .947.252.461.252.73.696.53.87.53 1.983t-.164 1.766q-.165.644-.557 1.2.696.67.8 2.201.018.348.018.835.008.487-.079.957-.086.47-.286.896-.21.426-.505.74-.652.678-1.747.678-.374 0-.478-.33-.07-.253-.079-.61l.174-3.792zm4.087 9.455.739.13q.339 0 .59-.296.253-.295.375-.739.234-.852.234-1.505 0-.66-.217-1.304t-.539-1.192q-.313-.557-.626-1.13Q97 12.74 97 11.436q0-.8.27-1.418.504-1.149 1.339-1.149.313 0 .591.2.287.2.287.435 0 .41-.435.41-.191 0-.374-.105-.565.026-.765 1.261-.043.27-.043.635 0 .357.156.887.157.531.391.948.244.41.514.914.277.496.52.965.558 1.088.549 2.488.009 1.079-.496 2.061-.243.488-.695.8-.444.305-1.017.314v.043q-.73-.104-.8-.687z"/></svg>