<svg xmlns="http://www.w3.org/2000/svg" viewBox="0 0 100 45"><path d="m86.78 24.215.59.105q.27 0 .473-.236.201-.237.298-.591.188-.68.188-1.202 0-.529-.174-1.043-.174-.515-.432-.953-.25-.443-.5-.902-.597-1.085-.597-2.128 0-.64.215-1.132.403-.918 1.07-.918.25 0 .473.161.23.16.23.347 0 .326-.348.326-.153 0-.298-.083-.452.02-.613 1.008-.034.215-.034.507 0 .285.125.71.125.423.313.756.194.327.41.73.221.397.417.772.444.868.438 1.987.007.862-.397 1.647-.194.39-.556.64-.355.244-.813.25v.035q-.585-.084-.639-.549zm-3.107-6.825v2.12q.751-.02.751-1.8t-.584-1.849q-.166.362-.166 1.53zm-.09 6.13.014.07v.64q.48-.112.716-.564.242-.459.242-.847 0-.396-.013-.625-.007-.23-.062-.564-.056-.333-.14-.584-.207-.611-.645-.701-.064.918-.064 2.154zm-.605-6.859-.076-.736v-.077q0-.3.09-.473.098-.173.48-.173.39 0 .757.201.369.202.584.555.424.696.424 1.586 0 .89-.131 1.41-.133.515-.446.96.556.534.64 1.758.014.278.014.667.007.39-.063.765t-.229.716q-.167.34-.403.59-.522.542-1.397.542-.299 0-.383-.264-.055-.202-.062-.486l.14-3.03zm-2.639 5.546q-.041-.209-.041-.722 0-.522-.063-1.286-.056-.772-.167-1.786-.111-1.023-.153-1.48-.646 3.578-.834 5.045.242.16 1.258.229zm.743-.285.154.876q0 .173.13.847.14.675.14.883v.014q0 .313-.236.403-.299 0-.465-.097-.167-.097-.167-.376 0-.605-.21-1.758l-1.402-.209q-.132.474-.202 1.036-.07.563-.132.82-.125.529-.466.529-.167 0-.313-.105-.14-.11-.14-.277l.036-.125q.958-3.705 1.424-7.214.015-.098.043-.57.068-1.043.263-1.328h.48q.195 0 .34.091.146.09.146.27 0 1.085.286 3.218.291 2.133.291 3.072zm-5.809-2.495.015.452v.062q.055 1.237.055 3.712v.361h1.084q.306.208.306.396 0 .187-.104.313-.104.119-.216.119-.11 0-.257-.05-.118.028-.27.028l-.46-.02q-.146.173-.367.173-.216 0-.369-.139-.146-.132-.146-.312l.09-.626q0-1.62-.145-4.851-.14-3.238-.14-4.858 0-.132.104-.209.105-.083.258-.083.16 0 .285.118.131.118.131.292zm-9.324-3.183-.055 3.551q.257.07.778.07h.515q.034-.063.034-.46 0-.395-.097-1.736-.09-1.349-.09-2.03 0-.16.125-.264.125-.11.236-.11.11 0 .181.02.07.02.153.056.083.034.132.048 0 1.85.132 5.407.139 3.551.139 3.67 0 .118-.153.236-.146.111-.333.111-.182 0-.293-.271-.11-.27-.152-.799-.035-.535-.05-.925-.007-.166 0-.381 0-.293.008-.668.014-.66.014-.764v-.056l.02-.41-.083-.132v-.014q-.118.028-.257.028l-.918-.132v1.633l.084 2.343q0 .201-.104.36-.104.154-.299.154-.285 0-.396-.514-.104-.522-.104-1.419l.041-2.168q0-.674-.02-.744v-.07q.055-.743.055-.833l-.097-3.211q0-.166.118-.293.118-.13.285-.13.451 0 .451.847zm-5.037 5.129-.007-.833v-.341q0-2.098.209-2.92.25-1.014.696-1.404.604-.541 1.528-.541.222 0 .327.104.11.104.11.25 0 .146-.09.264-.083.111-.215.118h-.668q-.291 0-.507.375-.208.376-.306.918-.18 1.03-.173 1.703v.07l-.063 2.744q0 .87.09 1.202.098.334.196.543.103.202.242.333.32.307.82.307.167 0 .306-.126.167 0 .299.076.132.077.132.237 0 .563-.786.563-.318 0-.674-.098-.347-.09-.521-.202-.945-.61-.945-3.342zm-6.17-2.321.084-2.655q0-.66.521-1.05v.092q.056-.036.104-.036.333 0 .834 1.154.5 1.146.904 2.522.403 1.377.799 2.78.403 1.398.5 1.641.286-2.982.286-7.222l-.022-.381q0-.424.354-.424.202 0 .3.166.104.167.104.39v1.077q-.014 1.674-.153 4.475-.132 2.795-.362 3.156-.389.118-.541.118-.147 0-.23-.097-.077-.104-.125-.313-.049-.209-.083-.278l.007-.063q0-.527-1.022-3.357-1.021-2.828-1.48-3.891v7.165q.014.028.055.097.09.154.09.286 0 .13-.131.263-.125.132-.299.132-.466 0-.466-.868zm-2.431 3.155q-.041-.209-.041-.722 0-.522-.063-1.286-.055-.772-.167-1.786-.111-1.023-.153-1.48-.645 3.578-.834 5.045.243.16 1.258.229zm.743-.285.154.876q0 .173.13.847.141.675.141.883v.014q0 .313-.237.403-.299 0-.465-.097-.168-.097-.168-.376 0-.605-.207-1.758l-1.404-.209q-.133.474-.202 1.036-.07.563-.131.82-.126.529-.466.529-.168 0-.313-.105-.14-.11-.14-.277l.035-.125q.958-3.705 1.425-7.214.014-.098.04-.57.071-1.043.266-1.328h.48q.194 0 .34.091.145.09.145.27 0 1.085.286 3.218.292 2.133.292 3.072zm-7.4 2.475.056-8.348v-1.751q0-.167.07-.236.07-.07.36-.07.3 0 .599.146.306.139.514.376.202.25.347.554.279.593.279 1.288 0 .695-.348 1.59-.042.098-.167.41l-.146.369q.007 1.056.535 2.746.181.57.514 1.563.334.986.418 1.25v.036q0 .48-.111.555-.111.085-.237.085-.265 0-.515-.384v-.048q-.068-1.292-.89-3.913-.375-1.195-.52-1.772v5.608q0 .216-.076.334-.077.12-.279.12t-.305-.112q-.097-.119-.097-.285zm.785-9.751-.076 2.905q0 .438.014.652.243-.229.48-.548l.222-1.23q.02-.098.02-.223 0-.34-.138-.827-.195-.667-.522-.73zm-8.309 9.938-.027-1.091.02-.486q-.056-.182-.23-3.212-.166-3.03-.18-3.704h-.055q-1.154-.02-1.154-.423 0-.133.153-.216.153-.091.299-.091l1.931.132.23-.007q.444 0 .444.341 0 .173-.145.284-.146.105-.327.105l-.652-.098-.029.147q0 1.348.236 4.037.236 2.69.236 4.045 0 .168-.152.299-.153.125-.333.125zm-3.807-4.503.07 3.023v.423l-.007.397h.187l.41-.014q.585 0 .585.355 0 .18-.147.312-.139.125-.326.125h-.626q-.646 0-.827-.028-.11.014-.174.014-.508 0-.508-.32 0-.132.084-.25t.167-.125h.403l.028-.187-.098-3.023.077-3.17q0-.813-.07-1.529h-.27l-.328.014q-.207 0-.325-.076-.12-.084-.12-.306 0-.327.703-.327h1.696q.577 0 .577.299 0 .132-.126.243-.125.11-.284.11h-.73q.056.586.056 1.322zm-5.037-5.144q-.202 0-.202.515 0 .507.028 1.606.028 1.09.028 1.583.368-.083.632-.611.216-.444.355-.854.138-.418.18-.515v-.507q0-.418-.312-.813-.306-.404-.71-.404zm-.084 9.25q.716-.111 1.12-.653.403-.541.403-1.25 0-.71-.119-1.244-.118-.543-.264-.814-.14-.278-.327-.472-.229-.236-.375-.286h-.506q.07 1.967.07 4.72zm-.792-3.113-.097-5.783v-.082q0-.765.237-.974.118-.104.298-.104 1.015 0 1.584.653.57.654.57 1.683 0 .645-.34 1.341-.34.695-.813 1.035.868.585 1.236 1.488.377.896.377 1.883 0 .521-.265 1.07-.257.549-.521.876-.257.326-.681.55-.424.221-.932.221h-.056q-.666 0-.666-.354zM85.252.001a3.58 3.58 0 0 0-.621.04c-.142.02-.491.06-.777.088-.284.027-.666.07-.847.096-.182.025-.636.078-1.012.12-.375.041-.937.104-1.248.14a92.298 92.298 0 0 1-1.906.212 8.987 8.987 0 0 0-.565.07 7.309 7.309 0 0 1-.588.071 52.8 52.8 0 0 0-1.105.118c-.324.038-.8.09-1.055.115a35.41 35.41 0 0 0-.823.093c-.197.025-.666.08-1.04.12l-1.248.142c-.31.037-.873.101-1.248.141-.375.04-.83.094-1.012.118-.181.026-.54.067-.8.093-.259.026-.756.08-1.106.121-.349.04-.826.093-1.06.116a28.51 28.51 0 0 0-.776.09c-.193.026-.66.08-1.035.122-.376.041-.948.106-1.27.143-.324.038-.886.1-1.248.14-.363.04-.817.092-1.012.117-.194.026-.555.067-.8.092-.246.025-.733.079-1.082.121-.35.04-.837.093-1.084.116a20.42 20.42 0 0 0-.8.09 43.998 43.998 0 0 1-1.035.121c-.376.04-.842.095-1.035.12-.195.024-.555.066-.801.092-.246.026-.732.08-1.082.121-.35.038-.9.1-1.224.138l-1.248.141c-.362.043-.849.096-1.082.12a44.67 44.67 0 0 0-.8.088c-.208.026-.663.08-1.013.12l-1.246.14-1.271.142c-.363.04-.828.094-1.036.12a41.547 41.547 0 0 1-.8.094l-1.06.117c-.348.04-.836.093-1.081.117a31.68 31.68 0 0 0-.8.091c-.195.026-.661.081-1.036.122-.375.04-.841.094-1.036.12-.404.05-2.213.254-3.153.352-.35.038-.9.101-1.224.142-1.598.201-2.764.304-2.895.255-.112-.043-.056-.069.235-.113.265-.04.524-.097 1.2-.258l1.201-.285.907-.214c.568-.135.886-.208 1.376-.322 2.538-.586 2.557-.646.14-.48-2.416.168-3.445.192-8.165.188-2.764-.002-5.32-.028-6.19-.06-4.48-.174-5.05-.203-7.272-.386-.336-.027-.908-.07-1.271-.094a93.313 93.313 0 0 1-1.483-.115c-.454-.039-1.11-.091-1.458-.118a23.875 23.875 0 0 1-1.084-.106c-.28-.036-.94-.055-1.765-.05l-1.317.007-.542.216a11.368 11.368 0 0 0-.622.262.35.35 0 0 1-.127.047 3.692 3.692 0 0 0-.45.188 8.25 8.25 0 0 1-.424.189c-.018 0-.563.25-1.2.552-.713.338-2.378 1.17-2.61 1.308-.235.137-.233.135-.173.333.12.391.462 1.8.486 1.996.012.109.035.119.328.141.381.028.397.042.334.295-.147.589-.343 1.316-.367 1.354-.103.168-.146 1.544-.093 2.996.04 1.061.034 1.128-.147 2.203-.122.726-.21 1.167-.286 1.436-.155.55-.349 1.156-.392 1.235a.36.36 0 0 0-.046.132c0 .028-.055.172-.123.319a24.5 24.5 0 0 0-.28.65l-.159.38.046.89c.078 1.54.137 2.476.186 2.89.026.22.047.52.048.667 0 .147.022.327.05.4.3.79.47 2.939.33 4.205-.064.571-.252 1.6-.31 1.694a1.335 1.335 0 0 0-.067.243c-.049.232-.227.752-.43 1.25l-.14.339.072 1.59c.155 3.44.506 4.647 1.721 5.916.353.37.353.372-.08.453-.424.08-.403-.006-.36 1.513l.038 1.333h.329c.181-.001.69-.027 1.13-.058a55.986 55.986 0 0 1 9.037.105c.77.069 1.523.152 2.565.283.323.041.788.095 1.032.12.244.024.477.054.519.067.04.013.253.044.474.068.219.024.76.097 1.2.161 2.063.3 2.294.316 3.2.22.55-.06 1.701-.168 2.47-.235.3-.026.733-.067.966-.093.232-.026.794-.08 1.247-.12a68.043 68.043 0 0 0 1.248-.122c.233-.025.666-.066.965-.09.297-.024.858-.074 1.247-.112.388-.038.97-.091 1.294-.119.324-.028.652-.06.73-.073.078-.012.511-.057.964-.097a379.11 379.11 0 0 0 1.53-.141c.389-.037.982-.09 1.318-.117.337-.028.74-.07.894-.095a4.337 4.337 0 0 1 .551-.044c.147 0 .37-.022.494-.047a11.095 11.095 0 0 1 .838-.094c.337-.026.95-.08 1.365-.119l1.318-.118c.31-.027.724-.067.918-.091.194-.025.522-.056.729-.071.208-.016.568-.048.8-.073.233-.024.795-.077 1.248-.119a88.87 88.87 0 0 0 1.46-.143c.723-.078 1.459-.089 1.459-.022 0 .024-.081.058-.178.074a47.226 47.226 0 0 0-.74.14l-1.46.282c-.491.093-.99.19-1.105.214-.284.058-.824.161-1.342.255l-.8.148-.612.114-.73.135-.917.168c-.234.042-.553.108-.71.145a2.698 2.698 0 0 1-.364.069c-.044 0-.08.02-.08.046 0 .06.75.06 1.46 0a54.623 54.623 0 0 1 1.976-.093l2.825-.091c2.833-.093 4.2-.162 6.26-.311.504-.037 1.288-.089 1.74-.116a36.48 36.48 0 0 0 1.258-.096 9.028 9.028 0 0 1 .8-.045c.202 0 .855-.03 1.45-.069.595-.038 1.452-.092 1.906-.119 1.04-.061 4.469-.063 5.128-.002.273.025.909.08 1.414.121.505.04 1.055.094 1.224.12.168.023.486.065.706.09.403.047.922.122 1.742.254.925.148 1.064.172 1.27.215.117.024.435.078.707.118.271.04.684.106.918.145.873.144 1.372.172 3.435.195 1.419.016 2.344.005 2.8-.031.376-.03.927-.073 1.225-.094a25.18 25.18 0 0 0 1.778-.194c.189-.027.507-.068.706-.09.2-.025.596-.076.881-.116.284-.04.698-.093.918-.12.22-.028.527-.07.683-.093.154-.026.536-.078.847-.118.78-.1 1.56-.204 2.118-.283.258-.036.724-.099 1.035-.14.31-.04.702-.095.87-.12.325-.047.881-.12 1.46-.189.195-.023.491-.063.659-.09.168-.025.56-.08.87-.12.311-.04.777-.103 1.036-.14.26-.036.737-.1 1.06-.14.323-.043.726-.098.893-.123.168-.026.466-.066.66-.089 1.48-.176 1.513-.186 1.648-.496.238-.55.346-.738.585-1.03.143-.176.262-.34.262-.363 0-.024.049-.124.11-.22.108-.174.5-.938.62-1.211.174-.396.21-.49.21-.551a.202.202 0 0 1 .038-.111 1.73 1.73 0 0 0 .123-.327c.047-.155.112-.367.145-.47.2-.625.426-1.84.5-2.684.108-1.233.132-1.73.134-2.787.002-1.125.003-1.144.124-1.412.176-.39.152-.742-.087-1.269-.081-.175.028-2.756.155-3.704.073-.542.171-1.086.333-1.818.455-2.07.49-2.327.49-3.743 0-2.33-.534-4.057-1.849-5.99l-.168-.246.114-.216c.196-.372.554-.928.9-1.396.357-.483.428-.458-1.331-.458h-1.511l-.29-.275c-.16-.152-.348-.325-.42-.386-.217-.183-.174-.24.4-.522a23.966 23.966 0 0 0 1.542-.834c.09-.056.211-.121.269-.147.888-.39 1.38-2.004.92-3.014-.438-.96-1.136-1.244-3.825-1.553a28.6 28.6 0 0 1-.706-.09c-.634-.094-4.897-.29-6.198-.287-.58 0-.612-.015-.516-.244.63-1.51-.084-3.14-1.588-3.621a1.809 1.809 0 0 0-.49-.078ZM31.726 5.977c.29 0 .296.003.12.045a.58.58 0 0 1-.305-.001c-.097-.037-.06-.045.185-.044zm50.251 2.665c.05.001.09.04.103.127.01.06-.063.169-.2.304-.233.228-.273.192-.16-.144.06-.18.173-.288.257-.287zm-73.913.265c.288.008.674.029 1.196.056.366.018.532.045.548.088.014.035-.575.645-1.414 1.466-1.806 1.767-1.698 1.665-1.755 1.665-.061 0-.058-.441.004-.683.027-.103.067-.262.088-.353.02-.091.075-.292.12-.447.11-.385.202-.777.284-1.22.09-.483.066-.592.928-.572Zm12.286.169c.102-.001.227.033.383.093l.122.045-.128.202c-.07.11-.183.338-.252.506-.203.5-.692.777-.642.365.105-.891.208-1.209.516-1.211zm-5.29 1.748c.038-.004.051.02.051.063 0 .087-.33.945-.518 1.341a40.616 40.616 0 0 1-.854 1.648c-.97 1.725-1.069 2.758-.387 4.035.335.626 1.062 1.69 1.62 2.366.257.313.47.598.698.933.208.306.424.48.6.48.094 0 .23.047.63.217 1.14.485 2.431 1.572 3.382 2.844.295.393.313.422.535.822.138.247.202.384.368.8.02.051.083.248.137.437.063.216.13.355.18.374.09.033.905.623 1.51 1.094.967.752 1.844 1.33 2.413 1.594 1.113.513 2.414.353 3.73-.46.521-.322 1.677-.894 2.383-1.177l.414-.172c.475-.205.434-.06-.22.757-1.468 1.836-3.03 3.302-4.344 4.083a4.394 4.394 0 0 1-.745.38l-.302.122c-.937.383-1.93.276-3.394-.368a47.551 47.551 0 0 1-2.91-1.325c-.508-.255-.622-.276-.79-.146a5.092 5.092 0 0 1-.44.27c-.182.102-.366.206-.41.233-.656.385-2.935 1.549-3.734 1.906l-.54.242c-.45.204-.45.204-1.012.434-1.422.583-2.963.974-4.09 1.04l-.465.027-.63-.622-.628-.623v-.45c.002-.447.2-1.726.322-2.072a9.47 9.47 0 0 0 .12-.4c.045-.156.103-.347.13-.424.026-.078.065-.205.086-.283a5.85 5.85 0 0 1 .138-.398c.054-.143.08-.275.056-.298-.038-.04-.864.032-1.008.087-.116.044-.13-.05-.027-.163.054-.058.303-.256.552-.44.877-.645 1.115-.86 1.244-1.127a108.119 108.119 0 0 1 1.536-3.073l.318-.588c.018-.04.125-.227.237-.417.11-.19.201-.356.201-.37 0-.014.086-.15.19-.303l.188-.274-.288-.601a53.217 53.217 0 0 1-.63-1.354 133.09 133.09 0 0 0-.396-.887 3.863 3.863 0 0 1-.145-.345.967.967 0 0 0-.07-.173c-.162-.346-.413-1.093-.535-1.597-.402-1.653 1.205-4.186 4.277-6.745.827-.688 1.155-.942 1.267-.954Zm-3.11 4.287c-.049.015-.13.105-.252.26-.343.434-.653.953-.6 1.007.026.025.188.07.362.1.36.061.401.036.403-.257 0-.094.032-.338.07-.54.081-.42.096-.597.017-.571zm-1.238 2.278c-.038 0-.062.015-.092.044-.14.141-.155.877-.02 1.04.252.304 1.16.416 1.818.225.095-.029.068-.159-.108-.535-.308-.659-.224-.587-.749-.625a3.57 3.57 0 0 1-.668-.103.666.666 0 0 0-.182-.046zm2.33 2.244c-.085-.006-.185.027-.35.08-.197.062-.47.095-.91.11-.346.01-.64.03-.652.043-.022.023.161.545.254.722.025.05.1.209.167.355.152.329.131.323.784.226.484-.07.774-.13 1.382-.276.333-.08.335-.071-.206-.8-.244-.328-.332-.45-.47-.46zm1.608 2.085a.165.165 0 0 0-.109.022c-.04.022-.155.06-.257.086l-.561.14c-.578.148-1.023.242-1.153.243-.401 0-.407.065-.065.748.302.607.294.6.74.523.854-.15 1.488-.472 1.814-.924l.11-.153-.125-.227c-.163-.297-.283-.44-.394-.458Zm1.641 1.064c-.068-.015-.113.036-.237.214-.528.756-1.163 1.157-2.282 1.443-.475.121-.486.134-.383.437.114.333.101 1.094-.022 1.452-.387 1.11-1.307 1.86-3.127 2.55-.449.169-.375.078-.736.907l-.133.307a20.718 20.718 0 0 0-.685 1.942c-.134.466-.056.457.46-.054.686-.68 1.003-.76 1.235-.314.185.358.162.395-.894 1.459-1.073 1.08-1.025 1.008-.803 1.222l.161.157.946-.944c1.152-1.15 1.4-1.265 1.695-.79.188.306.105.48-.535 1.11-.197.192-.357.367-.357.388 0 .05.286.045.452-.007.075-.025.295-.091.49-.15a4.24 4.24 0 0 0 .423-.141 3.631 3.631 0 0 1 .305-.113c.13-.043.3-.108.377-.141.077-.035.257-.111.4-.168.462-.184 1.056-.473 1.093-.53.02-.03.091-.204.16-.385.864-2.285 2.381-3.426 3.919-2.948.333.104.344.097.43-.276.234-1.026.713-1.829 1.352-2.268.222-.153.266-.347.135-.597a33.144 33.144 0 0 1-.22-.43c-.243-.482-1.035-1.497-1.426-1.832a12.75 12.75 0 0 1-.282-.256c-.432-.4-1.156-.903-1.56-1.082a5.096 5.096 0 0 1-.27-.127.327.327 0 0 0-.08-.036zm-4.135 1.894c-.035-.003-.072.016-.111.062-.06.071-.227.358-.512.883a80.256 80.256 0 0 0-.986 1.93c0 .316 1.422-.76 1.716-1.298.254-.464.136-1.557-.107-1.577zm61.537 2.24c.222 0 .255.011.255.09 0 .05-.018.103-.04.117-.074.046-.156.777-.122 1.088l.03.298-.164.03c-.306.059-.342.03-.317-.262.034-.393.029-.85-.011-1.04-.052-.242.04-.323.369-.323zm-52.954 1.08c-.091-.01-.173.01-.195.07-.048.123.03.167.298.167h.265l-.111-.118a.43.43 0 0 0-.257-.118Zm.598.566-.182.007c-.1.003-.277.023-.393.043a3.308 3.308 0 0 1-.432.04c-.26.005-.427.163-.515.489a3.504 3.504 0 0 1-.094.307c-.067.17-.14.747-.105.836.034.09 1.154.645 1.197.593.016-.017.064-.234.108-.48a12.336 12.336 0 0 1 .29-1.295c.033-.104.074-.268.092-.364zm1.042.592a.108.108 0 0 0-.055.015c-.171.105-.525 2.085-.4 2.241.06.077 1.18.588 1.289.588.023 0 .044-.196.046-.436.005-.502.048-.84.155-1.225.11-.39.124-.362-.43-.764l-.554-.403a.086.086 0 0 0-.05-.016zm2.08 1.487a.08.08 0 0 0-.05.039c-.126.203-.1 1.232.038 1.554.134.312.268.358.962.336.3-.01.334-.083.225-.5a2.966 2.966 0 0 1-.072-.62c0-.345-.062-.487-.212-.487-.035 0-.224-.074-.42-.165-.28-.13-.406-.175-.472-.157zm-6.85.046c-.247-.006-.505.019-.64.076-.444.19-.841.584-1.197 1.189-.159.268-.172.329-.073.329.065 0 1.046-.49 1.617-.808.145-.081.383-.21.528-.287a3.74 3.74 0 0 0 .374-.222l.11-.084-.135-.088c-.096-.063-.334-.1-.583-.105zm10.218.422a1.071 1.071 0 0 0-.288.045 3.122 3.122 0 0 1-.491.079c-.43.04-.457.077-.407.507.04.337.136.334.65-.02.444-.306.719-.528.719-.582 0-.024-.082-.033-.182-.029zm57.33.461c.056.016.074.277.094.844.024.686.047.877.128 1.087.122.316.14.305-.237.144a2.755 2.755 0 0 0-.532-.166c-.323-.049-.33-.01.149-1.104l.182-.423c.107-.258.173-.394.216-.382zm-11.95 2.028-.028.173c-.04.253-.074.269-.678.305-.63.038-.865.089-1.19.253-.228.115-.233.116-.596.047a4.528 4.528 0 0 0-.579-.076c-.524-.011-.532-.198-.012-.252.15-.015.376-.048.505-.073.13-.024.448-.078.707-.117.259-.04.704-.114.988-.162.286-.05.6-.091.701-.093zm-11.473 1.838c.17 0 .216.013.165.045a.36.36 0 0 1-.165.046.358.358 0 0 1-.164-.046c-.05-.032-.004-.045.164-.045zm-.533.13c.078.006.133.019.133.038 0 .01-.132.015-.294.012-.26-.006-.272-.01-.106-.036a1.37 1.37 0 0 1 .267-.013zm-36.766.386h.41l.033.262c.038.309 0 .374-.246.413l-.624.1c-.246.04-.595.094-.776.12a15.16 15.16 0 0 0-.565.09c-.13.025-.457.08-.73.122a50.434 50.434 0 0 0-.875.144c-.503.09-.604.054-.337-.123a5.931 5.931 0 0 0 .577-.492c.555-.529.434-.49 1.624-.542.578-.025 1.061-.058 1.074-.07.014-.014.21-.024.434-.024zm-6.103 1.282c.08.007.176.037.323.087.378.126.42.171.194.206-.1.016-.288.048-.417.073-.812.157-.93.113-.51-.186.19-.138.277-.192.41-.18zm64 1.466c.49 0 1.382.03 1.488.058.155.043.08.112-.12.112-.095 0-.352.03-.574.067-.219.036-.643.1-.94.144a79.746 79.746 0 0 0-.824.121c-.989.153-1.78.225-1.601.145.14-.06.82-.261 1.389-.407a50.785 50.785 0 0 0 .87-.23c.03-.008.149-.01.313-.01zM47.37 41.6c.14 0 .215.019.197.047-.037.06-.26.06-.353 0-.05-.032-.008-.045.156-.046z"/></svg>