<?xml version="1.0" encoding="UTF-8" standalone="no"?>
<!-- Created with Inkscape (http://www.inkscape.org/) -->

<svg
   width="210mm"
   height="297mm"
   viewBox="0 0 210 297"
   version="1.1"
   id="svg3932"
   inkscape:version="1.1.1 (c3084ef, 2021-09-22)"
   sodipodi:docname="square-logo.svg"
   xmlns:inkscape="http://www.inkscape.org/namespaces/inkscape"
   xmlns:sodipodi="http://sodipodi.sourceforge.net/DTD/sodipodi-0.dtd"
   xmlns="http://www.w3.org/2000/svg"
   xmlns:svg="http://www.w3.org/2000/svg">
  <sodipodi:namedview
     id="namedview3934"
     pagecolor="#505050"
     bordercolor="#ffffff"
     borderopacity="1"
     inkscape:pageshadow="0"
     inkscape:pageopacity="0"
     inkscape:pagecheckerboard="1"
     inkscape:document-units="mm"
     showgrid="false"
     inkscape:zoom="2.7837191"
     inkscape:cx="486.22004"
     inkscape:cy="511.72549"
     inkscape:window-width="1312"
     inkscape:window-height="969"
     inkscape:window-x="0"
     inkscape:window-y="40"
     inkscape:window-maximized="0"
     inkscape:current-layer="layer1" />
  <defs
     id="defs3929" />
  <g
     inkscape:label="Layer 1"
     inkscape:groupmode="layer"
     id="layer1">
    <path
       id="path1"
       style="stroke-width:0.999999"
       d="M 572.35742 460.60352 C 571.66704 460.57992 570.89479 460.62984 570.0293 460.75391 C 569.49529 460.83101 568.18614 460.97809 567.11914 461.08203 C 566.05214 461.18521 564.6243 461.34654 563.94531 461.44141 C 563.26632 461.53552 561.55935 461.73849 560.15234 461.89258 C 558.74632 462.04565 556.6425 462.28003 555.47852 462.41602 C 551.15852 462.91903 550.14493 463.03184 548.33594 463.21484 C 547.31694 463.31689 546.36475 463.43656 546.21875 463.47852 C 546.07362 463.52047 545.08262 463.63737 544.01562 463.73828 C 542.94863 463.84033 541.0841 464.04058 539.87109 464.18359 C 538.65809 464.32759 536.87992 464.52112 535.91992 464.61523 C 534.96094 464.70934 533.57197 464.86494 532.83398 464.96094 C 532.09599 465.05694 530.34255 465.26282 528.93555 465.41797 C 527.52956 465.5718 525.42574 465.81026 524.26172 465.94727 C 523.09774 466.08522 520.99387 466.32159 519.58789 466.47266 C 518.18089 466.62384 516.47587 466.82414 515.79688 466.91602 C 515.11788 467.00786 513.76881 467.16465 512.79883 467.26367 C 511.82881 467.36156 509.96432 467.56592 508.6543 467.7168 C 507.3453 467.8676 505.55858 468.06323 504.68555 468.15039 C 503.81255 468.23732 502.50238 468.38844 501.77539 468.48633 C 501.04738 468.58422 499.30055 468.7913 497.89453 468.94531 C 496.48753 469.10027 494.34479 469.34146 493.13281 469.48047 C 491.91981 469.61956 489.81697 469.85414 488.45898 470.00195 C 487.10096 470.15087 485.39594 470.34943 484.66797 470.44531 C 483.94094 470.54131 482.59095 470.69609 481.66992 470.78906 C 480.74794 470.88204 478.92228 471.08516 477.61328 471.24023 C 476.3033 471.39406 474.47866 471.59089 473.55664 471.67578 C 472.63565 471.76195 471.28559 471.9127 470.55859 472.01172 C 469.83058 472.11074 468.08372 472.31662 466.67773 472.46875 C 465.27073 472.62182 463.52586 472.82319 462.79883 472.91602 C 462.07085 473.00899 460.72081 473.16383 459.79883 473.26172 C 458.87783 473.35885 457.05412 473.56187 455.74414 473.71094 C 454.43412 473.85909 452.3712 474.09346 451.1582 474.23047 C 449.94618 474.36842 447.84236 474.60867 446.48438 474.76367 C 445.12639 474.91977 443.30073 475.11893 442.42773 475.20703 C 441.5547 475.29396 440.20566 475.44426 439.42969 475.54102 C 438.65367 475.63815 436.9467 475.83845 435.63672 475.98438 C 434.32772 476.1314 432.22389 476.36967 430.96289 476.51367 C 429.70189 476.65767 427.56115 476.89785 426.20312 477.04688 C 424.84514 477.19692 423.09926 477.39906 422.32227 477.49805 C 421.54629 477.5982 420.19721 477.75581 419.32422 477.84766 C 418.45122 477.94063 416.66545 478.13924 415.35547 478.28906 C 414.04545 478.44024 412.21982 478.63665 411.29883 478.72656 C 410.37681 478.81765 409.02879 478.97047 408.30078 479.06836 C 407.57379 479.16549 405.82693 479.37142 404.41992 479.52344 C 403.0139 479.67537 401.26903 479.87562 400.54102 479.96875 C 399.02603 480.16075 392.2466 480.92094 388.72461 481.29492 C 387.41459 481.43287 385.35167 481.67141 384.13867 481.82422 C 378.15266 482.57922 373.78397 482.96333 373.29297 482.77734 C 372.87297 482.61823 373.07981 482.52038 374.17383 482.35352 C 375.16282 482.20233 376.13388 481.99249 378.67188 481.38867 C 379.88389 481.09954 381.90697 480.62028 383.16797 480.32227 C 384.42897 480.02444 385.95848 479.66353 386.56445 479.51953 C 388.69546 479.01455 389.88766 478.7355 391.72266 478.3125 C 401.23365 476.11652 401.30097 475.88962 392.25195 476.51562 C 383.19598 477.14163 379.34135 477.23078 361.65234 477.2168 C 351.29934 477.20924 341.71998 477.11338 338.45898 476.98828 C 321.66998 476.34228 319.54194 476.23183 311.21094 475.54883 C 309.94994 475.44565 307.80822 475.2864 306.44922 475.19531 C 305.09122 475.10423 302.58958 474.9107 300.89258 474.76367 C 299.19458 474.61778 296.73478 474.41932 295.42578 474.32227 C 294.11578 474.22627 292.29114 474.0477 291.36914 473.92773 C 290.32214 473.79092 287.84186 473.71932 284.75586 473.73633 L 279.81836 473.76172 L 277.78906 474.57227 C 276.67306 475.01727 275.62408 475.45869 275.45508 475.55469 C 275.28708 475.65069 275.07247 475.72852 274.98047 475.72852 C 274.88745 475.72852 274.12897 476.0457 273.29297 476.43359 C 272.45697 476.8216 271.74399 477.14062 271.70898 477.14062 C 271.63698 477.14062 269.59803 478.07698 267.20703 479.20898 C 264.53503 480.47399 258.29978 483.59833 257.42578 484.11133 C 256.55178 484.62334 256.55525 484.61836 256.78125 485.35938 C 257.22925 486.82337 258.51356 492.09991 258.60156 492.83594 C 258.64956 493.24692 258.73508 493.28419 259.83008 493.36719 C 261.26008 493.47415 261.31898 493.52474 261.08398 494.46875 C 260.53499 496.67573 259.79503 499.40293 259.70703 499.54492 C 259.32003 500.17191 259.16038 505.32754 259.35938 510.76953 C 259.50436 514.74854 259.48659 514.99833 258.80859 519.02734 C 258.3516 521.74634 258.02428 523.39927 257.73828 524.40625 C 257.15528 526.46326 256.43058 528.74021 256.26758 529.0332 C 256.17358 529.20215 256.0957 529.4243 256.0957 529.5293 C 256.0957 529.63323 255.88972 530.17168 255.63672 530.72266 C 255.3847 531.27466 254.90998 532.36924 254.58398 533.15625 L 253.99219 534.58789 L 254.16016 537.91797 C 254.45114 543.68897 254.67738 547.19607 254.85938 548.74609 C 254.9564 549.57007 255.03613 550.69508 255.03711 551.24609 C 255.03811 551.79809 255.12255 552.47212 255.22656 552.74609 C 256.35356 555.70112 256.98499 563.75504 256.45898 568.49805 C 256.22197 570.64206 255.51973 574.49665 255.30273 574.84766 C 255.25073 574.93156 255.13583 575.34272 255.04883 575.76172 C 254.86881 576.6287 254.1995 578.5744 253.4375 580.44141 L 252.91602 581.71289 L 253.18359 587.67188 C 253.76459 600.5649 255.07977 605.08383 259.63477 609.8418 C 260.95777 611.22382 260.95797 611.23112 259.33398 611.53711 C 257.74799 611.83607 257.82438 611.51346 257.98438 617.20312 L 258.125 622.20117 L 259.35938 622.19727 C 260.03837 622.19424 261.9428 622.09732 263.5918 621.98242 C 274.7518 621.19942 285.70508 621.32603 297.45508 622.375 C 300.34208 622.63314 303.16441 622.9445 307.06641 623.4375 C 308.27841 623.59057 310.01955 623.79292 310.93555 623.88477 C 311.85055 623.97661 312.723 624.09067 312.875 624.13867 C 313.02701 624.18667 313.82639 624.30074 314.65039 624.39258 C 315.47439 624.48366 317.49944 624.75407 319.14844 624.99414 C 326.87944 626.11813 327.74563 626.17743 331.14062 625.81641 C 333.20363 625.59757 337.51639 625.18947 340.40039 624.93945 C 341.51639 624.84232 343.14263 624.68471 344.01562 624.58984 C 344.88863 624.49384 346.99245 624.29256 348.68945 624.14062 C 350.38746 623.98944 352.49028 623.78547 353.36328 623.6875 C 354.23628 623.58961 355.86252 623.43452 356.97852 623.3457 C 358.09352 623.25575 360.19734 623.06687 361.65234 622.92578 C 363.10734 622.7848 365.28995 622.58456 366.50195 622.48047 C 367.71495 622.37653 368.94533 622.25314 369.23633 622.20703 C 369.52731 622.16017 371.15356 621.99487 372.85156 621.8418 C 374.54856 621.68873 377.12799 621.45244 378.58398 621.31445 C 380.03899 621.17763 382.26048 620.97814 383.52148 620.875 C 384.78249 620.77106 386.29104 620.61257 386.87305 620.52148 C 387.45506 620.42964 388.38256 620.35427 388.93555 620.35352 C 389.48857 620.35253 390.32211 620.27462 390.78711 620.18164 C 391.25313 620.08866 392.66478 619.92986 393.92578 619.83008 C 395.18678 619.72916 397.48903 619.5299 399.04102 619.38477 C 400.59304 619.23963 402.81645 619.03938 403.98047 618.93945 C 405.14445 618.84043 406.69195 618.68566 407.41992 618.5957 C 408.14695 618.50651 409.37633 618.38828 410.15234 618.33008 C 410.92836 618.27225 412.2774 618.14968 413.15039 618.05859 C 414.02339 617.96751 416.12721 617.76726 417.82422 617.61328 C 419.52221 617.45945 421.98298 617.2191 423.29297 617.07812 C 426.00599 616.78597 428.75977 616.74394 428.75977 616.99414 C 428.75977 617.08598 428.46083 617.21221 428.09766 617.27344 C 427.73369 617.33542 426.48429 617.57175 425.32031 617.79883 C 424.15629 618.02673 421.69649 618.50056 419.85352 618.85156 C 418.0105 619.20268 416.14499 619.56332 415.70898 619.6543 C 414.648 619.87351 412.62265 620.25836 410.68164 620.61133 C 409.80865 620.76931 408.45961 621.02001 407.68359 621.16602 C 406.90762 621.31304 405.87565 621.50381 405.39062 621.5918 C 404.90564 621.68099 403.67618 621.90864 402.6582 622.09766 C 401.6392 622.28663 400.08979 622.57049 399.2168 622.72852 C 398.3438 622.88763 397.15048 623.13145 396.5625 623.27148 C 395.9735 623.41246 395.35832 623.52734 395.19531 623.52734 C 395.03128 623.52734 394.89648 623.60637 394.89648 623.70312 C 394.89648 623.93027 397.71023 623.92919 400.36523 623.70117 C 401.48023 623.60517 404.81347 623.44952 407.77148 623.35352 C 410.73048 623.25865 415.49249 623.10312 418.35352 623.00977 C 428.97149 622.66394 434.09653 622.4087 441.81055 621.8457 C 443.70254 621.70775 446.63795 621.51298 448.33594 621.41211 C 450.03295 621.3112 452.15385 621.14993 453.04688 621.05469 C 453.94085 620.95982 455.28894 620.88288 456.04492 620.88477 C 456.79992 620.88677 459.24555 620.769 461.47656 620.625 C 463.70754 620.481 466.92115 620.28075 468.61914 620.17969 C 472.51115 619.94876 485.36399 619.94246 487.83398 620.17188 C 488.85699 620.26599 491.24082 620.47008 493.13281 620.625 C 495.02379 620.77883 497.08874 620.97923 497.71875 621.07031 C 498.34974 621.1614 499.54024 621.31611 500.36523 621.41211 C 501.87822 621.58824 503.81863 621.87125 506.89062 622.36523 C 510.35762 622.92124 510.87935 623.00993 511.65234 623.16992 C 512.08933 623.26101 513.27788 623.46029 514.29688 623.61328 C 515.31489 623.76635 516.86333 624.0103 517.73633 624.1543 C 521.01133 624.69428 522.87834 624.80073 530.61133 624.88672 C 535.92432 624.94568 539.39247 624.90629 541.10547 624.76758 C 542.51145 624.65344 544.57641 624.49501 545.69141 624.41602 C 547.81142 624.2671 550.17748 624.00942 552.35547 623.69141 C 553.06247 623.5886 554.25203 623.43345 555 623.34766 C 555.74801 623.26148 557.23378 623.06872 558.30078 622.91992 C 559.36778 622.77101 560.91622 622.5668 561.74023 622.4668 C 562.56523 622.36588 563.71487 622.20903 564.29688 622.11719 C 564.87885 622.02534 566.30868 621.82687 567.47266 621.67773 C 570.39865 621.30281 573.31922 620.91311 575.4082 620.61914 C 576.37822 620.48308 578.12508 620.24773 579.28906 620.09375 C 580.45308 619.93955 581.91979 619.73751 582.55078 619.64453 C 583.76877 619.46463 585.84952 619.19452 588.01953 618.93555 C 588.74751 618.84862 589.85831 618.69945 590.48828 618.60156 C 591.11931 618.50443 592.58598 618.30056 593.75 618.14844 C 594.91398 617.9965 596.66088 617.76099 597.63086 617.625 C 598.60088 617.48894 600.38759 617.24984 601.59961 617.09375 C 602.81261 616.9369 604.31921 616.73185 604.94922 616.63672 C 605.58021 616.54072 606.69191 616.39199 607.41992 616.30469 C 612.96593 615.64471 613.09175 615.60524 613.59375 614.44727 C 614.48776 612.38527 614.89115 611.67796 615.78516 610.58594 C 616.32514 609.92796 616.76758 609.31562 616.76758 609.22461 C 616.76758 609.13466 616.95168 608.76239 617.17773 608.40039 C 617.58573 607.75039 619.05489 604.88931 619.50586 603.86328 C 620.15787 602.38227 620.29297 602.02676 620.29297 601.80078 C 620.29297 601.66472 620.35649 601.47774 620.43359 601.38477 C 620.51145 601.29292 620.71841 600.74217 620.89453 600.16016 C 621.07066 599.57815 621.31448 598.78445 621.4375 598.39648 C 622.18551 596.05548 623.03452 591.49973 623.3125 588.34375 C 623.7185 583.72177 623.80844 581.85742 623.81445 577.89844 C 623.82201 573.68442 623.82564 573.61342 624.2793 572.60742 C 624.93731 571.14543 624.84519 569.82352 623.94922 567.85352 C 623.65026 567.1955 624.05647 557.52564 624.53125 553.97266 C 624.80338 551.93965 625.17627 549.90315 625.7793 547.16016 C 627.48628 539.40714 627.61328 538.4396 627.61328 533.14062 C 627.61328 524.40262 625.61947 517.93632 620.68945 510.69531 L 620.05664 509.76758 L 620.48438 508.96094 C 621.22339 507.56591 622.56636 505.48248 623.85938 503.72852 C 625.19438 501.9185 625.46401 502.01172 618.87305 502.01172 L 613.20898 502.01172 L 612.12109 500.98047 C 611.5231 500.41244 610.8178 499.76313 610.55078 499.53711 C 609.7378 498.84912 609.89884 498.63613 612.04883 497.57812 C 613.89985 496.66813 616.39121 495.32011 617.82422 494.45312 C 618.16438 494.24714 618.619 494.00123 618.83398 493.90625 C 622.158 492.44425 624.00329 486.39736 622.2793 482.61133 C 620.64129 479.01235 618.02623 477.94908 607.94922 476.78906 C 607.12422 476.6942 605.93373 476.54144 605.30273 476.44922 C 602.9287 476.10604 586.95418 475.36894 582.07617 475.37695 C 579.90918 475.37994 579.78653 475.32181 580.14453 474.46484 C 582.50851 468.80485 579.83118 462.69648 574.19727 460.89648 C 573.65727 460.72395 573.0478 460.62711 572.35742 460.60352 z M 371.79297 482.99609 C 372.87997 482.99908 372.90409 483.00753 372.24609 483.16211 C 371.81809 483.26227 371.37961 483.26101 371.09961 483.1582 C 370.73662 483.02516 370.87497 482.99231 371.79297 482.99609 z M 560.08398 492.98438 C 560.2726 492.98652 560.42263 493.13574 560.46875 493.45898 C 560.50277 493.68689 560.23492 494.09063 559.71875 494.59766 C 558.84776 495.45164 558.69707 495.31462 559.12109 494.05664 C 559.34739 493.38351 559.76962 492.9808 560.08398 492.98438 z M 283.13086 493.97852 C 284.20872 494.00428 285.65488 494.08334 287.60938 494.18359 C 288.98437 494.25352 289.60697 494.35455 289.66797 494.51367 C 289.71895 494.64671 287.51414 496.93381 284.36914 500.00781 C 277.59814 506.62682 278.00202 506.24414 277.79102 506.24414 C 277.56001 506.24414 277.57053 504.59451 277.80664 503.6875 C 277.90763 503.29949 278.05479 502.70329 278.13477 502.36328 C 278.21376 502.02426 278.416 501.27146 278.58398 500.68945 C 279.00199 499.24446 279.34239 497.78028 279.65039 496.11328 C 279.98414 494.31028 279.89728 493.90121 283.13086 493.97852 z M 329.16406 494.60742 C 329.549 494.60419 330.01827 494.73258 330.60352 494.95508 L 331.06055 495.12695 L 330.58008 495.88086 C 330.31706 496.29487 329.89272 497.1483 329.63672 497.7793 C 328.87472 499.64933 327.04357 500.68849 327.22656 499.14648 C 327.62481 495.80523 328.00925 494.61712 329.16406 494.60742 z M 309.3457 501.1582 C 309.48562 501.14364 309.53516 501.23013 309.53516 501.39062 C 309.53516 501.72247 308.2968 504.93187 307.5918 506.42188 C 306.96179 507.75389 305.15253 511.24472 304.39453 512.59375 C 300.76153 519.05572 300.38936 522.92795 302.94336 527.71094 C 304.19736 530.06093 306.92567 534.04708 309.01367 536.58008 C 309.97667 537.74909 310.78086 538.82119 311.63086 540.07422 C 312.40786 541.21919 313.22091 541.87007 313.87891 541.87109 C 314.23089 541.87109 314.74328 542.04745 316.23828 542.68555 C 320.50628 544.50558 325.34911 548.57685 328.91211 553.33984 C 330.01811 554.81787 330.08792 554.92386 330.91992 556.42188 C 331.43492 557.34888 331.66892 557.86193 332.29492 559.41992 C 332.37293 559.61381 332.60554 560.35057 332.81055 561.05859 C 333.04556 561.86658 333.29538 562.387 333.48438 562.45703 C 333.82037 562.581 336.87353 564.79359 339.14453 566.55859 C 342.76553 569.37457 346.04864 571.54236 348.18164 572.52734 C 352.35564 574.45335 357.22925 573.85556 362.15625 570.81055 C 364.11325 569.60053 368.44289 567.45953 371.08789 566.39453 C 371.62089 566.17948 372.31872 565.89091 372.63672 565.75391 C 374.42072 564.98492 374.26345 565.52797 371.81445 568.58984 C 366.31445 575.46586 360.46511 580.9617 355.53711 583.88672 C 354.22111 584.66772 353.84009 584.86257 352.74609 585.30859 C 352.40609 585.44768 351.89628 585.65545 351.61328 585.77148 C 348.10728 587.20748 344.38139 586.80264 338.90039 584.39062 C 338.70639 584.30559 338.11213 584.0578 337.57812 583.8418 C 335.47812 582.98777 330.94419 580.89883 327.99219 579.42383 C 326.08819 578.4718 325.66416 578.39392 325.03516 578.87891 C 324.80415 579.05806 324.06081 579.51357 323.38281 579.89258 C 322.70381 580.27257 322.01266 580.66275 321.84766 580.75977 C 319.38866 582.20676 310.84837 586.56636 307.85938 587.90234 C 307.37437 588.11853 306.46303 588.52944 305.83203 588.81445 C 304.15003 589.57444 304.14802 589.57452 302.04102 590.4375 C 296.71401 592.62052 290.94179 594.08993 286.7168 594.33594 L 284.97266 594.4375 L 282.61523 592.10547 L 280.25977 589.77148 L 280.26367 588.08789 C 280.26859 586.40887 281.00984 581.61529 281.46484 580.32031 C 281.54985 580.07729 281.75588 579.40037 281.92188 578.81836 C 282.08689 578.23635 282.30334 577.52345 282.40234 577.23242 C 282.50133 576.9414 282.64854 576.46485 282.72852 576.17383 C 282.80853 575.8828 283.03925 575.21062 283.24023 574.68164 C 283.44524 574.14362 283.54008 573.65141 283.45508 573.56641 C 283.30809 573.41938 280.21473 573.68659 279.67773 573.89258 C 279.24473 574.0585 279.18518 573.69916 279.57617 573.2793 C 279.77717 573.06424 280.70853 572.32377 281.64453 571.63477 C 284.93153 569.21575 285.82074 568.40916 286.30273 567.41016 C 288.25773 563.35015 291.18554 557.49457 292.06055 555.89258 C 292.64254 554.82558 293.17805 553.83248 293.24805 553.6875 C 293.31804 553.54161 293.71772 552.83991 294.13672 552.12891 C 294.55472 551.4179 294.89648 550.79326 294.89648 550.74023 C 294.89648 550.68732 295.21552 550.17838 295.60352 549.60938 L 296.30859 548.57812 L 295.23047 546.32617 C 294.21347 544.19917 293.39709 542.44691 292.87109 541.25391 C 292.55308 540.5319 292.03277 539.3686 291.38477 537.93359 C 291.08577 537.27157 290.8418 536.68966 290.8418 536.63867 C 290.8418 536.58651 290.72408 536.29532 290.58008 535.99023 C 289.97208 534.69325 289.03317 531.89179 288.57617 530.00781 C 287.07217 523.81381 293.08956 514.32338 304.60156 504.73438 C 307.69981 502.15439 308.92594 501.2019 309.3457 501.1582 z M 297.68945 517.21875 C 297.51052 517.27882 297.20396 517.61399 296.74609 518.19336 C 295.46009 519.82135 294.302 521.76777 294.5 521.9668 C 294.596 522.0628 295.20452 522.23263 295.85352 522.34375 C 297.20852 522.57581 297.35828 522.47963 297.36328 521.38281 C 297.36428 521.02791 297.48588 520.11549 297.63086 519.35547 C 297.93211 517.78297 297.98767 517.11864 297.68945 517.21875 z M 293.05273 525.75781 C 292.90873 525.75673 292.82048 525.81113 292.70898 525.92188 L 292.70898 525.92383 C 292.17999 526.45383 292.12677 529.21028 292.63477 529.82227 C 293.57976 530.96028 296.97936 531.37917 299.44336 530.66016 C 299.80037 530.55622 299.70207 530.06931 299.03906 528.6543 C 297.88606 526.19129 298.20133 526.45742 296.23633 526.31641 C 295.27933 526.24837 294.15247 526.0738 293.73047 525.92969 C 293.39597 525.81573 293.19673 525.7589 293.05273 525.75781 z M 301.7793 534.16406 C 301.46731 534.14031 301.08675 534.26723 300.46875 534.46484 C 299.73575 534.6988 298.7105 534.82114 297.0625 534.875 C 295.7665 534.91809 294.66614 534.9922 294.61914 535.03906 C 294.53614 535.12297 295.22431 537.08212 295.57031 537.74414 C 295.66631 537.9282 295.94822 538.52628 296.19922 539.07227 C 296.76522 540.30628 296.68777 540.28384 299.13477 539.92188 C 300.94577 539.65391 302.03445 539.4357 304.31445 538.88672 C 305.56045 538.58776 305.56897 538.61762 303.54297 535.89258 C 302.62734 534.66071 302.29927 534.20365 301.7793 534.16406 z M 307.80664 541.97656 C 307.66798 541.95353 307.53444 541.98234 307.39844 542.05859 C 307.25043 542.14174 306.8175 542.28675 306.4375 542.38086 C 306.0585 542.47573 305.11194 542.71425 304.33594 542.91211 C 302.16994 543.46313 300.50262 543.81245 300.01562 543.81445 C 298.50962 543.82201 298.48854 544.0631 299.76953 546.62305 C 300.90553 548.89503 300.87292 548.87115 302.54492 548.57812 C 305.74492 548.01713 308.11789 546.81018 309.33789 545.11914 L 309.75195 544.54297 L 309.28516 543.69336 C 308.67316 542.5811 308.22261 542.04565 307.80664 541.97656 z M 313.95703 545.96289 C 313.69983 545.90577 313.53606 546.09957 313.07031 546.76562 C 311.08831 549.59865 308.71148 551.10184 304.52148 552.17383 C 302.73949 552.63081 302.69894 552.67654 303.08594 553.81055 C 303.51094 555.05753 303.46498 557.91201 303 559.25 C 301.55 563.41402 298.10416 566.22374 291.28516 568.80273 C 289.60416 569.43773 289.87939 569.09902 288.52539 572.20508 C 288.33539 572.6421 288.11039 573.15951 288.02539 573.35352 C 287.35139 574.88453 286.07894 578.49281 285.46094 580.63281 C 284.95594 582.38081 285.25058 582.34678 287.18359 580.42969 C 289.75159 577.88168 290.9455 577.5789 291.8125 579.25391 C 292.5065 580.59492 292.41989 580.73275 288.46289 584.71875 C 284.44389 588.76674 284.62217 588.49676 285.45117 589.30078 L 286.05664 589.88477 L 289.60352 586.34766 C 293.91852 582.04463 294.85017 581.61057 295.95117 583.39258 C 296.66017 584.53857 296.34617 585.19292 293.95117 587.54492 C 293.21317 588.26991 292.60938 588.92501 292.60938 589 C 292.60938 589.18784 293.68074 589.17303 294.30273 588.97461 C 294.58374 588.88466 295.40972 588.6348 296.13672 588.41797 C 296.86472 588.20216 297.57765 587.96463 297.72266 587.89062 C 297.86866 587.81768 298.38414 587.62481 298.86914 587.46289 C 299.35414 587.30075 299.99025 587.06162 300.28125 586.93164 C 300.57224 586.80162 301.24529 586.51962 301.7793 586.30664 C 303.51029 585.61465 305.73605 584.53533 305.87305 584.32031 C 305.94705 584.20541 306.21762 583.55595 306.47461 582.87695 C 309.71361 574.31496 315.3972 570.04098 321.1582 571.83398 C 322.4052 572.22199 322.44658 572.19501 322.76758 570.79492 C 323.64958 566.95394 325.44489 563.94583 327.83789 562.29883 C 328.66989 561.72581 328.8338 560.99952 328.3418 560.0625 C 328.20679 559.80549 327.83558 559.07919 327.51758 558.44922 C 326.60758 556.64722 323.64183 552.83893 322.17383 551.58594 C 321.99385 551.43173 321.51723 551.00098 321.11523 550.62695 C 319.49824 549.12399 316.78348 547.24123 315.27148 546.57422 C 314.88349 546.40225 314.42876 546.1877 314.25977 546.0957 C 314.13876 546.02918 314.04277 545.98193 313.95703 545.96289 z M 298.46289 553.0625 C 298.33271 553.05169 298.19155 553.12109 298.04492 553.29297 C 297.81592 553.56094 297.19691 554.63254 296.12891 556.60156 C 295.4369 557.87655 292.43359 563.75304 292.43359 563.83203 C 292.43359 565.01604 297.76519 560.98769 298.86719 558.9707 C 299.81656 557.23296 299.37417 553.13818 298.46289 553.0625 z M 529.04297 561.45117 C 529.87299 561.45117 530 561.49703 530 561.79297 C 530 561.98195 529.93074 562.1794 529.8457 562.23242 C 529.57169 562.40137 529.26564 565.13964 529.39062 566.30664 L 529.50977 567.42383 L 528.89062 567.53906 C 527.74161 567.75525 527.61011 567.64577 527.70312 566.55859 C 527.83012 565.07759 527.81134 563.37023 527.66016 562.6582 C 527.46702 561.75123 527.81092 561.45117 529.04297 561.45117 z M 330.625 565.50391 C 330.2805 565.46652 329.97363 565.54525 329.89062 565.76172 L 329.89062 565.76367 C 329.71363 566.22568 330.00671 566.38867 331.01172 566.38867 L 332.00195 566.38867 L 331.58789 565.94727 C 331.35189 565.69627 330.9695 565.54129 330.625 565.50391 z M 332.86328 567.62305 L 332.18164 567.64453 C 331.80664 567.65587 331.14303 567.73187 330.70703 567.80859 C 330.27003 567.88645 329.54185 567.95495 329.08984 567.96289 C 328.11484 567.97801 327.49302 568.56898 327.16602 569.79102 C 327.05603 570.19902 326.89463 570.71734 326.80664 570.94336 C 326.55765 571.57635 326.28801 573.7412 326.41602 574.07422 C 326.54501 574.41022 330.73734 576.48882 330.90234 576.29883 C 330.96036 576.23193 331.14069 575.42202 331.30469 574.5 C 331.64968 572.56201 332.07558 570.6625 332.39258 569.64648 C 332.51458 569.25549 332.67127 568.64028 332.73828 568.2793 L 332.86328 567.62305 z M 336.76953 569.83984 C 336.69716 569.83945 336.62201 569.85755 336.5625 569.89453 C 335.9235 570.28851 334.60045 577.70699 335.06445 578.29297 C 335.29247 578.5821 339.48758 580.49805 339.89258 580.49805 C 339.98057 580.49805 340.06035 579.76325 340.06836 578.86523 C 340.08537 576.98322 340.24741 575.71549 340.65039 574.27148 C 341.05839 572.81349 341.11506 572.91717 339.03906 571.41016 C 337.99606 570.65217 337.06094 569.97049 336.96094 569.89648 C 336.91093 569.85907 336.8419 569.84024 336.76953 569.83984 z M 344.56055 575.41406 C 344.47873 575.43636 344.4212 575.48489 344.37695 575.55664 C 343.90395 576.32063 343.99756 580.17779 344.51758 581.38281 C 345.02158 582.54978 345.52114 582.72459 348.11914 582.64258 C 349.24914 582.60856 349.37475 582.32951 348.96875 580.76758 C 348.81776 580.1906 348.69531 579.14532 348.69531 578.44531 C 348.69531 577.1543 348.46335 576.61914 347.90234 576.61914 C 347.77032 576.61914 347.06313 576.33986 346.32812 576 C 345.27888 575.5155 344.80598 575.34716 344.56055 575.41406 z M 318.90039 575.58398 C 317.97002 575.562 317.00405 575.65451 316.49805 575.87109 C 314.83405 576.58308 313.34572 578.05829 312.01172 580.32227 C 311.41872 581.32826 311.36728 581.55664 311.73828 581.55664 C 311.98028 581.55664 315.65983 579.71733 317.79883 578.52734 C 318.34283 578.22423 319.23334 577.74206 319.77734 577.45508 C 320.32134 577.16708 320.95173 576.79208 321.17773 576.62109 L 321.5918 576.31055 L 321.08594 575.97852 C 320.72444 575.74101 319.83077 575.60597 318.90039 575.58398 z M 357.1875 577.16602 C 356.814 577.17868 356.37252 577.23761 356.10352 577.33398 C 355.86053 577.42091 355.03267 577.55369 354.26367 577.62891 C 352.65768 577.785 352.55028 577.92035 352.73828 579.5293 C 352.88629 580.79332 353.24883 580.7821 355.17383 579.45703 C 356.83783 578.31104 357.86719 577.47839 357.86719 577.27539 C 357.86719 577.18733 357.561 577.15335 357.1875 577.16602 z M 572.00195 578.89453 C 572.21 578.95317 572.27618 579.93068 572.35156 582.05469 C 572.44265 584.62167 572.52811 585.34188 572.83398 586.13086 C 573.29097 587.31087 573.35433 587.27193 571.94336 586.66992 C 571.29536 586.39402 570.39828 586.11193 569.94727 586.04492 C 568.73929 585.86388 568.71774 586.01113 570.50977 581.91016 C 570.69988 581.47313 571.0045 580.75925 571.1875 580.32227 C 571.59131 579.3602 571.84014 578.84892 572.00195 578.89453 z M 527.22461 586.49414 L 527.12109 587.14062 C 526.96689 588.08963 526.83903 588.1462 524.57422 588.2832 C 522.21621 588.42607 521.33713 588.61436 520.11914 589.23242 C 519.26716 589.6634 519.24676 589.66531 517.88477 589.4043 C 517.12776 589.25916 516.15081 589.13287 515.71484 589.12305 C 513.75282 589.07996 513.72209 588.38073 515.67188 588.17773 C 516.2289 588.11991 517.08142 587.99809 517.56641 587.90625 C 518.05143 587.81441 519.24287 587.61482 520.21289 587.46484 C 521.18287 587.31366 522.84902 587.04043 523.91602 586.85742 C 524.98301 586.67449 526.16503 586.51884 526.54102 586.50977 L 527.22461 586.49414 z M 484.23242 593.37891 C 484.86644 593.37891 485.04156 593.42562 484.85156 593.54883 C 484.70567 593.64294 484.42643 593.7207 484.23242 593.7207 C 484.03853 593.7207 483.76022 593.64256 483.61523 593.54883 C 483.42512 593.42562 483.60033 593.37891 484.23242 593.37891 z M 482.23633 593.87109 C 482.5272 593.88895 482.73438 593.93739 482.73438 594.00977 C 482.73438 594.04756 482.23882 594.06672 481.63281 594.05273 C 480.66083 594.03006 480.61238 594.01472 481.23438 593.91797 C 481.56988 593.866 481.94546 593.85324 482.23633 593.87109 z M 344.47266 595.3125 L 346.00977 595.3125 L 346.13281 596.29297 C 346.27681 597.45098 346.13099 597.69379 345.20898 597.8418 C 344.84698 597.89962 343.797 598.06984 342.875 598.21875 C 341.954 598.36653 340.64384 598.56716 339.96484 598.66406 C 339.28584 598.76006 338.33461 598.91364 337.84961 599.00586 C 337.36461 599.0977 336.13423 599.30191 335.11523 599.45898 C 334.09723 599.61697 332.62098 599.85996 331.83398 600.00195 C 329.94998 600.34098 329.57127 600.20297 330.57227 599.53906 C 330.98427 599.26505 331.95837 598.43534 332.73438 597.69531 C 334.81137 595.71333 334.36236 595.86304 338.81836 595.66602 C 340.98336 595.57115 342.7957 595.45148 342.8457 595.40234 C 342.89469 595.35321 343.62665 595.3125 344.47266 595.3125 z M 321.60352 600.11719 C 321.90286 600.14293 322.26561 600.25649 322.81836 600.44141 C 324.22936 600.91343 324.38997 601.08385 323.54297 601.21484 C 323.16698 601.27267 322.46156 601.3953 321.97656 601.48828 C 318.93356 602.07328 318.49645 601.91403 320.06445 600.79102 C 320.78445 600.27539 321.10461 600.07428 321.60352 600.11719 z M 561.41602 605.60742 C 563.25277 605.60872 566.59574 605.72154 566.99023 605.82812 C 567.57323 605.98498 567.29283 606.24805 566.54297 606.24805 C 566.18505 606.24805 565.21757 606.3589 564.39258 606.49609 C 563.56758 606.63291 561.98023 606.87712 560.86523 607.03711 C 559.74925 607.19698 558.35935 607.40227 557.77734 607.49219 C 554.07337 608.06516 551.10827 608.3341 551.78125 608.03711 C 552.30426 607.80505 554.84936 607.05776 556.98438 606.50977 C 557.61438 606.34876 558.52865 606.10951 559.01367 605.97852 C 559.49866 605.84661 560.05404 605.69833 560.24805 605.64844 C 560.36054 605.61943 560.80377 605.60699 561.41602 605.60742 z M 430.4082 616.48047 C 430.92917 616.47949 431.2135 616.54658 431.14648 616.6543 C 431.0074 616.87842 430.17122 616.87842 429.82422 616.6543 C 429.63335 616.53033 429.79395 616.48236 430.4082 616.48047 z "
       transform="scale(0.26458333)" />
  </g>
</svg>
