<svg xmlns="http://www.w3.org/2000/svg" viewBox="0 0 210 297"><path d="m152.95 145.874.585.104q.269 0 .469-.234.2-.235.296-.586.186-.675.186-1.192 0-.524-.172-1.034-.173-.51-.428-.944-.248-.44-.496-.895-.592-1.075-.592-2.109 0-.634.213-1.123.4-.91 1.061-.91.248 0 .469.16.227.158.227.344 0 .323-.344.323-.152 0-.296-.082-.448.02-.607.999-.034.213-.034.503 0 .282.124.703.124.42.31.75.193.324.406.724.22.393.414.765.44.861.434 1.97.007.855-.393 1.633-.193.386-.551.634-.352.242-.806.248v.035q-.58-.083-.634-.544zm-3.08-6.766v2.102q.745-.02.745-1.785 0-1.764-.579-1.833-.165.359-.165 1.516zm-.089 6.077.014.07v.633q.475-.11.71-.558.24-.455.24-.84 0-.393-.013-.62-.007-.228-.062-.559-.055-.33-.138-.579-.206-.606-.64-.695-.063.91-.063 2.136zm-.6-6.8-.075-.73v-.076q0-.297.09-.469.096-.172.475-.172.386 0 .751.2t.579.55q.42.69.42 1.572 0 .882-.13 1.399-.132.51-.442.95.551.53.634 1.744.014.275.014.661.007.386-.062.758t-.227.71q-.166.337-.4.585-.517.538-1.385.538-.296 0-.379-.262-.055-.2-.062-.482l.138-3.004zm-2.616 5.498q-.041-.207-.041-.716 0-.517-.062-1.275-.056-.765-.166-1.77-.11-1.014-.151-1.468-.641 3.548-.827 5.002.24.158 1.247.227zm.737-.282.152.868q0 .172.13.84.138.669.138.875v.014q0 .31-.234.4-.296 0-.461-.097-.166-.096-.166-.372 0-.6-.207-1.743l-1.391-.207q-.131.469-.2 1.027-.07.558-.131.813-.124.524-.462.524-.165 0-.31-.104-.138-.11-.138-.275l.035-.124q.95-3.673 1.412-7.152.014-.097.042-.565.068-1.034.261-1.316h.476q.193 0 .337.09.145.089.145.268 0 1.075.283 3.19.289 2.115.289 3.046zm-5.759-2.474.014.448v.062q.055 1.226.055 3.68v.358h1.075q.303.206.303.392 0 .186-.103.31-.103.118-.214.118-.11 0-.255-.049-.117.028-.268.028l-.455-.02q-.145.171-.365.171-.214 0-.365-.137-.145-.131-.145-.31l.09-.62q0-1.606-.145-4.81-.138-3.21-.138-4.816 0-.131.103-.207.104-.082.255-.082.159 0 .283.117.13.117.13.289zm-9.244-3.156-.055 3.521q.255.07.772.07h.51q.034-.063.034-.456 0-.392-.096-1.722-.09-1.337-.09-2.012 0-.159.124-.262.124-.11.234-.11.11 0 .18.02.069.021.151.056.083.034.131.048 0 1.833.131 5.36.138 3.521.138 3.638 0 .118-.152.235-.144.11-.33.11-.18 0-.29-.269-.11-.268-.151-.792-.035-.53-.049-.917-.007-.165 0-.378 0-.29.007-.662.014-.655.014-.758v-.055l.02-.406-.082-.131v-.014q-.117.027-.255.027l-.91-.13v1.619l.083 2.322q0 .2-.103.358-.103.152-.296.152-.283 0-.393-.51-.103-.517-.103-1.406l.041-2.15q0-.668-.02-.737v-.069q.054-.737.054-.827l-.096-3.183q0-.165.117-.29.117-.13.283-.13.447 0 .447.84zm-4.994 5.085-.007-.826v-.338q0-2.08.207-2.894.248-1.006.69-1.392.599-.537 1.515-.537.22 0 .324.103.11.103.11.248 0 .145-.09.262-.082.11-.213.117h-.662q-.289 0-.503.372-.206.372-.303.91-.179 1.02-.172 1.688v.069l-.062 2.721q0 .862.09 1.192.096.331.193.538.103.2.24.33.318.304.814.304.165 0 .303-.124.165 0 .296.075.131.076.131.235 0 .558-.779.558-.316 0-.668-.097-.344-.09-.517-.2-.937-.606-.937-3.314zm-6.117-2.301.083-2.632q0-.655.517-1.04v.09q.055-.035.103-.035.33 0 .827 1.144.496 1.136.896 2.5.4 1.365.792 2.757.4 1.385.496 1.626.283-2.956.283-7.16l-.021-.378q0-.42.351-.42.2 0 .297.165.103.165.103.386v1.068q-.014 1.66-.152 4.437-.13 2.77-.358 3.128-.386.117-.537.117-.145 0-.228-.096-.076-.103-.124-.31-.048-.207-.082-.276l.007-.062q0-.523-1.013-3.328-1.013-2.804-1.468-3.858v7.104q.014.027.055.096.09.152.09.283 0 .13-.131.261-.124.131-.296.131-.462 0-.462-.861zm-2.41 3.128q-.041-.207-.041-.716 0-.517-.062-1.275-.055-.765-.166-1.77-.11-1.014-.151-1.468-.64 3.548-.827 5.002.241.158 1.247.227zm.737-.282.152.868q0 .172.13.84.139.669.139.875v.014q0 .31-.235.4-.296 0-.461-.097-.166-.096-.166-.372 0-.6-.206-1.743l-1.392-.207q-.131.469-.2 1.027-.069.558-.13.813-.125.524-.462.524-.166 0-.31-.104-.138-.11-.138-.275l.034-.124q.95-3.673 1.413-7.152.013-.097.04-.565.07-1.034.263-1.316h.475q.193 0 .338.09.144.089.144.268 0 1.075.283 3.19.29 2.115.29 3.046zm-7.336 2.453.055-8.276v-1.736q0-.165.069-.234t.358-.069q.296 0 .593.145.303.137.51.372.2.248.344.55.276.587.276 1.276 0 .689-.345 1.577-.041.097-.165.407l-.145.365q.007 1.047.53 2.722.18.565.51 1.55.331.978.414 1.24v.035q0 .475-.11.55-.11.084-.235.084-.262 0-.51-.38v-.048q-.068-1.281-.882-3.879-.372-1.185-.516-1.757v5.56q0 .214-.076.331-.076.118-.276.118t-.303-.11q-.096-.118-.096-.283zm.778-9.667-.076 2.88q0 .434.014.647.241-.227.476-.544l.22-1.22q.02-.096.02-.22 0-.338-.137-.82-.193-.661-.517-.723zm-8.238 9.853-.027-1.082.02-.482q-.055-.18-.227-3.184-.165-3.004-.179-3.672h-.055q-1.144-.02-1.144-.42 0-.131.152-.214.151-.09.296-.09l1.915.131.228-.007q.44 0 .44.338 0 .172-.144.282-.145.104-.324.104l-.647-.097-.028.145q0 1.337.234 4.003.234 2.667.234 4.01 0 .166-.151.296-.152.124-.33.124zm-3.774-4.465.069 2.997v.42l-.007.393h.186l.406-.014q.58 0 .58.352 0 .179-.146.31-.137.124-.323.124h-.62q-.641 0-.82-.028-.11.014-.173.014-.503 0-.503-.317 0-.131.083-.248.083-.117.165-.124h.4l.028-.186-.097-2.997.076-3.142q0-.806-.069-1.516h-.269l-.324.014q-.206 0-.323-.076-.118-.083-.118-.303 0-.324.696-.324h1.682q.572 0 .572.296 0 .131-.125.241-.124.11-.282.11h-.723q.055.58.055 1.31zm-4.994-5.099q-.2 0-.2.51 0 .503.028 1.592.027 1.081.027 1.57.365-.082.627-.606.214-.44.352-.847.137-.414.179-.51v-.503q0-.414-.31-.806-.303-.4-.703-.4zm-.083 9.17q.71-.11 1.11-.647.4-.537.4-1.24t-.118-1.233q-.117-.538-.262-.807-.138-.275-.324-.468-.227-.234-.372-.283H95.8q.07 1.95.07 4.679zm-.785-3.086-.097-5.733v-.082q0-.758.235-.965.117-.103.296-.103 1.006 0 1.57.647.566.648.566 1.668 0 .64-.338 1.33-.337.689-.806 1.026.861.58 1.226 1.475.373.889.373 1.867 0 .517-.262 1.061-.255.544-.517.868-.255.324-.675.545-.42.22-.924.22h-.055q-.661 0-.661-.351zm56.353-20.892a3.549 3.549 0 0 0-.616.04c-.141.02-.487.06-.77.087-.282.027-.66.07-.84.095-.18.025-.63.078-1.003.12-.372.04-.929.102-1.237.138-1.143.133-1.41.163-1.89.21a8.91 8.91 0 0 0-.56.07c-.038.012-.3.043-.583.07-.282.026-.775.08-1.096.117-.321.038-.792.09-1.046.114-.253.025-.62.067-.816.092-.195.025-.66.08-1.031.12l-1.237.14c-.308.037-.865.1-1.237.14-.372.04-.823.093-1.003.117-.18.025-.536.066-.793.092-.257.026-.75.08-1.097.12-.346.04-.819.092-1.05.115-.23.023-.577.063-.77.089-.192.026-.654.08-1.026.121-.373.041-.94.105-1.26.142-.321.037-.878.099-1.237.138-.36.04-.81.092-1.003.117-.192.025-.55.066-.793.091-.244.025-.727.078-1.073.12-.347.04-.83.092-1.074.115-.243.022-.6.062-.793.088a43.62 43.62 0 0 1-1.027.121c-.372.04-.834.094-1.026.119-.193.024-.55.065-.794.091-.244.026-.726.08-1.073.12-.346.038-.892.1-1.213.137l-1.237.14c-.359.042-.842.095-1.073.118-.231.023-.588.063-.793.088-.206.026-.657.079-1.004.118l-1.236.14-1.26.14c-.36.04-.821.094-1.027.12a41.19 41.19 0 0 1-.793.093c-.23.024-.703.077-1.05.116-.346.04-.83.092-1.073.116-.244.024-.6.065-.793.09-.193.026-.655.08-1.027.121-.372.04-.834.093-1.027.118-.4.05-2.194.252-3.126.35-.347.037-.892.1-1.213.14-1.584.2-2.74.302-2.87.253-.111-.042-.056-.068.233-.112.262-.04.519-.096 1.19-.256l1.19-.282.899-.212c.563-.134.879-.207 1.364-.32 2.517-.58 2.535-.64.14-.475-2.396.166-3.416.19-8.096.186-2.74-.002-5.274-.028-6.136-.06-4.442-.172-5.006-.201-7.21-.382-.333-.027-.9-.07-1.26-.093a92.51 92.51 0 0 1-1.47-.114c-.45-.039-1.1-.091-1.446-.117a23.67 23.67 0 0 1-1.074-.105c-.277-.036-.933-.055-1.75-.05l-1.306.007-.537.214a11.27 11.27 0 0 0-.617.26.347.347 0 0 1-.126.046 3.66 3.66 0 0 0-.446.187c-.221.102-.41.187-.42.187-.018 0-.558.248-1.19.547-.707.335-2.357 1.161-2.588 1.297-.232.136-.23.134-.171.33.119.388.458 1.784.482 1.979.012.108.035.118.325.14.378.028.394.042.331.292-.145.584-.34 1.305-.364 1.343-.102.166-.144 1.53-.092 2.97.039 1.052.034 1.118-.146 2.184-.12.72-.207 1.157-.283 1.424-.154.544-.346 1.146-.389 1.224a.356.356 0 0 0-.045.131c0 .028-.055.17-.122.316a24.29 24.29 0 0 0-.278.644l-.157.378.045.882c.077 1.526.136 2.454.185 2.864.025.218.046.516.047.662 0 .146.022.324.05.397.298.782.465 2.913.326 4.168-.063.567-.249 1.587-.306 1.68a1.324 1.324 0 0 0-.067.241c-.048.23-.225.745-.427 1.239l-.138.336.071 1.577c.154 3.41.502 4.606 1.707 5.865.35.366.35.368-.08.449-.42.079-.399-.006-.357 1.5l.038 1.321h.326c.18-.001.684-.027 1.12-.057a55.504 55.504 0 0 1 8.96.104c.764.068 1.51.15 2.543.28.32.041.781.095 1.023.119.242.024.473.054.514.067.04.013.251.043.47.067.217.024.753.096 1.19.16 2.045.297 2.274.313 3.172.217.546-.058 1.687-.166 2.45-.232.296-.026.726-.067.957-.092.23-.026.787-.08 1.236-.12.45-.04 1.006-.093 1.237-.12.231-.025.661-.066.957-.09.295-.023.851-.073 1.236-.11.385-.038.963-.091 1.283-.118.321-.028.647-.06.724-.073.077-.012.507-.056.956-.096.45-.041 1.132-.103 1.517-.14.385-.036.973-.089 1.306-.116.334-.028.733-.07.887-.094a4.3 4.3 0 0 1 .546-.044c.146 0 .367-.021.49-.046a11 11 0 0 1 .83-.093c.334-.026.943-.08 1.354-.118.41-.038.999-.09 1.306-.117.308-.027.718-.067.91-.091.193-.024.518-.055.723-.07.206-.016.563-.048.794-.072.23-.024.787-.077 1.236-.118.45-.04 1.1-.104 1.447-.142.718-.077 1.447-.088 1.447-.022 0 .024-.08.058-.176.074a46.82 46.82 0 0 0-.734.139l-1.447.279c-.487.092-.981.188-1.096.212-.281.058-.817.16-1.33.253l-.794.147-.606.113-.723.133-.91.167c-.232.042-.548.107-.703.144a2.675 2.675 0 0 1-.362.068c-.043 0-.079.02-.079.046 0 .06.744.06 1.447 0a54.153 54.153 0 0 1 1.96-.092l2.8-.091c2.809-.092 4.165-.16 6.206-.308.5-.037 1.277-.088 1.726-.115.45-.027 1.01-.07 1.247-.095a8.95 8.95 0 0 1 .793-.045c.2 0 .847-.03 1.437-.068.59-.038 1.44-.091 1.89-.118 1.03-.061 4.43-.063 5.084-.002.27.025.901.079 1.402.12.5.04 1.046.093 1.213.118.167.024.482.065.7.09.4.047.914.121 1.727.252.917.147 1.055.17 1.26.213.115.024.43.077.7.117.269.04.678.105.91.144.866.142 1.36.17 3.406.193 1.406.016 2.323.005 2.776-.031.372-.03.919-.072 1.214-.093.56-.04 1.187-.108 1.763-.192.187-.027.502-.068.7-.09.198-.024.59-.075.873-.114.282-.04.692-.093.91-.12.218-.027.523-.068.677-.092.153-.025.532-.077.84-.117.774-.099 1.547-.202 2.1-.28.256-.036.718-.098 1.026-.139.308-.04.696-.094.863-.119.322-.047.873-.119 1.447-.187.193-.023.487-.063.653-.089.167-.025.555-.08.863-.12.308-.04.77-.102 1.027-.138.257-.036.73-.1 1.05-.14.321-.042.72-.096.886-.121.167-.026.462-.065.654-.088 1.468-.175 1.5-.185 1.634-.492.236-.545.343-.732.58-1.021.142-.175.26-.337.26-.36 0-.024.048-.123.108-.219.108-.172.497-.929.616-1.2.172-.392.208-.486.208-.546a.2.2 0 0 1 .037-.11c.02-.024.076-.17.122-.324.047-.154.111-.364.144-.467.198-.619.422-1.824.496-2.66.107-1.222.131-1.716.133-2.763.002-1.115.003-1.134.123-1.4.174-.387.15-.736-.087-1.258-.08-.174.028-2.732.154-3.672.072-.538.17-1.077.33-1.803.451-2.051.485-2.307.485-3.71 0-2.311-.528-4.022-1.832-5.938l-.167-.245.113-.214c.195-.369.55-.92.893-1.384.353-.479.424-.454-1.32-.454h-1.498l-.288-.273c-.158-.15-.345-.322-.415-.382-.216-.182-.173-.238.396-.518a23.76 23.76 0 0 0 1.528-.827c.09-.055.21-.12.267-.145.88-.387 1.368-1.987.912-2.988-.434-.953-1.126-1.234-3.792-1.54a28.354 28.354 0 0 1-.7-.09c-.628-.092-4.855-.287-6.145-.284-.574 0-.606-.015-.511-.242.625-1.497-.083-3.113-1.574-3.59a1.793 1.793 0 0 0-.487-.077zm-53.066 5.925c.288 0 .294.003.12.044a.575.575 0 0 1-.303-.001c-.096-.036-.06-.044.183-.043zm49.819 2.642c.05.001.09.04.102.126.009.06-.062.167-.199.301-.23.226-.27.19-.158-.143.06-.178.172-.285.255-.284zm-73.277.263c.285.007.668.028 1.185.055.363.018.528.045.544.087.014.035-.57.64-1.402 1.454-1.791 1.751-1.684 1.65-1.74 1.65-.061 0-.058-.437.004-.677.027-.102.066-.26.087-.35.02-.09.074-.289.119-.443.11-.382.2-.77.282-1.21.088-.478.065-.586.92-.566zm12.18.167c.101-.001.225.033.38.092l.121.045-.127.2c-.07.11-.182.335-.25.502-.201.495-.686.77-.637.362.105-.884.207-1.199.512-1.201zm-5.244 1.733c.037-.004.05.02.05.062 0 .087-.328.937-.514 1.33a40.267 40.267 0 0 1-.846 1.634c-.962 1.71-1.06 2.734-.384 4 .332.621 1.053 1.676 1.606 2.346.255.31.467.593.692.925.206.303.421.475.595.475.093 0 .229.047.624.216 1.13.481 2.411 1.558 3.354 2.819.292.39.31.419.53.815.137.245.2.381.365.793.02.051.082.246.136.434.062.214.128.351.178.37.09.033.897.618 1.498 1.085.958.745 1.827 1.319 2.391 1.58 1.104.509 2.394.35 3.698-.455.517-.32 1.663-.887 2.363-1.168l.41-.17c.471-.203.43-.06-.218.75-1.455 1.82-3.003 3.274-4.307 4.048a4.356 4.356 0 0 1-.738.376l-.3.122c-.928.38-1.913.273-3.364-.365a47.142 47.142 0 0 1-2.886-1.314c-.503-.252-.616-.273-.782-.144a5.048 5.048 0 0 1-.437.268c-.18.1-.363.204-.406.23-.651.382-2.91 1.536-3.702 1.89-.128.056-.369.165-.536.24-.445.202-.446.202-1.003.43-1.41.578-2.937.966-4.055 1.031l-.461.027-.624-.617-.623-.617.001-.446c.001-.444.197-1.712.318-2.055.022-.064.077-.243.12-.397.044-.154.102-.343.128-.42.026-.077.065-.203.086-.28a5.8 5.8 0 0 1 .136-.395c.054-.142.079-.272.056-.295-.038-.039-.857.032-.999.086-.115.044-.13-.05-.027-.162.053-.057.3-.253.547-.435.87-.64 1.105-.853 1.233-1.118a107.189 107.189 0 0 1 1.523-3.047c.154-.282.296-.545.315-.583.018-.04.124-.225.235-.413.11-.188.2-.353.2-.367 0-.014.085-.149.188-.3l.186-.272-.285-.596a52.759 52.759 0 0 1-.624-1.342c-.084-.191-.222-.499-.393-.879a3.83 3.83 0 0 1-.144-.342.959.959 0 0 0-.07-.172c-.16-.343-.409-1.084-.53-1.583-.398-1.639 1.195-4.15 4.24-6.687.82-.682 1.145-.934 1.256-.946zm-3.084 4.25c-.048.015-.129.104-.25.257-.34.431-.647.946-.594.999.025.025.186.07.358.1.358.06.398.035.4-.255 0-.094.032-.335.07-.536.08-.416.095-.592.016-.566zm-1.227 2.259c-.038 0-.062.014-.091.043-.14.14-.154.87-.02 1.032.25.301 1.15.412 1.802.222.094-.028.068-.157-.107-.53-.305-.653-.222-.582-.742-.62a3.54 3.54 0 0 1-.663-.102.66.66 0 0 0-.18-.045zm2.309 2.224c-.083-.006-.183.027-.347.08-.194.061-.465.094-.901.108-.343.011-.634.031-.647.043-.022.023.16.541.252.716.025.049.1.207.166.352.15.326.13.32.777.224.48-.07.767-.128 1.37-.274.33-.079.332-.07-.204-.792-.242-.326-.329-.447-.466-.457zm1.595 2.067a.164.164 0 0 0-.108.022c-.04.022-.154.06-.255.085l-.556.14c-.573.146-1.014.239-1.143.24-.398.001-.404.065-.065.742.3.601.292.595.734.518.847-.149 1.475-.468 1.798-.916l.11-.152-.124-.225c-.162-.294-.281-.436-.391-.454zm1.627 1.055c-.068-.015-.112.036-.235.212-.524.75-1.153 1.147-2.262 1.431-.471.12-.482.133-.38.433.113.33.1 1.085-.022 1.44-.384 1.101-1.296 1.844-3.1 2.527-.445.168-.372.078-.73.9l-.132.304a20.54 20.54 0 0 0-.679 1.926c-.133.462-.055.453.456-.054.68-.674.995-.754 1.225-.311.183.355.16.391-.887 1.446-1.063 1.07-1.016 1-.796 1.212l.16.155.938-.936c1.142-1.139 1.388-1.254 1.68-.782.187.303.104.476-.53 1.099-.195.191-.354.365-.354.385 0 .05.283.045.448-.007.074-.024.292-.09.485-.148.192-.057.381-.12.42-.14a3.6 3.6 0 0 1 .303-.112c.128-.043.296-.107.373-.14.077-.035.255-.11.397-.166.458-.183 1.047-.469 1.083-.526.02-.03.091-.202.16-.382.856-2.265 2.36-3.396 3.884-2.922.33.103.341.096.426-.274.233-1.017.708-1.813 1.341-2.248.22-.152.264-.344.134-.592-.036-.068-.134-.26-.218-.427-.241-.477-1.026-1.484-1.414-1.816a12.64 12.64 0 0 1-.28-.254c-.428-.397-1.146-.895-1.546-1.072a5.052 5.052 0 0 1-.268-.126.324.324 0 0 0-.08-.036zm-4.1 1.878c-.034-.003-.071.016-.11.061-.06.071-.225.355-.507.876a79.566 79.566 0 0 0-.978 1.913c0 .313 1.41-.753 1.702-1.287.251-.46.134-1.543-.107-1.563zm61.008 2.22c.22 0 .253.012.253.09 0 .05-.018.102-.04.116-.073.045-.154.77-.121 1.078l.031.296-.163.03c-.304.058-.34.029-.315-.26.034-.39.029-.843-.011-1.031-.051-.24.04-.32.366-.32zm-52.498 1.072c-.091-.01-.172.01-.194.068-.047.123.03.166.296.166h.262l-.11-.117a.426.426 0 0 0-.254-.117zm.592.56-.18.007c-.1.003-.275.023-.39.043a3.28 3.28 0 0 1-.428.04c-.258.005-.423.161-.51.484a3.474 3.474 0 0 1-.094.305c-.066.168-.138.74-.104.829.034.089 1.144.639 1.187.588.016-.017.063-.232.107-.476a12.23 12.23 0 0 1 .288-1.284c.032-.103.073-.266.091-.361zm1.034.587a.107.107 0 0 0-.055.015c-.17.104-.52 2.067-.397 2.222.06.076 1.17.583 1.278.583.023 0 .044-.194.046-.432.005-.498.048-.833.154-1.215.108-.386.123-.359-.426-.757l-.55-.4a.085.085 0 0 0-.05-.016zm2.061 1.475a.08.08 0 0 0-.049.038c-.125.202-.1 1.222.038 1.541.133.309.265.355.953.333.298-.009.332-.082.224-.496a2.94 2.94 0 0 1-.072-.614c0-.342-.061-.483-.21-.483-.035 0-.222-.074-.416-.164-.278-.128-.403-.173-.468-.155zm-6.79.045c-.245-.006-.501.019-.635.076-.44.188-.834.579-1.187 1.178-.157.266-.17.326-.072.326.064 0 1.037-.486 1.603-.801.144-.08.38-.208.524-.284.144-.076.31-.175.37-.22l.11-.083-.134-.088c-.096-.062-.332-.098-.578-.104zm10.13.419a1.062 1.062 0 0 0-.286.044 3.095 3.095 0 0 1-.487.078c-.425.041-.453.077-.403.503.039.334.135.331.644-.02.44-.303.713-.523.713-.577 0-.023-.081-.032-.18-.028zm56.837.457c.055.015.073.274.093.836.024.68.046.87.127 1.078.121.313.138.302-.235.143a2.731 2.731 0 0 0-.528-.165c-.32-.048-.326-.01.148-1.094l.18-.42c.107-.255.172-.39.215-.378zm-11.847 2.01-.028.172c-.04.25-.074.266-.673.302-.624.038-.857.088-1.18.251-.225.114-.23.115-.59.046a4.489 4.489 0 0 0-.574-.075c-.52-.011-.528-.196-.012-.25.148-.015.373-.047.501-.072.129-.024.444-.077.7-.116.257-.04.698-.113.98-.161.283-.049.595-.09.695-.092zm-11.375 1.822c.168 0 .214.013.164.045a.357.357 0 0 1-.164.046.355.355 0 0 1-.163-.046c-.05-.032-.004-.045.163-.045zm-.528.13c.077.005.131.018.131.037 0 .01-.13.015-.291.012-.257-.006-.27-.01-.105-.036.088-.014.188-.017.265-.013zm-36.45.382h.406l.033.26c.038.306 0 .37-.244.409l-.618.1c-.244.039-.59.092-.77.118-.18.025-.431.066-.56.09-.128.024-.453.078-.723.12a50 50 0 0 0-.868.143c-.499.09-.599.054-.334-.122a5.88 5.88 0 0 0 .572-.488c.55-.524.43-.485 1.61-.537.573-.025 1.052-.057 1.065-.07.013-.013.207-.023.43-.023zm-6.051 1.271c.08.007.175.037.321.086.374.125.416.17.192.204-.1.016-.286.048-.414.073-.805.155-.921.112-.506-.185.19-.136.275-.19.407-.178zm63.45 1.453c.486 0 1.37.03 1.475.058.154.042.08.111-.118.111-.095 0-.35.03-.57.066-.217.036-.637.1-.932.143a79.06 79.06 0 0 0-.817.12c-.98.152-1.765.223-1.587.144.139-.06.812-.259 1.377-.404a50.348 50.348 0 0 0 .863-.228c.03-.008.147-.01.31-.01zm-34.662 2.876c.138 0 .213.018.195.046-.037.06-.258.06-.35 0-.05-.032-.008-.045.155-.046z" aria-label="Bit Ranch Labs" font-size="14.111" letter-spacing=".529" style="-inkscape-font-specification:Amatic" word-spacing="2.646"/></svg>