<?xml version="1.0" standalone="no"?>
<!DOCTYPE svg PUBLIC "-//W3C//DTD SVG 20010904//EN"
 "http://www.w3.org/TR/2001/REC-SVG-20010904/DTD/svg10.dtd">
<svg version="1.0" xmlns="http://www.w3.org/2000/svg"
 width="700.000000pt" height="700.000000pt" viewBox="0 0 700.000000 700.000000"
 preserveAspectRatio="xMidYMid meet">
<metadata>
Created by potrace 1.14, written by Peter Selinger 2001-2017
</metadata>
<g transform="translate(0.000000,700.000000) scale(0.100000,-0.100000)"
fill="#000000" stroke="none">
<path d="M1645 6993 c-124 -14 -201 -27 -270 -44 -632 -160 -1129 -662 -1304
-1320 -70 -260 -64 -19 -68 -2967 l-3 -2662 2692 2 2693 3 110 22 c248 50 511
162 705 300 111 80 277 236 363 343 240 297 387 666 427 1069 14 141 14 3347
0 3496 -48 510 -278 978 -640 1302 -286 255 -636 412 -1012 452 -90 10 -3613
14 -3693 4z m590 -1105 c-26 -87 -112 -283 -198 -448 -239 -460 -259 -515
-260 -700 -1 -80 5 -135 17 -180 41 -152 161 -357 346 -590 50 -63 119 -153
153 -200 105 -143 143 -178 212 -196 345 -88 832 -534 1006 -922 16 -35 40
-100 54 -145 30 -99 28 -95 90 -137 28 -19 149 -108 270 -199 313 -234 455
-324 595 -376 62 -23 96 -29 197 -33 190 -7 328 32 535 151 206 119 609 307
658 307 l21 0 -22 -40 c-70 -124 -406 -502 -615 -691 -274 -248 -516 -400
-726 -455 -126 -33 -305 -17 -477 43 -113 39 -406 165 -662 286 -124 59 -237
107 -251 107 -14 0 -70 -26 -125 -58 -260 -155 -826 -440 -1128 -569 -383
-163 -714 -253 -988 -270 l-109 -6 -134 134 -134 134 0 60 c0 77 25 274 50
386 18 83 104 377 120 409 4 8 10 28 14 44 l7 29 -103 -6 c-57 -3 -111 -8
-122 -13 -14 -5 -17 -3 -15 11 2 10 54 56 114 103 61 46 142 110 182 143 l72
59 182 362 c182 363 349 673 396 735 l26 34 -88 187 c-205 438 -295 657 -342
830 -60 227 2 454 206 758 43 66 116 164 162 219 168 203 478 493 712 666 85
64 113 74 102 37z"/>
<path d="M1515 4949 c-49 -55 -135 -189 -135 -212 0 -30 127 -60 147 -35 5 7
17 65 26 128 26 180 24 187 -38 119z"/>
<path d="M1266 4479 c-11 -16 -16 -45 -16 -95 0 -64 3 -76 26 -104 44 -51 98
-73 194 -78 48 -2 112 1 143 8 50 10 57 14 57 36 0 21 -64 168 -88 203 -7 9
-48 19 -114 27 -56 7 -122 16 -144 20 -36 5 -43 3 -58 -17z"/>
<path d="M1705 4004 c-27 -8 -107 -17 -177 -21 -70 -3 -132 -9 -138 -13 -8 -5
-4 -26 13 -71 36 -94 86 -196 103 -210 19 -16 121 -6 279 26 158 33 195 43
201 60 6 14 -82 147 -139 212 -33 37 -58 40 -142 17z"/>
<path d="M2068 3555 c-60 -22 -341 -85 -380 -85 -20 0 -43 -7 -52 -15 -18 -18
-9 -50 44 -156 60 -119 83 -128 233 -89 144 38 254 100 312 176 l28 37 -24 46
c-53 101 -81 115 -161 86z"/>
<path d="M2453 3313 c-60 -79 -141 -158 -204 -199 -78 -51 -135 -75 -279 -118
l-105 -32 3 -39 c18 -266 14 -310 -40 -421 -87 -178 -255 -309 -562 -436 -77
-33 -149 -67 -158 -76 -54 -54 -284 -680 -259 -705 5 -5 43 22 90 65 163 147
214 168 265 107 34 -40 41 -72 25 -111 -7 -18 -100 -122 -206 -231 -106 -109
-193 -206 -193 -216 0 -9 13 -30 29 -46 l30 -28 173 168 c272 263 326 295 382
222 57 -75 45 -107 -85 -242 -49 -51 -89 -95 -89 -98 0 -16 84 -5 179 24 168
50 539 204 574 239 5 4 33 64 62 133 124 289 266 463 449 552 117 58 232 68
378 34 32 -7 60 -10 63 -7 4 3 20 53 36 110 16 56 51 146 76 198 41 83 60 108
147 194 120 119 121 123 51 250 -155 285 -419 549 -696 696 -52 27 -97 50
-101 50 -4 0 -20 -17 -35 -37z"/>
<path d="M1555 2886 c-45 -71 -295 -549 -295 -564 0 -7 5 -12 10 -12 40 0 239
137 299 205 19 22 46 64 60 95 22 47 26 69 26 150 0 75 -4 103 -20 134 -11 22
-25 42 -32 44 -7 2 -28 -22 -48 -52z"/>
<path d="M3414 2215 c-19 -15 -19 -15 0 -30 12 -9 41 -15 69 -15 45 0 48 2 36
17 -11 13 -68 43 -82 43 -2 0 -12 -7 -23 -15z"/>
<path d="M3400 2088 c-100 -12 -119 -27 -152 -122 -27 -76 -50 -208 -40 -234
5 -14 249 -138 257 -130 3 2 16 63 30 134 14 71 36 170 49 219 43 161 44 145
-16 144 -29 -1 -87 -6 -128 -11z"/>
<path d="M3781 1953 c-35 -68 -81 -293 -81 -400 0 -68 10 -78 143 -136 146
-64 147 -64 147 21 1 84 15 197 36 285 14 57 14 70 3 84 -23 27 -209 163 -224
163 -8 0 -18 -8 -24 -17z"/>
<path d="M4239 1643 c-10 -12 -14 -51 -14 -152 0 -122 2 -140 23 -178 30 -58
64 -73 159 -73 102 0 107 4 99 71 -3 30 -10 98 -15 153 -5 54 -13 102 -18 106
-7 7 -208 90 -217 90 -2 0 -10 -7 -17 -17z"/>
<path d="M2653 1627 c-34 -12 -82 -36 -107 -54 -75 -53 -191 -213 -184 -254 3
-19 12 -16 118 36 154 76 403 211 432 235 l23 19 -45 20 c-62 28 -156 27 -237
-2z"/>
<path d="M4959 1556 c-2 -3 -54 -12 -114 -21 -130 -19 -139 -26 -130 -100 10
-71 23 -82 71 -57 89 46 229 156 219 172 -6 10 -38 14 -46 6z"/>
</g>
</svg>
